{"glyphs":{"0":{"ha":739,"x_min":0,"x_max":0,"o":"m 369 -8 b 81 289 207 -8 81 72 l 81 719 b 369 1015 81 935 207 1015 b 658 719 532 1015 658 935 l 658 289 b 369 -8 658 72 532 -8 m 567 719 b 369 931 567 864 493 931 b 172 719 246 931 172 864 l 172 289 b 369 76 172 143 246 76 b 567 289 493 76 567 143 m 371 553 b 421 503 399 553 421 532 b 371 451 421 475 399 451 b 319 503 340 451 319 475 b 371 553 319 532 340 553 "},"1":{"ha":324,"x_min":0,"x_max":0,"o":"m 136 860 l 81 769 b 54 753 72 757 63 753 b 18 793 33 753 18 772 b 39 835 18 806 29 826 l 153 996 b 188 1017 161 1007 169 1017 b 228 982 207 1017 228 1004 l 228 36 b 182 0 228 13 204 0 b 136 36 158 0 136 13 "},"2":{"ha":660,"x_min":0,"x_max":0,"o":"m 71 785 b 332 1015 71 918 185 1015 b 608 749 492 1015 608 899 b 142 171 608 450 142 356 l 142 85 l 585 85 b 618 43 603 85 618 65 b 585 0 618 21 603 0 l 90 0 b 47 36 72 0 47 14 l 47 171 b 517 746 47 401 517 503 b 329 929 517 833 457 929 b 161 765 233 929 161 875 b 113 728 161 747 144 728 b 71 785 85 728 71 743 "},"3":{"ha":676,"x_min":0,"x_max":0,"o":"m 325 76 b 525 285 454 76 525 142 l 525 311 b 328 496 525 439 447 496 b 292 535 301 496 292 515 b 326 575 292 554 301 575 b 500 753 438 575 500 615 b 332 932 500 874 449 932 b 154 783 186 932 154 843 b 110 739 154 756 142 739 b 63 792 74 739 63 751 b 335 1015 63 868 114 1015 b 589 771 485 1015 589 950 b 475 536 589 644 539 567 b 617 311 557 503 617 435 l 617 285 b 326 -8 617 72 488 -8 b 39 221 129 -8 39 118 b 82 269 39 260 51 269 b 129 231 118 269 129 254 b 325 76 129 171 172 76 "},"4":{"ha":617,"x_min":0,"x_max":0,"o":"m 400 239 l 47 239 b 11 276 24 239 11 256 b 17 300 11 285 13 293 l 365 988 b 408 1015 375 1007 392 1015 b 453 978 426 1015 453 1000 b 449 960 453 972 451 967 l 128 326 l 400 326 l 400 594 b 446 629 400 618 422 629 b 492 594 468 629 492 618 l 492 326 l 568 326 b 603 283 592 326 603 304 b 568 239 603 261 589 239 l 492 239 l 492 36 b 446 0 492 13 468 0 b 400 36 422 0 400 13 "},"5":{"ha":658,"x_min":0,"x_max":0,"o":"m 328 597 b 615 313 490 597 615 521 l 615 286 b 328 -8 615 72 489 -8 b 39 228 143 -8 39 101 b 83 274 39 261 57 274 b 131 235 117 274 131 258 b 326 76 131 133 217 76 b 524 286 450 76 524 143 l 524 313 b 328 518 524 451 450 518 l 135 518 b 88 553 96 518 88 533 b 89 581 88 558 89 575 l 117 981 b 146 1015 119 1001 128 1015 l 535 1015 b 565 974 556 1015 565 994 b 535 931 565 951 556 931 l 199 931 l 176 597 "},"6":{"ha":718,"x_min":0,"x_max":0,"o":"m 382 599 b 658 322 536 599 658 533 l 658 289 b 369 -8 658 72 532 -8 b 81 289 207 -8 81 72 l 81 719 b 372 1015 81 935 207 1015 b 658 778 558 1015 658 899 b 615 736 658 747 642 736 b 567 774 590 736 567 746 b 369 931 567 869 478 931 b 172 719 246 931 172 864 l 172 507 b 382 599 219 571 296 599 m 172 285 b 369 74 172 140 246 74 b 567 285 493 74 567 140 l 567 318 b 369 519 567 464 493 519 b 172 331 250 519 172 468 "},"7":{"ha":638,"x_min":0,"x_max":0,"o":"m 615 861 b 601 821 615 850 610 833 l 189 15 b 158 -3 183 4 172 -3 b 103 42 131 -3 103 15 b 108 61 103 47 106 54 l 524 856 l 524 931 l 129 931 l 129 771 b 83 736 129 751 107 736 b 38 771 58 736 38 751 l 38 981 b 79 1015 38 997 58 1015 l 572 1015 b 615 981 592 1015 615 997 "},"8":{"ha":697,"x_min":0,"x_max":0,"o":"m 349 1015 b 610 772 499 1015 610 956 b 488 554 610 653 561 585 b 638 294 578 518 638 438 l 638 278 b 349 -8 638 71 511 -8 b 60 278 186 -8 60 71 l 60 294 b 211 554 60 438 121 518 b 88 772 138 585 88 653 b 349 1015 88 956 200 1015 m 546 304 b 349 511 546 447 472 511 b 151 304 226 511 151 447 l 151 285 b 350 72 151 140 226 72 b 546 285 474 72 546 142 m 349 935 b 178 765 242 935 178 886 b 349 593 178 643 242 593 b 521 765 457 593 521 643 b 349 935 521 886 457 935 "},"9":{"ha":718,"x_min":0,"x_max":0,"o":"m 336 408 b 60 686 182 408 60 474 l 60 719 b 347 1015 60 935 185 1015 b 638 719 510 1015 638 935 l 638 289 b 346 -8 638 72 510 -8 b 60 229 158 -8 60 108 b 103 272 60 260 76 272 b 150 233 126 272 150 261 b 347 76 150 138 239 76 b 546 289 472 76 546 143 l 546 501 b 336 408 499 436 422 408 m 546 722 b 347 935 546 868 471 935 b 151 722 224 935 151 868 l 151 689 b 349 488 151 543 224 488 b 546 676 468 488 546 539 "},"A":{"ha":750,"x_min":0,"x_max":0,"o":"m 82 0 b 29 39 58 0 29 15 b 31 49 29 42 29 46 l 321 992 b 375 1024 328 1014 351 1024 b 431 992 400 1024 424 1013 l 719 49 b 721 40 719 46 721 43 b 665 0 721 18 690 0 b 631 24 650 0 636 7 l 567 238 l 182 238 l 118 24 b 82 0 114 7 99 0 m 543 317 l 375 876 l 206 317 "},"Æ":{"ha":993,"x_min":0,"x_max":0,"o":"m 600 549 l 804 549 b 839 507 826 549 839 529 b 804 469 839 489 829 469 l 600 469 l 600 85 l 926 85 b 960 42 947 85 960 64 b 926 0 960 22 950 0 l 551 0 b 508 36 531 0 508 13 l 508 469 l 190 469 l 190 43 b 144 0 190 18 185 0 b 101 43 114 0 101 18 l 101 719 b 388 1015 101 935 228 1015 l 926 1015 b 960 975 950 1015 960 994 b 926 931 960 951 947 931 l 600 931 m 190 549 l 508 549 l 508 931 l 388 931 b 190 719 264 931 190 864 "},"Ǽ":{"ha":993,"x_min":0,"x_max":0,"o":"m 474 1176 b 460 1172 469 1174 464 1172 b 424 1211 440 1172 424 1192 b 439 1236 424 1221 428 1231 l 594 1321 b 606 1325 597 1324 603 1325 b 639 1286 626 1325 639 1304 b 622 1256 639 1274 633 1261 m 600 549 l 804 549 b 839 507 826 549 839 529 b 804 469 839 489 829 469 l 600 469 l 600 85 l 926 85 b 960 42 947 85 960 64 b 926 0 960 22 950 0 l 551 0 b 508 36 531 0 508 13 l 508 469 l 190 469 l 190 43 b 144 0 190 18 185 0 b 101 43 114 0 101 18 l 101 719 b 388 1015 101 935 228 1015 l 926 1015 b 960 975 950 1015 960 994 b 926 931 960 951 947 931 l 600 931 m 190 549 l 508 549 l 508 931 l 388 931 b 190 719 264 931 190 864 "},"Á":{"ha":750,"x_min":0,"x_max":0,"o":"m 82 0 b 29 39 58 0 29 15 b 31 49 29 42 29 46 l 321 992 b 375 1024 328 1014 351 1024 b 431 992 400 1024 424 1013 l 719 49 b 721 40 719 46 721 43 b 665 0 721 18 690 0 b 631 24 650 0 636 7 l 567 238 l 182 238 l 118 24 b 82 0 114 7 99 0 m 543 317 l 375 876 l 206 317 m 331 1178 b 317 1174 326 1175 321 1174 b 281 1213 297 1174 281 1193 b 296 1238 281 1222 285 1232 l 451 1322 b 463 1326 454 1325 460 1326 b 496 1288 483 1326 496 1306 b 479 1257 496 1275 490 1263 "},"Ă":{"ha":750,"x_min":0,"x_max":0,"o":"m 82 0 b 29 39 58 0 29 15 b 31 49 29 42 29 46 l 321 992 b 375 1024 328 1014 351 1024 b 431 992 400 1024 424 1013 l 719 49 b 721 40 719 46 721 43 b 665 0 721 18 690 0 b 631 24 650 0 636 7 l 567 238 l 182 238 l 118 24 b 82 0 114 7 99 0 m 543 317 l 375 876 l 206 317 m 536 1344 b 375 1182 536 1257 458 1182 b 213 1344 289 1182 213 1257 l 274 1344 b 375 1232 274 1281 321 1232 b 475 1344 428 1232 475 1281 "},"Â":{"ha":750,"x_min":0,"x_max":0,"o":"m 82 0 b 29 39 58 0 29 15 b 31 49 29 42 29 46 l 321 992 b 375 1024 328 1014 351 1024 b 431 992 400 1024 424 1013 l 719 49 b 721 40 719 46 721 43 b 665 0 721 18 690 0 b 631 24 650 0 636 7 l 567 238 l 182 238 l 118 24 b 82 0 114 7 99 0 m 543 317 l 375 876 l 206 317 m 229 1179 b 217 1175 225 1178 221 1175 b 188 1211 201 1175 188 1192 b 206 1242 188 1222 193 1235 l 350 1319 b 374 1326 357 1324 365 1326 b 397 1319 382 1326 390 1324 l 542 1242 b 560 1210 554 1236 560 1222 b 532 1176 560 1192 547 1176 b 518 1181 528 1176 522 1179 l 374 1257 "},"Ä":{"ha":750,"x_min":0,"x_max":0,"o":"m 82 0 b 29 39 58 0 29 15 b 31 49 29 42 29 46 l 321 992 b 375 1024 328 1014 351 1024 b 431 992 400 1024 424 1013 l 719 49 b 721 40 719 46 721 43 b 665 0 721 18 690 0 b 631 24 650 0 636 7 l 567 238 l 182 238 l 118 24 b 82 0 114 7 99 0 m 543 317 l 375 876 l 206 317 m 290 1278 b 340 1228 318 1278 340 1257 b 290 1176 340 1200 318 1176 b 239 1228 261 1176 239 1200 b 290 1278 239 1257 261 1278 m 461 1278 b 511 1228 490 1278 511 1257 b 461 1176 511 1200 490 1176 b 410 1228 432 1176 410 1200 b 461 1278 410 1257 432 1278 "},"À":{"ha":750,"x_min":0,"x_max":0,"o":"m 82 0 b 29 39 58 0 29 15 b 31 49 29 42 29 46 l 321 992 b 375 1024 328 1014 351 1024 b 431 992 400 1024 424 1013 l 719 49 b 721 40 719 46 721 43 b 665 0 721 18 690 0 b 631 24 650 0 636 7 l 567 238 l 182 238 l 118 24 b 82 0 114 7 99 0 m 543 317 l 375 876 l 206 317 m 279 1257 b 261 1288 267 1263 261 1275 b 294 1326 261 1306 275 1326 b 307 1322 297 1326 303 1325 l 461 1238 b 476 1213 472 1232 476 1222 b 440 1174 476 1193 460 1174 b 426 1178 436 1174 431 1175 "},"Ā":{"ha":750,"x_min":0,"x_max":0,"o":"m 82 0 b 29 39 58 0 29 15 b 31 49 29 42 29 46 l 321 992 b 375 1024 328 1014 351 1024 b 431 992 400 1024 424 1013 l 719 49 b 721 40 719 46 721 43 b 665 0 721 18 690 0 b 631 24 650 0 636 7 l 567 238 l 182 238 l 118 24 b 82 0 114 7 99 0 m 543 317 l 375 876 l 206 317 m 190 1269 b 225 1306 190 1290 204 1306 l 524 1306 b 558 1269 540 1306 558 1290 b 524 1235 558 1250 540 1235 l 225 1235 b 190 1269 204 1235 190 1250 "},"Ą":{"ha":750,"x_min":0,"x_max":0,"o":"m 674 -231 b 701 -256 690 -231 701 -240 b 667 -279 701 -271 693 -279 b 532 -175 599 -279 532 -250 b 632 18 532 -101 572 -36 b 631 24 632 19 631 22 l 567 238 l 182 238 l 118 24 b 82 0 114 7 99 0 b 29 39 58 0 29 15 b 31 49 29 42 29 46 l 321 992 b 375 1024 328 1014 351 1024 b 431 992 400 1024 424 1013 l 719 49 b 721 40 719 46 721 43 b 689 4 721 25 706 11 b 588 -168 632 -44 588 -101 b 674 -231 588 -212 619 -231 m 543 317 l 375 876 l 206 317 "},"Å":{"ha":750,"x_min":0,"x_max":0,"o":"m 82 0 b 29 39 58 0 29 15 b 31 49 29 42 29 46 l 321 992 b 375 1024 328 1014 351 1024 b 431 992 400 1024 424 1013 l 719 49 b 721 40 719 46 721 43 b 665 0 721 18 690 0 b 631 24 650 0 636 7 l 567 238 l 182 238 l 118 24 b 82 0 114 7 99 0 m 543 317 l 375 876 l 206 317 m 374 1419 b 503 1290 442 1419 503 1358 b 374 1157 503 1221 442 1157 b 246 1290 304 1157 246 1221 b 374 1419 246 1357 301 1419 m 456 1290 b 375 1371 456 1329 418 1371 b 292 1290 328 1371 292 1329 b 375 1203 292 1246 329 1203 b 456 1290 418 1203 456 1246 "},"Ã":{"ha":750,"x_min":0,"x_max":0,"o":"m 82 0 b 29 39 58 0 29 15 b 31 49 29 42 29 46 l 321 992 b 375 1024 328 1014 351 1024 b 431 992 400 1024 424 1013 l 719 49 b 721 40 719 46 721 43 b 665 0 721 18 690 0 b 631 24 650 0 636 7 l 567 238 l 182 238 l 118 24 b 82 0 114 7 99 0 m 543 317 l 375 876 l 206 317 m 289 1247 b 186 1203 229 1247 210 1203 b 160 1238 168 1203 160 1222 b 282 1317 160 1289 238 1317 b 465 1269 354 1317 393 1269 b 563 1310 528 1269 538 1310 b 590 1278 581 1310 590 1290 b 474 1199 590 1221 514 1199 b 289 1247 399 1199 364 1247 "},"B":{"ha":747,"x_min":0,"x_max":0,"o":"m 106 981 b 147 1015 106 1004 126 1015 l 375 1015 b 658 779 531 1015 658 975 b 540 550 658 663 611 581 b 683 311 625 515 683 453 l 683 286 b 408 0 683 75 563 0 l 147 0 b 106 35 121 0 106 17 m 397 85 b 592 290 518 85 592 147 l 592 314 b 397 511 592 458 518 511 l 196 511 l 196 85 m 196 590 l 378 590 b 567 769 506 590 567 638 b 372 931 567 897 486 931 l 196 931 "},"C":{"ha":726,"x_min":0,"x_max":0,"o":"m 581 763 b 386 931 578 822 551 931 b 186 719 257 931 186 864 l 186 289 b 392 76 186 143 257 76 b 581 247 557 76 572 181 b 626 283 583 269 597 283 b 672 226 658 283 672 272 b 382 -8 672 100 565 -8 b 94 289 225 -8 94 72 l 94 719 b 386 1015 94 935 228 1015 b 672 783 568 1015 672 908 b 626 728 672 738 658 728 b 581 763 594 728 582 743 "},"\r":{"ha":0,"x_min":0,"x_max":0,"o":""},"Ć":{"ha":726,"x_min":0,"x_max":0,"o":"m 335 1178 b 321 1174 331 1175 325 1174 b 285 1213 301 1174 285 1193 b 300 1238 285 1222 289 1232 l 456 1322 b 467 1326 458 1325 464 1326 b 500 1288 488 1326 500 1306 b 483 1257 500 1275 494 1263 m 581 763 b 386 931 578 822 551 931 b 186 719 257 931 186 864 l 186 289 b 392 76 186 143 257 76 b 581 247 557 76 572 181 b 626 283 583 269 597 283 b 672 226 658 283 672 272 b 382 -8 672 100 565 -8 b 94 289 225 -8 94 72 l 94 719 b 386 1015 94 935 228 1015 b 672 783 568 1015 672 908 b 626 728 672 738 658 728 b 581 763 594 728 582 743 "},"Č":{"ha":726,"x_min":0,"x_max":0,"o":"m 382 1232 l 519 1360 b 540 1368 526 1367 533 1368 b 567 1338 556 1368 567 1353 b 550 1306 567 1326 561 1315 l 410 1181 b 382 1167 400 1172 390 1167 b 354 1181 372 1167 363 1172 l 214 1306 b 196 1338 201 1315 196 1326 b 222 1368 196 1353 207 1368 b 243 1360 229 1368 236 1367 m 581 763 b 386 931 578 822 551 931 b 186 719 257 931 186 864 l 186 289 b 392 76 186 143 257 76 b 581 247 557 76 572 181 b 626 283 583 269 597 283 b 672 226 658 283 672 272 b 382 -8 672 100 565 -8 b 94 289 225 -8 94 72 l 94 719 b 386 1015 94 935 228 1015 b 672 783 568 1015 672 908 b 626 728 672 738 658 728 b 581 763 594 728 582 743 "},"Ç":{"ha":726,"x_min":0,"x_max":0,"o":"m 581 763 b 386 931 578 822 551 931 b 186 719 257 931 186 864 l 186 289 b 392 76 186 143 257 76 b 581 247 557 76 572 181 b 626 283 583 269 597 283 b 672 226 658 283 672 272 b 432 -4 672 111 585 13 l 411 -85 b 544 -185 506 -87 544 -135 b 421 -292 544 -235 506 -292 b 313 -256 383 -292 313 -281 b 335 -222 313 -247 321 -222 b 413 -242 346 -222 367 -242 b 486 -187 465 -242 486 -217 b 399 -129 486 -150 453 -133 l 346 -125 l 376 -8 b 94 289 222 -6 94 75 l 94 719 b 386 1015 94 935 228 1015 b 672 783 568 1015 672 908 b 626 728 672 738 658 728 b 581 763 594 728 582 743 "},"Ĉ":{"ha":726,"x_min":0,"x_max":0,"o":"m 239 1179 b 226 1175 235 1178 231 1175 b 197 1211 211 1175 197 1192 b 215 1242 197 1222 203 1235 l 360 1319 b 383 1326 367 1324 375 1326 b 407 1319 392 1326 400 1324 l 551 1242 b 569 1210 564 1236 569 1222 b 542 1176 569 1192 557 1176 b 528 1181 538 1176 532 1179 l 383 1257 m 581 763 b 386 931 578 822 551 931 b 186 719 257 931 186 864 l 186 289 b 392 76 186 143 257 76 b 581 247 557 76 572 181 b 626 283 583 269 597 283 b 672 226 658 283 672 272 b 382 -8 672 100 565 -8 b 94 289 225 -8 94 72 l 94 719 b 386 1015 94 935 228 1015 b 672 783 568 1015 672 908 b 626 728 672 738 658 728 b 581 763 594 728 582 743 "},"Ċ":{"ha":726,"x_min":0,"x_max":0,"o":"m 581 763 b 386 931 578 822 551 931 b 186 719 257 931 186 864 l 186 289 b 392 76 186 143 257 76 b 581 247 557 76 572 181 b 626 283 583 269 597 283 b 672 226 658 283 672 272 b 382 -8 672 100 565 -8 b 94 289 225 -8 94 72 l 94 719 b 386 1015 94 935 228 1015 b 672 783 568 1015 672 908 b 626 728 672 738 658 728 b 581 763 594 728 582 743 m 385 1278 b 435 1228 413 1278 435 1257 b 385 1176 435 1200 413 1176 b 333 1228 356 1176 333 1200 b 385 1278 333 1257 356 1278 "},"D":{"ha":778,"x_min":0,"x_max":0,"o":"m 393 1015 b 683 719 556 1015 683 935 l 683 297 b 393 0 683 81 556 0 l 147 0 b 106 35 122 0 106 17 l 106 982 b 147 1015 106 1000 122 1015 m 197 931 l 197 85 l 393 85 b 592 297 517 85 592 153 l 592 719 b 393 931 592 864 517 931 "},"Ď":{"ha":778,"x_min":0,"x_max":0,"o":"m 385 1232 l 522 1360 b 543 1368 529 1367 536 1368 b 569 1338 558 1368 569 1353 b 553 1306 569 1326 564 1315 l 413 1181 b 385 1167 403 1172 393 1167 b 357 1181 375 1167 365 1172 l 217 1306 b 199 1338 204 1315 199 1326 b 225 1368 199 1353 210 1368 b 246 1360 232 1368 239 1367 m 393 1015 b 683 719 556 1015 683 935 l 683 297 b 393 0 683 81 556 0 l 147 0 b 106 35 122 0 106 17 l 106 982 b 147 1015 106 1000 122 1015 m 197 931 l 197 85 l 393 85 b 592 297 517 85 592 153 l 592 719 b 393 931 592 864 517 931 "},"Đ":{"ha":790,"x_min":0,"x_max":0,"o":"m 406 1015 b 696 719 568 1015 696 935 l 696 297 b 406 0 696 81 568 0 l 160 0 b 118 35 135 0 118 17 l 118 496 l 31 496 b -1 533 11 496 -1 513 b 31 571 -1 553 11 571 l 118 571 l 118 982 b 160 1015 118 1000 135 1015 m 210 931 l 210 571 l 367 571 b 399 533 385 571 399 553 b 367 496 399 513 385 496 l 210 496 l 210 85 l 406 85 b 604 297 529 85 604 153 l 604 719 b 406 931 604 864 529 931 "},"∆":{"ha":715,"x_min":0,"x_max":0,"o":"m 678 54 b 682 35 681 46 682 42 b 640 0 682 13 667 0 l 71 0 b 31 35 44 0 31 13 b 33 54 31 42 31 46 l 301 989 b 357 1024 308 1011 329 1024 b 413 989 385 1024 406 1011 m 575 85 l 357 881 l 136 85 "},"E":{"ha":706,"x_min":0,"x_max":0,"o":"m 197 549 l 415 549 b 450 507 438 549 450 529 b 415 469 450 489 440 469 l 197 469 l 197 85 l 642 85 b 676 42 664 85 676 64 b 642 0 676 22 667 0 l 147 0 b 106 36 126 0 106 13 l 106 981 b 147 1015 106 1004 126 1015 l 642 1015 b 676 975 667 1015 676 994 b 642 931 676 951 664 931 l 197 931 "},"É":{"ha":706,"x_min":0,"x_max":0,"o":"m 342 1178 b 328 1174 338 1175 332 1174 b 292 1213 308 1174 292 1193 b 307 1238 292 1222 296 1232 l 463 1322 b 474 1326 465 1325 471 1326 b 507 1288 494 1326 507 1306 b 490 1257 507 1275 501 1263 m 197 549 l 415 549 b 450 507 438 549 450 529 b 415 469 450 489 440 469 l 197 469 l 197 85 l 642 85 b 676 42 664 85 676 64 b 642 0 676 22 667 0 l 147 0 b 106 36 126 0 106 13 l 106 981 b 147 1015 106 1004 126 1015 l 642 1015 b 676 975 667 1015 676 994 b 642 931 676 951 664 931 l 197 931 "},"Ĕ":{"ha":706,"x_min":0,"x_max":0,"o":"m 197 549 l 415 549 b 450 507 438 549 450 529 b 415 469 450 489 440 469 l 197 469 l 197 85 l 642 85 b 676 42 664 85 676 64 b 642 0 676 22 667 0 l 147 0 b 106 36 126 0 106 13 l 106 981 b 147 1015 106 1004 126 1015 l 642 1015 b 676 975 667 1015 676 994 b 642 931 676 951 664 931 l 197 931 m 551 1344 b 390 1182 551 1257 474 1182 b 228 1344 304 1182 228 1257 l 289 1344 b 390 1232 289 1281 336 1232 b 490 1344 443 1232 490 1281 "},"Ě":{"ha":706,"x_min":0,"x_max":0,"o":"m 389 1232 l 526 1360 b 547 1368 533 1367 540 1368 b 574 1338 563 1368 574 1353 b 557 1306 574 1326 568 1315 l 417 1181 b 389 1167 407 1172 397 1167 b 361 1181 379 1167 369 1172 l 221 1306 b 203 1338 208 1315 203 1326 b 229 1368 203 1353 214 1368 b 250 1360 236 1368 243 1367 m 197 549 l 415 549 b 450 507 438 549 450 529 b 415 469 450 489 440 469 l 197 469 l 197 85 l 642 85 b 676 42 664 85 676 64 b 642 0 676 22 667 0 l 147 0 b 106 36 126 0 106 13 l 106 981 b 147 1015 106 1004 126 1015 l 642 1015 b 676 975 667 1015 676 994 b 642 931 676 951 664 931 l 197 931 "},"Ê":{"ha":706,"x_min":0,"x_max":0,"o":"m 249 1179 b 236 1175 244 1178 240 1175 b 207 1211 221 1175 207 1192 b 225 1242 207 1222 213 1235 l 369 1319 b 393 1326 376 1324 385 1326 b 417 1319 401 1326 410 1324 l 561 1242 b 579 1210 574 1236 579 1222 b 551 1176 579 1192 567 1176 b 538 1181 547 1176 542 1179 l 393 1257 m 197 549 l 415 549 b 450 507 438 549 450 529 b 415 469 450 489 440 469 l 197 469 l 197 85 l 642 85 b 676 42 664 85 676 64 b 642 0 676 22 667 0 l 147 0 b 106 36 126 0 106 13 l 106 981 b 147 1015 106 1004 126 1015 l 642 1015 b 676 975 667 1015 676 994 b 642 931 676 951 664 931 l 197 931 "},"Ë":{"ha":706,"x_min":0,"x_max":0,"o":"m 307 1278 b 357 1228 335 1278 357 1257 b 307 1176 357 1200 335 1176 b 256 1228 278 1176 256 1200 b 307 1278 256 1257 278 1278 m 478 1278 b 528 1228 507 1278 528 1257 b 478 1176 528 1200 507 1176 b 426 1228 449 1176 426 1200 b 478 1278 426 1257 449 1278 m 197 549 l 415 549 b 450 507 438 549 450 529 b 415 469 450 489 440 469 l 197 469 l 197 85 l 642 85 b 676 42 664 85 676 64 b 642 0 676 22 667 0 l 147 0 b 106 36 126 0 106 13 l 106 981 b 147 1015 106 1004 126 1015 l 642 1015 b 676 975 667 1015 676 994 b 642 931 676 951 664 931 l 197 931 "},"Ė":{"ha":706,"x_min":0,"x_max":0,"o":"m 197 549 l 415 549 b 450 507 438 549 450 529 b 415 469 450 489 440 469 l 197 469 l 197 85 l 642 85 b 676 42 664 85 676 64 b 642 0 676 22 667 0 l 147 0 b 106 36 126 0 106 13 l 106 981 b 147 1015 106 1004 126 1015 l 642 1015 b 676 975 667 1015 676 994 b 642 931 676 951 664 931 l 197 931 m 396 1278 b 446 1228 424 1278 446 1257 b 396 1176 446 1200 424 1176 b 344 1228 367 1176 344 1200 b 396 1278 344 1257 367 1278 "},"È":{"ha":706,"x_min":0,"x_max":0,"o":"m 197 549 l 415 549 b 450 507 438 549 450 529 b 415 469 450 489 440 469 l 197 469 l 197 85 l 642 85 b 676 42 664 85 676 64 b 642 0 676 22 667 0 l 147 0 b 106 36 126 0 106 13 l 106 981 b 147 1015 106 1004 126 1015 l 642 1015 b 676 975 667 1015 676 994 b 642 931 676 951 664 931 l 197 931 m 299 1257 b 281 1288 286 1263 281 1275 b 314 1326 281 1306 294 1326 b 326 1322 317 1326 322 1325 l 481 1238 b 496 1213 492 1232 496 1222 b 460 1174 496 1193 479 1174 b 446 1178 456 1174 450 1175 "},"Ē":{"ha":706,"x_min":0,"x_max":0,"o":"m 197 549 l 415 549 b 450 507 438 549 450 529 b 415 469 450 489 440 469 l 197 469 l 197 85 l 642 85 b 676 42 664 85 676 64 b 642 0 676 22 667 0 l 147 0 b 106 36 126 0 106 13 l 106 981 b 147 1015 106 1004 126 1015 l 642 1015 b 676 975 667 1015 676 994 b 642 931 676 951 664 931 l 197 931 m 208 1269 b 243 1306 208 1290 222 1306 l 542 1306 b 576 1269 558 1306 576 1290 b 542 1235 576 1250 558 1235 l 243 1235 b 208 1269 222 1235 208 1250 "},"Ŋ":{"ha":796,"x_min":0,"x_max":0,"o":"m 500 -240 b 600 -60 588 -240 600 -164 l 600 3 b 583 53 600 15 596 29 l 197 804 l 197 36 b 151 0 197 13 174 0 b 106 36 128 0 106 13 l 106 981 b 151 1015 106 1006 128 1015 b 224 951 185 1015 206 986 l 599 213 l 599 982 b 644 1015 599 1006 621 1015 b 690 982 667 1015 690 1006 l 690 -60 b 508 -322 690 -214 639 -322 b 461 -282 475 -322 461 -301 b 500 -240 461 -257 478 -240 "},"Ę":{"ha":706,"x_min":0,"x_max":0,"o":"m 197 549 l 415 549 b 450 507 438 549 450 529 b 415 469 450 489 440 469 l 197 469 l 197 85 l 642 85 b 676 42 664 85 676 64 b 656 3 676 26 671 10 b 557 -168 600 -46 557 -103 b 643 -231 557 -212 589 -231 b 671 -256 660 -231 671 -240 b 636 -279 671 -271 663 -279 b 501 -175 568 -279 501 -250 b 582 0 501 -110 533 -50 l 147 0 b 106 36 126 0 106 13 l 106 981 b 147 1015 106 1004 126 1015 l 642 1015 b 676 975 667 1015 676 994 b 642 931 676 951 664 931 l 197 931 "},"Ð":{"ha":790,"x_min":0,"x_max":0,"o":"m 406 1015 b 696 719 568 1015 696 935 l 696 297 b 406 0 696 81 568 0 l 160 0 b 118 35 135 0 118 17 l 118 496 l 31 496 b -1 533 11 496 -1 513 b 31 571 -1 553 11 571 l 118 571 l 118 982 b 160 1015 118 1000 135 1015 m 210 931 l 210 571 l 367 571 b 399 533 385 571 399 553 b 367 496 399 513 385 496 l 210 496 l 210 85 l 406 85 b 604 297 529 85 604 153 l 604 719 b 406 931 604 864 529 931 "},"€":{"ha":808,"x_min":0,"x_max":0,"o":"m 257 282 b 456 76 257 157 321 76 b 651 247 574 76 651 140 b 697 282 653 271 669 282 b 743 236 726 282 743 271 b 453 -8 743 94 629 -8 b 165 282 283 -8 165 83 l 165 350 l 79 350 b 44 386 58 350 44 365 b 79 424 44 407 58 424 l 165 424 l 165 557 l 79 557 b 44 593 58 557 44 572 b 79 631 44 614 58 631 l 165 631 l 165 719 b 453 1015 165 935 292 1015 b 743 775 629 1015 743 914 b 697 729 743 740 726 729 b 651 763 668 729 651 740 b 454 931 651 865 575 931 b 257 719 331 931 257 864 l 257 631 l 492 631 b 528 593 510 631 528 614 b 492 557 528 572 510 557 l 257 557 l 257 424 l 492 424 b 528 386 510 424 528 407 b 492 350 528 365 510 350 l 257 350 "},"F":{"ha":686,"x_min":0,"x_max":0,"o":"m 106 981 b 147 1015 106 1004 126 1015 l 639 1015 b 674 975 663 1015 674 994 b 639 931 674 951 661 931 l 197 931 l 197 549 l 417 549 b 450 507 438 549 450 529 b 417 469 450 489 440 469 l 197 469 l 197 35 b 151 0 197 11 174 0 b 106 35 128 0 106 11 "},"G":{"ha":751,"x_min":0,"x_max":0,"o":"m 581 763 b 383 931 568 869 504 931 b 186 719 260 931 186 864 l 186 289 b 383 76 186 144 260 76 b 581 289 507 76 581 144 l 581 454 l 394 454 b 361 494 374 454 361 474 b 394 533 361 514 374 533 l 639 533 b 672 497 661 533 672 517 l 672 289 b 383 -8 672 72 546 -8 b 94 289 221 -8 94 72 l 94 719 b 382 1015 94 935 221 1015 b 672 775 560 1015 672 914 b 626 728 672 739 654 728 b 581 763 603 728 582 738 "},"Ğ":{"ha":751,"x_min":0,"x_max":0,"o":"m 581 763 b 383 931 568 869 504 931 b 186 719 260 931 186 864 l 186 289 b 383 76 186 144 260 76 b 581 289 507 76 581 144 l 581 454 l 394 454 b 361 494 374 454 361 474 b 394 533 361 514 374 533 l 639 533 b 672 497 661 533 672 517 l 672 289 b 383 -8 672 72 546 -8 b 94 289 221 -8 94 72 l 94 719 b 382 1015 94 935 221 1015 b 672 775 560 1015 672 914 b 626 728 672 739 654 728 b 581 763 603 728 582 738 m 544 1344 b 383 1182 544 1257 467 1182 b 221 1344 297 1182 221 1257 l 282 1344 b 383 1232 282 1281 329 1232 b 483 1344 436 1232 483 1281 "},"Ĝ":{"ha":751,"x_min":0,"x_max":0,"o":"m 233 1179 b 221 1175 229 1178 225 1175 b 192 1211 206 1175 192 1192 b 210 1242 192 1222 197 1235 l 354 1319 b 378 1326 361 1324 369 1326 b 401 1319 386 1326 394 1324 l 546 1242 b 564 1210 558 1236 564 1222 b 536 1176 564 1192 551 1176 b 522 1181 532 1176 526 1179 l 378 1257 m 581 763 b 383 931 568 869 504 931 b 186 719 260 931 186 864 l 186 289 b 383 76 186 144 260 76 b 581 289 507 76 581 144 l 581 454 l 394 454 b 361 494 374 454 361 474 b 394 533 361 514 374 533 l 639 533 b 672 497 661 533 672 517 l 672 289 b 383 -8 672 72 546 -8 b 94 289 221 -8 94 72 l 94 719 b 382 1015 94 935 221 1015 b 672 775 560 1015 672 914 b 626 728 672 739 654 728 b 581 763 603 728 582 738 "},"Ģ":{"ha":751,"x_min":0,"x_max":0,"o":"m 324 -215 b 308 -219 318 -218 314 -219 b 274 -181 289 -219 274 -200 b 289 -156 274 -171 278 -161 l 443 -69 b 456 -67 447 -68 451 -67 b 489 -106 475 -67 489 -87 b 471 -136 489 -118 483 -129 m 581 763 b 383 931 568 869 504 931 b 186 719 260 931 186 864 l 186 289 b 383 76 186 144 260 76 b 581 289 507 76 581 144 l 581 454 l 394 454 b 361 494 374 454 361 474 b 394 533 361 514 374 533 l 639 533 b 672 497 661 533 672 517 l 672 289 b 383 -8 672 72 546 -8 b 94 289 221 -8 94 72 l 94 719 b 382 1015 94 935 221 1015 b 672 775 560 1015 672 914 b 626 728 672 739 654 728 b 581 763 603 728 582 738 "},"Ġ":{"ha":751,"x_min":0,"x_max":0,"o":"m 581 763 b 383 931 568 869 504 931 b 186 719 260 931 186 864 l 186 289 b 383 76 186 144 260 76 b 581 289 507 76 581 144 l 581 454 l 394 454 b 361 494 374 454 361 474 b 394 533 361 514 374 533 l 639 533 b 672 497 661 533 672 517 l 672 289 b 383 -8 672 72 546 -8 b 94 289 221 -8 94 72 l 94 719 b 382 1015 94 935 221 1015 b 672 775 560 1015 672 914 b 626 728 672 739 654 728 b 581 763 603 728 582 738 m 383 1278 b 433 1228 411 1278 433 1257 b 383 1176 433 1200 411 1176 b 332 1228 354 1176 332 1200 b 383 1278 332 1257 354 1278 "},"H":{"ha":796,"x_min":0,"x_max":0,"o":"m 599 488 l 197 488 l 197 36 b 151 0 197 13 174 0 b 106 36 128 0 106 13 l 106 982 b 151 1015 106 1006 128 1015 b 197 982 174 1015 197 1006 l 197 567 l 599 567 l 599 982 b 644 1015 599 1006 621 1015 b 690 982 667 1015 690 1006 l 690 36 b 644 0 690 13 667 0 b 599 36 621 0 599 13 "},"Ħ":{"ha":796,"x_min":0,"x_max":0,"o":"m 599 488 l 197 488 l 197 36 b 151 0 197 13 174 0 b 106 36 128 0 106 13 l 106 750 l 57 750 b 26 785 38 750 26 767 b 57 821 26 804 38 821 l 106 821 l 106 982 b 151 1015 106 1006 128 1015 b 197 982 174 1015 197 1006 l 197 821 l 599 821 l 599 982 b 644 1015 599 1006 621 1015 b 690 982 667 1015 690 1006 l 690 821 l 736 821 b 768 785 754 821 768 804 b 736 750 768 765 754 750 l 690 750 l 690 36 b 644 0 690 13 667 0 b 599 36 621 0 599 13 m 599 567 l 599 750 l 197 750 l 197 567 "},"Ĥ":{"ha":796,"x_min":0,"x_max":0,"o":"m 254 1179 b 242 1175 250 1178 246 1175 b 213 1211 226 1175 213 1192 b 231 1242 213 1222 218 1235 l 375 1319 b 399 1326 382 1324 390 1326 b 422 1319 407 1326 415 1324 l 567 1242 b 585 1210 579 1236 585 1222 b 557 1176 585 1192 572 1176 b 543 1181 553 1176 547 1179 l 399 1257 m 599 488 l 197 488 l 197 36 b 151 0 197 13 174 0 b 106 36 128 0 106 13 l 106 982 b 151 1015 106 1006 128 1015 b 197 982 174 1015 197 1006 l 197 567 l 599 567 l 599 982 b 644 1015 599 1006 621 1015 b 690 982 667 1015 690 1006 l 690 36 b 644 0 690 13 667 0 b 599 36 621 0 599 13 "},"I":{"ha":303,"x_min":0,"x_max":0,"o":"m 106 982 b 151 1015 106 1006 128 1015 b 197 982 174 1015 197 1006 l 197 36 b 151 0 197 13 174 0 b 106 36 128 0 106 13 "},"Ĳ":{"ha":1007,"x_min":0,"x_max":0,"o":"m 106 982 b 151 1015 106 1006 128 1015 b 197 982 174 1015 197 1006 l 197 36 b 151 0 197 13 174 0 b 106 36 128 0 106 13 m 618 931 b 583 975 596 931 583 951 b 618 1015 583 994 594 1015 l 863 1015 b 906 981 885 1015 906 1004 l 906 289 b 619 -8 906 72 779 -8 b 328 236 442 -8 328 94 b 372 283 328 272 344 283 b 419 247 396 283 419 274 b 617 76 419 142 497 76 b 814 289 740 76 814 144 l 814 931 "},"Í":{"ha":303,"x_min":0,"x_max":0,"o":"m 106 982 b 151 1015 106 1006 128 1015 b 197 982 174 1015 197 1006 l 197 36 b 151 0 197 13 174 0 b 106 36 128 0 106 13 m 96 1178 b 82 1174 92 1175 86 1174 b 46 1213 63 1174 46 1193 b 61 1238 46 1222 50 1232 l 217 1322 b 228 1326 219 1325 225 1326 b 261 1288 249 1326 261 1306 b 244 1257 261 1275 256 1263 "},"Ĭ":{"ha":303,"x_min":0,"x_max":0,"o":"m 106 982 b 151 1015 106 1006 128 1015 b 197 982 174 1015 197 1006 l 197 36 b 151 0 197 13 174 0 b 106 36 128 0 106 13 m 313 1344 b 151 1182 313 1257 235 1182 b -11 1344 65 1182 -11 1257 l 50 1344 b 151 1232 50 1281 97 1232 b 251 1344 204 1232 251 1281 "},"Î":{"ha":303,"x_min":0,"x_max":0,"o":"m 106 982 b 151 1015 106 1006 128 1015 b 197 982 174 1015 197 1006 l 197 36 b 151 0 197 13 174 0 b 106 36 128 0 106 13 m 7 1179 b -6 1175 3 1178 -1 1175 b -35 1211 -21 1175 -35 1192 b -17 1242 -35 1222 -29 1235 l 128 1319 b 151 1326 135 1324 143 1326 b 175 1319 160 1326 168 1324 l 319 1242 b 338 1210 332 1236 338 1222 b 310 1176 338 1192 325 1176 b 296 1181 306 1176 300 1179 l 151 1257 "},"Ï":{"ha":303,"x_min":0,"x_max":0,"o":"m 106 982 b 151 1015 106 1006 128 1015 b 197 982 174 1015 197 1006 l 197 36 b 151 0 197 13 174 0 b 106 36 128 0 106 13 m 67 1278 b 117 1228 94 1278 117 1257 b 67 1176 117 1200 94 1176 b 15 1228 38 1176 15 1200 b 67 1278 15 1257 38 1278 m 238 1278 b 288 1228 267 1278 288 1257 b 238 1176 288 1200 267 1176 b 186 1228 208 1176 186 1200 b 238 1278 186 1257 208 1278 "},"İ":{"ha":303,"x_min":0,"x_max":0,"o":"m 106 982 b 151 1015 106 1006 128 1015 b 197 982 174 1015 197 1006 l 197 36 b 151 0 197 13 174 0 b 106 36 128 0 106 13 m 151 1278 b 201 1228 179 1278 201 1257 b 151 1176 201 1200 179 1176 b 100 1228 122 1176 100 1200 b 151 1278 100 1257 122 1278 "},"Ì":{"ha":303,"x_min":0,"x_max":0,"o":"m 106 982 b 151 1015 106 1006 128 1015 b 197 982 174 1015 197 1006 l 197 36 b 151 0 197 13 174 0 b 106 36 128 0 106 13 m 58 1257 b 40 1288 46 1263 40 1275 b 74 1326 40 1306 54 1326 b 86 1322 76 1326 82 1325 l 240 1238 b 256 1213 251 1232 256 1222 b 219 1174 256 1193 239 1174 b 206 1178 215 1174 210 1175 "},"Ī":{"ha":303,"x_min":0,"x_max":0,"o":"m 106 982 b 151 1015 106 1006 128 1015 b 197 982 174 1015 197 1006 l 197 36 b 151 0 197 13 174 0 b 106 36 128 0 106 13 m -33 1269 b 1 1306 -33 1290 -19 1306 l 300 1306 b 335 1269 317 1306 335 1290 b 300 1235 335 1250 317 1235 l 1 1235 b -33 1269 -19 1235 -33 1250 "},"Į":{"ha":303,"x_min":0,"x_max":0,"o":"m 165 -225 b 193 -250 182 -225 193 -235 b 158 -274 193 -265 185 -274 b 24 -169 90 -274 24 -244 b 113 14 24 -100 58 -37 b 106 36 108 19 106 28 l 106 982 b 151 1015 106 1006 128 1015 b 197 982 174 1015 197 1006 l 197 36 b 174 4 197 21 188 10 b 79 -162 121 -43 79 -99 b 165 -225 79 -207 111 -225 "},"Ĩ":{"ha":303,"x_min":0,"x_max":0,"o":"m 106 982 b 151 1015 106 1006 128 1015 b 197 982 174 1015 197 1006 l 197 36 b 151 0 197 13 174 0 b 106 36 128 0 106 13 m 65 1247 b -37 1203 6 1247 -14 1203 b -64 1238 -56 1203 -64 1222 b 58 1317 -64 1289 14 1317 b 242 1269 131 1317 169 1269 b 339 1310 304 1269 314 1310 b 367 1278 357 1310 367 1290 b 250 1199 367 1221 290 1199 b 65 1247 175 1199 140 1247 "},"J":{"ha":711,"x_min":0,"x_max":0,"o":"m 322 931 b 288 975 300 931 288 951 b 322 1015 288 994 299 1015 l 567 1015 b 610 981 589 1015 610 1004 l 610 289 b 324 -8 610 72 483 -8 b 32 236 146 -8 32 94 b 76 283 32 272 49 283 b 124 247 100 283 124 274 b 321 76 124 142 201 76 b 518 289 444 76 518 144 l 518 931 "},"Ĵ":{"ha":711,"x_min":0,"x_max":0,"o":"m 211 1179 b 199 1175 207 1178 203 1175 b 169 1211 183 1175 169 1192 b 188 1242 169 1222 175 1235 l 332 1319 b 356 1326 339 1324 347 1326 b 379 1319 364 1326 372 1324 l 524 1242 b 542 1210 536 1236 542 1222 b 514 1176 542 1192 529 1176 b 500 1181 510 1176 504 1179 l 356 1257 m 322 931 b 288 975 300 931 288 951 b 322 1015 288 994 299 1015 l 567 1015 b 610 981 589 1015 610 1004 l 610 289 b 324 -8 610 72 483 -8 b 32 236 146 -8 32 94 b 76 283 32 272 49 283 b 124 247 100 283 124 274 b 321 76 124 142 201 76 b 518 289 444 76 518 144 l 518 931 "},"K":{"ha":725,"x_min":0,"x_max":0,"o":"m 106 982 b 151 1015 106 1006 128 1015 b 197 982 174 1015 197 1006 l 197 490 l 599 1001 b 628 1015 606 1011 617 1015 b 678 968 650 1015 678 992 b 671 947 678 963 676 954 l 372 576 l 714 63 b 719 44 717 57 719 50 b 667 -3 719 19 693 -3 b 632 18 654 -3 642 4 l 311 500 l 197 356 l 197 36 b 151 0 197 13 174 0 b 106 36 128 0 106 13 "},"Ķ":{"ha":725,"x_min":0,"x_max":0,"o":"m 307 -215 b 292 -219 301 -218 297 -219 b 257 -181 272 -219 257 -200 b 272 -156 257 -171 261 -161 l 426 -69 b 439 -67 431 -68 435 -67 b 472 -106 458 -67 472 -87 b 454 -136 472 -118 467 -129 m 106 982 b 151 1015 106 1006 128 1015 b 197 982 174 1015 197 1006 l 197 490 l 599 1001 b 628 1015 606 1011 617 1015 b 678 968 650 1015 678 992 b 671 947 678 963 676 954 l 372 576 l 714 63 b 719 44 717 57 719 50 b 667 -3 719 19 693 -3 b 632 18 654 -3 642 4 l 311 500 l 197 356 l 197 36 b 151 0 197 13 174 0 b 106 36 128 0 106 13 "},"L":{"ha":643,"x_min":0,"x_max":0,"o":"m 147 0 b 106 36 126 0 106 13 l 106 982 b 151 1015 106 1006 128 1015 b 197 982 174 1015 197 1006 l 197 85 l 593 85 b 624 43 614 85 624 64 b 593 0 624 21 614 0 "},"Ĺ":{"ha":643,"x_min":0,"x_max":0,"o":"m 303 1178 b 289 1174 299 1175 293 1174 b 253 1213 269 1174 253 1193 b 268 1238 253 1222 257 1232 l 424 1322 b 435 1326 426 1325 432 1326 b 468 1288 456 1326 468 1306 b 451 1257 468 1275 463 1263 m 147 0 b 106 36 126 0 106 13 l 106 982 b 151 1015 106 1006 128 1015 b 197 982 174 1015 197 1006 l 197 85 l 593 85 b 624 43 614 85 624 64 b 593 0 624 21 614 0 "},"Ľ":{"ha":643,"x_min":0,"x_max":0,"o":"m 472 1029 b 536 965 507 1029 536 1000 b 479 808 536 944 517 890 b 454 792 475 797 464 792 b 421 821 439 792 421 803 b 424 833 421 825 421 829 l 450 906 b 408 965 425 914 408 939 b 472 1029 408 1000 436 1029 m 147 0 b 106 36 126 0 106 13 l 106 982 b 151 1015 106 1006 128 1015 b 197 982 174 1015 197 1006 l 197 85 l 593 85 b 624 43 614 85 624 64 b 593 0 624 21 614 0 "},"Ļ":{"ha":643,"x_min":0,"x_max":0,"o":"m 297 -215 b 282 -219 292 -218 288 -219 b 247 -181 263 -219 247 -200 b 263 -156 247 -171 251 -161 l 417 -69 b 429 -67 421 -68 425 -67 b 463 -106 449 -67 463 -87 b 444 -136 463 -118 457 -129 m 147 0 b 106 36 126 0 106 13 l 106 982 b 151 1015 106 1006 128 1015 b 197 982 174 1015 197 1006 l 197 85 l 593 85 b 624 43 614 85 624 64 b 593 0 624 21 614 0 "},"Ŀ":{"ha":643,"x_min":0,"x_max":0,"o":"m 147 0 b 106 36 126 0 106 13 l 106 982 b 151 1015 106 1006 128 1015 b 197 982 174 1015 197 1006 l 197 85 l 593 85 b 624 43 614 85 624 64 b 593 0 624 21 614 0 m 468 647 b 533 585 504 647 533 619 b 468 522 533 551 504 522 b 403 585 431 522 403 551 b 468 647 403 619 431 647 "},"Ł":{"ha":651,"x_min":0,"x_max":0,"o":"m 156 0 b 114 36 135 0 114 13 l 114 401 l 51 368 b 38 364 47 365 43 364 b 3 408 19 364 3 386 b 18 435 3 418 7 429 l 114 488 l 114 982 b 160 1015 114 1006 136 1015 b 206 982 182 1015 206 1006 l 206 538 l 340 611 b 354 614 344 614 349 614 b 390 574 374 614 390 593 b 374 544 390 561 383 550 l 206 451 l 206 85 l 601 85 b 632 43 622 85 632 64 b 601 0 632 21 622 0 "},"M":{"ha":928,"x_min":0,"x_max":0,"o":"m 500 381 b 463 351 489 360 475 351 b 426 381 450 351 438 360 l 197 821 l 197 36 b 151 0 197 13 174 0 b 106 36 128 0 106 13 l 106 971 b 151 1015 106 1004 128 1015 b 225 951 185 1015 207 986 l 464 490 l 703 951 b 776 1015 721 986 743 1015 b 822 971 801 1015 822 1004 l 822 36 b 776 0 822 13 800 0 b 731 36 754 0 731 13 l 731 817 "},"N":{"ha":796,"x_min":0,"x_max":0,"o":"m 644 0 b 583 53 618 0 597 25 l 197 804 l 197 36 b 151 0 197 13 174 0 b 106 36 128 0 106 13 l 106 981 b 151 1015 106 1006 128 1015 b 224 951 185 1015 206 986 l 599 213 l 599 982 b 644 1015 599 1006 621 1015 b 690 982 667 1015 690 1006 l 690 36 b 644 0 690 13 667 0 "},"Ń":{"ha":796,"x_min":0,"x_max":0,"o":"m 335 1178 b 321 1174 331 1175 325 1174 b 285 1213 301 1174 285 1193 b 300 1238 285 1222 289 1232 l 456 1322 b 467 1326 458 1325 464 1326 b 500 1288 488 1326 500 1306 b 483 1257 500 1275 494 1263 m 644 0 b 583 53 618 0 597 25 l 197 804 l 197 36 b 151 0 197 13 174 0 b 106 36 128 0 106 13 l 106 981 b 151 1015 106 1006 128 1015 b 224 951 185 1015 206 986 l 599 213 l 599 982 b 644 1015 599 1006 621 1015 b 690 982 667 1015 690 1006 l 690 36 b 644 0 690 13 667 0 "},"Ň":{"ha":796,"x_min":0,"x_max":0,"o":"m 397 1232 l 535 1360 b 556 1368 542 1367 549 1368 b 582 1338 571 1368 582 1353 b 565 1306 582 1326 576 1315 l 425 1181 b 397 1167 415 1172 406 1167 b 369 1181 388 1167 378 1172 l 229 1306 b 211 1338 217 1315 211 1326 b 238 1368 211 1353 222 1368 b 258 1360 244 1368 251 1367 m 644 0 b 583 53 618 0 597 25 l 197 804 l 197 36 b 151 0 197 13 174 0 b 106 36 128 0 106 13 l 106 981 b 151 1015 106 1006 128 1015 b 224 951 185 1015 206 986 l 599 213 l 599 982 b 644 1015 599 1006 621 1015 b 690 982 667 1015 690 1006 l 690 36 b 644 0 690 13 667 0 "},"Ņ":{"ha":796,"x_min":0,"x_max":0,"o":"m 338 -215 b 322 -219 332 -218 328 -219 b 288 -181 303 -219 288 -200 b 303 -156 288 -171 292 -161 l 457 -69 b 469 -67 461 -68 465 -67 b 503 -106 489 -67 503 -87 b 485 -136 503 -118 497 -129 m 644 0 b 583 53 618 0 597 25 l 197 804 l 197 36 b 151 0 197 13 174 0 b 106 36 128 0 106 13 l 106 981 b 151 1015 106 1006 128 1015 b 224 951 185 1015 206 986 l 599 213 l 599 982 b 644 1015 599 1006 621 1015 b 690 982 667 1015 690 1006 l 690 36 b 644 0 690 13 667 0 "},"Ñ":{"ha":796,"x_min":0,"x_max":0,"o":"m 644 0 b 583 53 618 0 597 25 l 197 804 l 197 36 b 151 0 197 13 174 0 b 106 36 128 0 106 13 l 106 981 b 151 1015 106 1006 128 1015 b 224 951 185 1015 206 986 l 599 213 l 599 982 b 644 1015 599 1006 621 1015 b 690 982 667 1015 690 1006 l 690 36 b 644 0 690 13 667 0 m 308 1247 b 206 1203 249 1247 229 1203 b 179 1238 188 1203 179 1222 b 301 1317 179 1289 257 1317 b 485 1269 374 1317 413 1269 b 582 1310 547 1269 557 1310 b 610 1278 600 1310 610 1290 b 493 1199 610 1221 533 1199 b 308 1247 418 1199 383 1247 "},"O":{"ha":767,"x_min":0,"x_max":0,"o":"m 383 -8 b 94 289 221 -8 94 72 l 94 719 b 383 1015 94 935 221 1015 b 672 719 546 1015 672 935 l 672 289 b 383 -8 672 72 546 -8 m 581 719 b 383 931 581 864 507 931 b 186 719 260 931 186 864 l 186 289 b 383 76 186 143 260 76 b 581 289 507 76 581 143 "},"Œ":{"ha":1167,"x_min":0,"x_max":0,"o":"m 372 -8 b 94 289 214 -8 94 72 l 94 719 b 372 1015 94 935 214 1015 b 589 915 461 1015 544 985 l 589 981 b 632 1015 589 1004 611 1015 l 1103 1015 b 1136 975 1126 1015 1136 994 b 1103 931 1136 951 1125 931 l 672 931 l 672 549 l 876 549 b 910 507 899 549 910 529 b 876 469 910 489 900 469 l 672 469 l 672 85 l 1103 85 b 1136 42 1125 85 1136 64 b 1103 0 1136 22 1126 0 l 632 0 b 589 36 611 0 589 13 l 589 93 b 372 -8 544 22 461 -8 m 581 719 b 383 931 581 864 507 931 b 186 719 260 931 186 864 l 186 289 b 383 76 186 143 260 76 b 581 289 507 76 581 143 "},"Ó":{"ha":767,"x_min":0,"x_max":0,"o":"m 342 1178 b 328 1174 338 1175 332 1174 b 292 1213 308 1174 292 1193 b 307 1238 292 1222 296 1232 l 463 1322 b 474 1326 465 1325 471 1326 b 507 1288 494 1326 507 1306 b 490 1257 507 1275 501 1263 m 383 -8 b 94 289 221 -8 94 72 l 94 719 b 383 1015 94 935 221 1015 b 672 719 546 1015 672 935 l 672 289 b 383 -8 672 72 546 -8 m 581 719 b 383 931 581 864 507 931 b 186 719 260 931 186 864 l 186 289 b 383 76 186 143 260 76 b 581 289 507 76 581 143 "},"Ŏ":{"ha":767,"x_min":0,"x_max":0,"o":"m 383 -8 b 94 289 221 -8 94 72 l 94 719 b 383 1015 94 935 221 1015 b 672 719 546 1015 672 935 l 672 289 b 383 -8 672 72 546 -8 m 581 719 b 383 931 581 864 507 931 b 186 719 260 931 186 864 l 186 289 b 383 76 186 143 260 76 b 581 289 507 76 581 143 m 544 1344 b 383 1182 544 1257 467 1182 b 221 1344 297 1182 221 1257 l 282 1344 b 383 1232 282 1281 329 1232 b 483 1344 436 1232 483 1281 "},"Ô":{"ha":767,"x_min":0,"x_max":0,"o":"m 239 1179 b 226 1175 235 1178 231 1175 b 197 1211 211 1175 197 1192 b 215 1242 197 1222 203 1235 l 360 1319 b 383 1326 367 1324 375 1326 b 407 1319 392 1326 400 1324 l 551 1242 b 569 1210 564 1236 569 1222 b 542 1176 569 1192 557 1176 b 528 1181 538 1176 532 1179 l 383 1257 m 383 -8 b 94 289 221 -8 94 72 l 94 719 b 383 1015 94 935 221 1015 b 672 719 546 1015 672 935 l 672 289 b 383 -8 672 72 546 -8 m 581 719 b 383 931 581 864 507 931 b 186 719 260 931 186 864 l 186 289 b 383 76 186 143 260 76 b 581 289 507 76 581 143 "},"Ö":{"ha":767,"x_min":0,"x_max":0,"o":"m 299 1278 b 349 1228 326 1278 349 1257 b 299 1176 349 1200 326 1176 b 247 1228 269 1176 247 1200 b 299 1278 247 1257 269 1278 m 469 1278 b 519 1228 499 1278 519 1257 b 469 1176 519 1200 499 1176 b 418 1228 440 1176 418 1200 b 469 1278 418 1257 440 1278 m 383 -8 b 94 289 221 -8 94 72 l 94 719 b 383 1015 94 935 221 1015 b 672 719 546 1015 672 935 l 672 289 b 383 -8 672 72 546 -8 m 581 719 b 383 931 581 864 507 931 b 186 719 260 931 186 864 l 186 289 b 383 76 186 143 260 76 b 581 289 507 76 581 143 "},"Ò":{"ha":767,"x_min":0,"x_max":0,"o":"m 383 -8 b 94 289 221 -8 94 72 l 94 719 b 383 1015 94 935 221 1015 b 672 719 546 1015 672 935 l 672 289 b 383 -8 672 72 546 -8 m 581 719 b 383 931 581 864 507 931 b 186 719 260 931 186 864 l 186 289 b 383 76 186 143 260 76 b 581 289 507 76 581 143 m 289 1257 b 271 1288 276 1263 271 1275 b 304 1326 271 1306 285 1326 b 317 1322 307 1326 313 1325 l 471 1238 b 486 1213 482 1232 486 1222 b 450 1174 486 1193 469 1174 b 436 1178 446 1174 440 1175 "},"Ő":{"ha":767,"x_min":0,"x_max":0,"o":"m 288 1179 b 271 1172 282 1174 278 1172 b 235 1206 253 1172 235 1189 b 246 1225 235 1214 238 1221 l 379 1321 b 394 1326 383 1325 389 1326 b 426 1293 413 1326 426 1308 b 414 1268 426 1283 422 1274 m 496 1179 b 479 1172 490 1174 486 1172 b 443 1206 461 1172 443 1189 b 454 1225 443 1214 446 1221 l 588 1321 b 603 1326 592 1325 599 1326 b 635 1293 621 1326 635 1308 b 622 1268 635 1283 631 1274 m 383 -8 b 94 289 221 -8 94 72 l 94 719 b 383 1015 94 935 221 1015 b 672 719 546 1015 672 935 l 672 289 b 383 -8 672 72 546 -8 m 581 719 b 383 931 581 864 507 931 b 186 719 260 931 186 864 l 186 289 b 383 76 186 143 260 76 b 581 289 507 76 581 143 "},"Ō":{"ha":767,"x_min":0,"x_max":0,"o":"m 200 1269 b 235 1306 200 1290 214 1306 l 533 1306 b 568 1269 550 1306 568 1290 b 533 1235 568 1250 550 1235 l 235 1235 b 200 1269 214 1235 200 1250 m 383 -8 b 94 289 221 -8 94 72 l 94 719 b 383 1015 94 935 221 1015 b 672 719 546 1015 672 935 l 672 289 b 383 -8 672 72 546 -8 m 581 719 b 383 931 581 864 507 931 b 186 719 260 931 186 864 l 186 289 b 383 76 186 143 260 76 b 581 289 507 76 581 143 "},"Ω":{"ha":760,"x_min":0,"x_max":0,"o":"m 439 203 b 576 408 528 222 576 289 l 576 719 b 379 931 576 864 503 931 b 183 719 256 931 183 864 l 183 408 b 319 203 183 288 231 219 l 319 0 l 108 0 b 75 43 89 0 75 19 b 108 83 75 67 90 83 l 254 83 l 254 129 b 92 408 157 164 92 250 l 92 719 b 379 1015 92 935 217 1015 b 668 719 542 1015 668 935 l 668 408 b 506 129 668 251 600 164 l 506 83 l 650 83 b 685 43 668 83 685 67 b 650 0 685 19 671 0 l 439 0 "},"Ø":{"ha":767,"x_min":0,"x_max":0,"o":"m 644 1068 b 685 1031 663 1068 685 1053 b 679 1013 685 1024 683 1018 l 625 906 b 672 719 654 860 672 799 l 672 289 b 383 -8 672 72 546 -8 b 188 51 307 -8 239 10 l 153 -17 b 119 -37 147 -31 133 -37 b 83 -3 100 -37 83 -21 b 88 14 83 3 85 8 l 136 110 b 94 289 108 154 94 213 l 94 719 b 383 1015 94 935 221 1015 b 571 961 456 1015 521 999 l 617 1051 b 644 1068 622 1064 633 1068 m 581 719 b 571 800 581 750 576 776 l 231 136 b 383 76 264 96 317 76 b 581 289 507 76 581 143 m 186 289 b 192 219 186 263 188 240 l 528 879 b 383 931 494 914 444 931 b 186 719 260 931 186 864 l 186 289 "},"Ǿ":{"ha":767,"x_min":0,"x_max":0,"o":"m 644 1068 b 685 1031 663 1068 685 1053 b 679 1013 685 1024 683 1018 l 625 906 b 672 719 654 860 672 799 l 672 289 b 383 -8 672 72 546 -8 b 188 51 307 -8 239 10 l 153 -17 b 119 -37 147 -31 133 -37 b 83 -3 100 -37 83 -21 b 88 14 83 3 85 8 l 136 110 b 94 289 108 154 94 213 l 94 719 b 383 1015 94 935 221 1015 b 571 961 456 1015 521 999 l 617 1051 b 644 1068 622 1064 633 1068 m 581 719 b 571 800 581 750 576 776 l 231 136 b 383 76 264 96 317 76 b 581 289 507 76 581 143 m 186 289 b 192 219 186 263 188 240 l 528 879 b 383 931 494 914 444 931 b 186 719 260 931 186 864 l 186 289 m 335 1178 b 321 1174 331 1175 325 1174 b 285 1213 301 1174 285 1193 b 300 1238 285 1222 289 1232 l 456 1322 b 467 1326 458 1325 464 1326 b 500 1288 488 1326 500 1306 b 483 1257 500 1275 494 1263 "},"Õ":{"ha":767,"x_min":0,"x_max":0,"o":"m 383 -8 b 94 289 221 -8 94 72 l 94 719 b 383 1015 94 935 221 1015 b 672 719 546 1015 672 935 l 672 289 b 383 -8 672 72 546 -8 m 581 719 b 383 931 581 864 507 931 b 186 719 260 931 186 864 l 186 289 b 383 76 186 143 260 76 b 581 289 507 76 581 143 m 297 1247 b 194 1203 238 1247 218 1203 b 168 1238 176 1203 168 1222 b 290 1317 168 1289 246 1317 b 474 1269 363 1317 401 1269 b 571 1310 536 1269 546 1310 b 599 1278 589 1310 599 1290 b 482 1199 599 1221 522 1199 b 297 1247 407 1199 372 1247 "},"P":{"ha":732,"x_min":0,"x_max":0,"o":"m 106 982 b 144 1015 106 1000 121 1014 l 400 1015 b 686 721 561 1015 686 936 l 686 707 b 397 411 686 492 560 411 l 197 411 l 197 36 b 151 0 197 13 174 0 b 106 36 128 0 106 13 m 197 931 l 197 490 l 397 490 b 594 703 521 490 594 558 l 594 719 b 397 931 594 864 521 931 "},"Q":{"ha":767,"x_min":0,"x_max":0,"o":"m 385 -151 b 349 -117 367 -151 349 -140 l 349 -7 b 94 289 203 4 94 86 l 94 719 b 383 1015 94 935 221 1015 b 672 719 546 1015 672 935 l 672 289 b 419 -7 672 88 564 4 l 419 -117 b 385 -151 419 -140 401 -151 m 581 719 b 383 931 581 864 507 931 b 186 719 260 931 186 864 l 186 289 b 349 81 186 158 246 92 l 349 183 b 385 217 349 207 367 217 b 419 183 401 217 419 207 l 419 81 b 581 289 521 93 581 158 "},"R":{"ha":735,"x_min":0,"x_max":0,"o":"m 106 982 b 140 1015 106 1000 119 1014 l 386 1015 b 686 742 549 1015 686 950 b 469 474 686 569 590 494 l 683 63 b 689 44 688 57 689 50 b 636 -3 689 21 663 -3 b 588 46 614 -3 599 24 l 374 463 l 197 463 l 197 36 b 151 0 197 13 174 0 b 106 36 128 0 106 13 m 197 931 l 197 542 l 386 542 b 594 738 510 542 594 597 b 386 931 594 876 510 931 "},"Ŕ":{"ha":735,"x_min":0,"x_max":0,"o":"m 346 1178 b 332 1174 342 1175 336 1174 b 296 1213 313 1174 296 1193 b 311 1238 296 1222 300 1232 l 467 1322 b 478 1326 469 1325 475 1326 b 511 1288 499 1326 511 1306 b 494 1257 511 1275 506 1263 m 106 982 b 140 1015 106 1000 119 1014 l 386 1015 b 686 742 549 1015 686 950 b 469 474 686 569 590 494 l 683 63 b 689 44 688 57 689 50 b 636 -3 689 21 663 -3 b 588 46 614 -3 599 24 l 374 463 l 197 463 l 197 36 b 151 0 197 13 174 0 b 106 36 128 0 106 13 m 197 931 l 197 542 l 386 542 b 594 738 510 542 594 597 b 386 931 594 876 510 931 "},"Ř":{"ha":735,"x_min":0,"x_max":0,"o":"m 385 1232 l 522 1360 b 543 1368 529 1367 536 1368 b 569 1338 558 1368 569 1353 b 553 1306 569 1326 564 1315 l 413 1181 b 385 1167 403 1172 393 1167 b 357 1181 375 1167 365 1172 l 217 1306 b 199 1338 204 1315 199 1326 b 225 1368 199 1353 210 1368 b 246 1360 232 1368 239 1367 m 106 982 b 140 1015 106 1000 119 1014 l 386 1015 b 686 742 549 1015 686 950 b 469 474 686 569 590 494 l 683 63 b 689 44 688 57 689 50 b 636 -3 689 21 663 -3 b 588 46 614 -3 599 24 l 374 463 l 197 463 l 197 36 b 151 0 197 13 174 0 b 106 36 128 0 106 13 m 197 931 l 197 542 l 386 542 b 594 738 510 542 594 597 b 386 931 594 876 510 931 "},"Ŗ":{"ha":735,"x_min":0,"x_max":0,"o":"m 296 -215 b 281 -219 290 -218 286 -219 b 246 -181 261 -219 246 -200 b 261 -156 246 -171 250 -161 l 415 -69 b 428 -67 419 -68 424 -67 b 461 -106 447 -67 461 -87 b 443 -136 461 -118 456 -129 m 106 982 b 140 1015 106 1000 119 1014 l 386 1015 b 686 742 549 1015 686 950 b 469 474 686 569 590 494 l 683 63 b 689 44 688 57 689 50 b 636 -3 689 21 663 -3 b 588 46 614 -3 599 24 l 374 463 l 197 463 l 197 36 b 151 0 197 13 174 0 b 106 36 128 0 106 13 m 197 931 l 197 542 l 386 542 b 594 738 510 542 594 597 b 386 931 594 876 510 931 "},"S":{"ha":686,"x_min":0,"x_max":0,"o":"m 329 76 b 536 268 458 76 536 142 b 75 765 536 576 75 426 b 369 1018 75 968 240 1018 b 603 933 474 1018 603 983 b 563 882 603 915 588 882 b 368 935 536 882 490 935 b 167 774 265 935 167 897 b 628 276 167 515 628 661 b 335 -10 628 79 506 -10 b 50 140 157 -10 50 90 b 92 192 50 163 71 192 b 329 76 128 192 156 76 "},"Ś":{"ha":686,"x_min":0,"x_max":0,"o":"m 290 1178 b 276 1174 286 1175 281 1174 b 240 1213 257 1174 240 1193 b 256 1238 240 1222 244 1232 l 411 1322 b 422 1326 414 1325 419 1326 b 456 1288 443 1326 456 1306 b 439 1257 456 1275 450 1263 m 329 76 b 536 268 458 76 536 142 b 75 765 536 576 75 426 b 369 1018 75 968 240 1018 b 603 933 474 1018 603 983 b 563 882 603 915 588 882 b 368 935 536 882 490 935 b 167 774 265 935 167 897 b 628 276 167 515 628 661 b 335 -10 628 79 506 -10 b 50 140 157 -10 50 90 b 92 192 50 163 71 192 b 329 76 128 192 156 76 "},"Š":{"ha":686,"x_min":0,"x_max":0,"o":"m 339 1232 l 476 1360 b 497 1368 483 1367 490 1368 b 524 1338 513 1368 524 1353 b 507 1306 524 1326 518 1315 l 367 1181 b 339 1167 357 1172 347 1167 b 311 1181 329 1167 319 1172 l 171 1306 b 153 1338 158 1315 153 1326 b 179 1368 153 1353 164 1368 b 200 1360 186 1368 193 1367 m 329 76 b 536 268 458 76 536 142 b 75 765 536 576 75 426 b 369 1018 75 968 240 1018 b 603 933 474 1018 603 983 b 563 882 603 915 588 882 b 368 935 536 882 490 935 b 167 774 265 935 167 897 b 628 276 167 515 628 661 b 335 -10 628 79 506 -10 b 50 140 157 -10 50 90 b 92 192 50 163 71 192 b 329 76 128 192 156 76 "},"Ş":{"ha":686,"x_min":0,"x_max":0,"o":"m 329 76 b 536 268 458 76 536 142 b 75 765 536 576 75 426 b 369 1018 75 968 240 1018 b 603 933 474 1018 603 983 b 563 882 603 915 588 882 b 368 935 536 882 490 935 b 167 774 265 935 167 897 b 628 276 167 515 628 661 b 397 -6 628 104 535 14 l 376 -85 b 510 -185 471 -87 510 -135 b 386 -292 510 -235 471 -292 b 278 -256 349 -292 278 -281 b 300 -222 278 -247 286 -222 b 378 -242 311 -222 332 -242 b 451 -187 431 -242 451 -217 b 364 -129 451 -150 418 -133 l 311 -125 l 342 -10 l 335 -10 b 50 140 157 -10 50 90 b 92 192 50 163 71 192 b 329 76 128 192 156 76 "},"Ŝ":{"ha":686,"x_min":0,"x_max":0,"o":"m 194 1179 b 182 1175 190 1178 186 1175 b 153 1211 167 1175 153 1192 b 171 1242 153 1222 158 1235 l 315 1319 b 339 1326 322 1324 331 1326 b 363 1319 347 1326 356 1324 l 507 1242 b 525 1210 519 1236 525 1222 b 497 1176 525 1192 513 1176 b 483 1181 493 1176 488 1179 l 339 1257 m 329 76 b 536 268 458 76 536 142 b 75 765 536 576 75 426 b 369 1018 75 968 240 1018 b 603 933 474 1018 603 983 b 563 882 603 915 588 882 b 368 935 536 882 490 935 b 167 774 265 935 167 897 b 628 276 167 515 628 661 b 335 -10 628 79 506 -10 b 50 140 157 -10 50 90 b 92 192 50 163 71 192 b 329 76 128 192 156 76 "},"Ș":{"ha":686,"x_min":0,"x_max":0,"o":"m 301 -215 b 286 -219 296 -218 292 -219 b 251 -181 267 -219 251 -200 b 267 -156 251 -171 256 -161 l 421 -69 b 433 -67 425 -68 429 -67 b 467 -106 453 -67 467 -87 b 449 -136 467 -118 461 -129 m 329 76 b 536 268 458 76 536 142 b 75 765 536 576 75 426 b 369 1018 75 968 240 1018 b 603 933 474 1018 603 983 b 563 882 603 915 588 882 b 368 935 536 882 490 935 b 167 774 265 935 167 897 b 628 276 167 515 628 661 b 335 -10 628 79 506 -10 b 50 140 157 -10 50 90 b 92 192 50 163 71 192 b 329 76 128 192 156 76 "},"T":{"ha":668,"x_min":0,"x_max":0,"o":"m 613 1015 b 647 974 636 1015 647 994 b 613 929 647 951 636 929 l 381 929 l 381 36 b 335 0 381 13 357 0 b 289 36 311 0 289 13 l 289 929 l 56 929 b 21 972 33 929 21 950 b 56 1015 21 993 32 1015 "},"Ŧ":{"ha":668,"x_min":0,"x_max":0,"o":"m 613 1015 b 647 974 636 1015 647 994 b 613 929 647 951 636 929 l 381 929 l 381 544 l 557 544 b 589 508 578 544 589 526 b 557 469 589 489 579 469 l 381 469 l 381 36 b 335 0 381 13 357 0 b 289 36 311 0 289 13 l 289 469 l 111 469 b 79 507 90 469 79 488 b 111 544 79 526 90 544 l 289 544 l 289 929 l 56 929 b 21 972 33 929 21 950 b 56 1015 21 993 32 1015 "},"Ť":{"ha":668,"x_min":0,"x_max":0,"o":"m 333 1232 l 471 1360 b 492 1368 478 1367 485 1368 b 518 1338 507 1368 518 1353 b 501 1306 518 1326 513 1315 l 361 1181 b 333 1167 351 1172 342 1167 b 306 1181 324 1167 314 1172 l 165 1306 b 147 1338 153 1315 147 1326 b 174 1368 147 1353 158 1368 b 194 1360 181 1368 188 1367 m 613 1015 b 647 974 636 1015 647 994 b 613 929 647 951 636 929 l 381 929 l 381 36 b 335 0 381 13 357 0 b 289 36 311 0 289 13 l 289 929 l 56 929 b 21 972 33 929 21 950 b 56 1015 21 993 32 1015 "},"Ţ":{"ha":668,"x_min":0,"x_max":0,"o":"m 276 -215 b 261 -219 271 -218 267 -219 b 226 -181 242 -219 226 -200 b 242 -156 226 -171 231 -161 l 396 -69 b 408 -67 400 -68 404 -67 b 442 -106 428 -67 442 -87 b 424 -136 442 -118 436 -129 m 613 1015 b 647 974 636 1015 647 994 b 613 929 647 951 636 929 l 381 929 l 381 36 b 335 0 381 13 357 0 b 289 36 311 0 289 13 l 289 929 l 56 929 b 21 972 33 929 21 950 b 56 1015 21 993 32 1015 "},"Þ":{"ha":688,"x_min":0,"x_max":0,"o":"m 149 1021 b 196 988 176 1021 196 1007 l 196 754 b 388 860 226 811 290 860 b 628 636 514 860 628 776 l 628 413 b 394 185 628 274 510 185 b 196 294 308 185 219 232 l 196 36 b 150 0 196 18 175 0 b 106 36 125 0 106 18 l 106 989 b 149 1021 106 1010 125 1021 m 538 636 b 372 776 538 728 457 776 b 196 636 279 776 196 721 l 196 407 b 372 268 196 346 269 268 b 538 413 456 268 538 318 "},"U":{"ha":786,"x_min":0,"x_max":0,"o":"m 593 982 b 639 1015 593 1006 615 1015 b 685 982 661 1015 685 1006 l 685 289 b 393 -8 685 72 556 -8 b 101 289 229 -8 101 72 l 101 982 b 147 1015 101 1006 125 1015 b 193 982 171 1015 193 1006 l 193 289 b 393 76 193 144 268 76 b 593 289 518 76 593 144 "},"Ú":{"ha":786,"x_min":0,"x_max":0,"o":"m 344 1178 b 331 1174 340 1175 335 1174 b 294 1213 311 1174 294 1193 b 310 1238 294 1222 299 1232 l 465 1322 b 476 1326 468 1325 474 1326 b 510 1288 497 1326 510 1306 b 493 1257 510 1275 504 1263 m 593 982 b 639 1015 593 1006 615 1015 b 685 982 661 1015 685 1006 l 685 289 b 393 -8 685 72 556 -8 b 101 289 229 -8 101 72 l 101 982 b 147 1015 101 1006 125 1015 b 193 982 171 1015 193 1006 l 193 289 b 393 76 193 144 268 76 b 593 289 518 76 593 144 "},"Ŭ":{"ha":786,"x_min":0,"x_max":0,"o":"m 593 982 b 639 1015 593 1006 615 1015 b 685 982 661 1015 685 1006 l 685 289 b 393 -8 685 72 556 -8 b 101 289 229 -8 101 72 l 101 982 b 147 1015 101 1006 125 1015 b 193 982 171 1015 193 1006 l 193 289 b 393 76 193 144 268 76 b 593 289 518 76 593 144 m 553 1344 b 392 1182 553 1257 475 1182 b 229 1344 306 1182 229 1257 l 290 1344 b 392 1232 290 1281 338 1232 b 492 1344 444 1232 492 1281 "},"Û":{"ha":786,"x_min":0,"x_max":0,"o":"m 246 1179 b 233 1175 242 1178 238 1175 b 204 1211 218 1175 204 1192 b 222 1242 204 1222 210 1235 l 367 1319 b 390 1326 374 1324 382 1326 b 414 1319 399 1326 407 1324 l 558 1242 b 576 1210 571 1236 576 1222 b 549 1176 576 1192 564 1176 b 535 1181 544 1176 539 1179 l 390 1257 m 593 982 b 639 1015 593 1006 615 1015 b 685 982 661 1015 685 1006 l 685 289 b 393 -8 685 72 556 -8 b 101 289 229 -8 101 72 l 101 982 b 147 1015 101 1006 125 1015 b 193 982 171 1015 193 1006 l 193 289 b 393 76 193 144 268 76 b 593 289 518 76 593 144 "},"Ü":{"ha":786,"x_min":0,"x_max":0,"o":"m 308 1278 b 358 1228 336 1278 358 1257 b 308 1176 358 1200 336 1176 b 257 1228 279 1176 257 1200 b 308 1278 257 1257 279 1278 m 479 1278 b 529 1228 508 1278 529 1257 b 479 1176 529 1200 508 1176 b 428 1228 450 1176 428 1200 b 479 1278 428 1257 450 1278 m 593 982 b 639 1015 593 1006 615 1015 b 685 982 661 1015 685 1006 l 685 289 b 393 -8 685 72 556 -8 b 101 289 229 -8 101 72 l 101 982 b 147 1015 101 1006 125 1015 b 193 982 171 1015 193 1006 l 193 289 b 393 76 193 144 268 76 b 593 289 518 76 593 144 "},"Ù":{"ha":786,"x_min":0,"x_max":0,"o":"m 593 982 b 639 1015 593 1006 615 1015 b 685 982 661 1015 685 1006 l 685 289 b 393 -8 685 72 556 -8 b 101 289 229 -8 101 72 l 101 982 b 147 1015 101 1006 125 1015 b 193 982 171 1015 193 1006 l 193 289 b 393 76 193 144 268 76 b 593 289 518 76 593 144 m 296 1257 b 278 1288 283 1263 278 1275 b 311 1326 278 1306 292 1326 b 324 1322 314 1326 319 1325 l 478 1238 b 493 1213 489 1232 493 1222 b 457 1174 493 1193 476 1174 b 443 1178 453 1174 447 1175 "},"Ű":{"ha":786,"x_min":0,"x_max":0,"o":"m 593 982 b 639 1015 593 1006 615 1015 b 685 982 661 1015 685 1006 l 685 289 b 393 -8 685 72 556 -8 b 101 289 229 -8 101 72 l 101 982 b 147 1015 101 1006 125 1015 b 193 982 171 1015 193 1006 l 193 289 b 393 76 193 144 268 76 b 593 289 518 76 593 144 m 306 1179 b 289 1172 300 1174 296 1172 b 253 1206 271 1172 253 1189 b 264 1225 253 1214 256 1221 l 397 1321 b 413 1326 401 1325 407 1326 b 444 1293 431 1326 444 1308 b 432 1268 444 1283 440 1274 m 514 1179 b 497 1172 508 1174 504 1172 b 461 1206 479 1172 461 1189 b 472 1225 461 1214 464 1221 l 606 1321 b 621 1326 610 1325 617 1326 b 653 1293 639 1326 653 1308 b 640 1268 653 1283 649 1274 "},"Ū":{"ha":786,"x_min":0,"x_max":0,"o":"m 593 982 b 639 1015 593 1006 615 1015 b 685 982 661 1015 685 1006 l 685 289 b 393 -8 685 72 556 -8 b 101 289 229 -8 101 72 l 101 982 b 147 1015 101 1006 125 1015 b 193 982 171 1015 193 1006 l 193 289 b 393 76 193 144 268 76 b 593 289 518 76 593 144 m 208 1269 b 243 1306 208 1290 222 1306 l 542 1306 b 576 1269 558 1306 576 1290 b 542 1235 576 1250 558 1235 l 243 1235 b 208 1269 222 1235 208 1250 "},"Ų":{"ha":786,"x_min":0,"x_max":0,"o":"m 593 982 b 639 1015 593 1006 615 1015 b 685 982 661 1015 685 1006 l 685 289 b 499 6 685 122 608 36 b 396 -168 442 -44 396 -101 b 482 -231 396 -212 428 -231 b 510 -256 499 -231 510 -240 b 475 -279 510 -271 501 -279 b 340 -175 407 -279 340 -250 b 414 -7 340 -112 368 -57 b 393 -8 407 -7 400 -8 b 101 289 229 -8 101 72 l 101 982 b 147 1015 101 1006 125 1015 b 193 982 171 1015 193 1006 l 193 289 b 393 76 193 144 268 76 b 593 289 518 76 593 144 "},"Ů":{"ha":786,"x_min":0,"x_max":0,"o":"m 392 1419 b 521 1290 460 1419 521 1358 b 392 1157 521 1221 460 1157 b 264 1290 322 1157 264 1221 b 392 1419 264 1357 319 1419 m 474 1290 b 393 1371 474 1329 436 1371 b 310 1290 346 1371 310 1329 b 393 1203 310 1246 347 1203 b 474 1290 436 1203 474 1246 m 593 982 b 639 1015 593 1006 615 1015 b 685 982 661 1015 685 1006 l 685 289 b 393 -8 685 72 556 -8 b 101 289 229 -8 101 72 l 101 982 b 147 1015 101 1006 125 1015 b 193 982 171 1015 193 1006 l 193 289 b 393 76 193 144 268 76 b 593 289 518 76 593 144 "},"Ũ":{"ha":786,"x_min":0,"x_max":0,"o":"m 593 982 b 639 1015 593 1006 615 1015 b 685 982 661 1015 685 1006 l 685 289 b 393 -8 685 72 556 -8 b 101 289 229 -8 101 72 l 101 982 b 147 1015 101 1006 125 1015 b 193 982 171 1015 193 1006 l 193 289 b 393 76 193 144 268 76 b 593 289 518 76 593 144 m 304 1247 b 201 1203 244 1247 225 1203 b 175 1238 183 1203 175 1222 b 297 1317 175 1289 253 1317 b 481 1269 369 1317 408 1269 b 578 1310 543 1269 553 1310 b 606 1278 596 1310 606 1290 b 489 1199 606 1221 529 1199 b 304 1247 414 1199 379 1247 "},"V":{"ha":747,"x_min":0,"x_max":0,"o":"m 29 967 b 28 976 28 969 28 974 b 81 1015 28 1000 57 1015 b 117 992 97 1015 113 1008 l 374 139 l 629 992 b 664 1015 635 1008 649 1015 b 719 975 689 1015 719 997 b 718 967 719 972 718 969 l 429 25 b 374 -8 422 3 399 -8 b 319 25 350 -8 326 1 "},"W":{"ha":1093,"x_min":0,"x_max":0,"o":"m 789 25 b 733 -8 782 3 758 -8 b 679 25 710 -8 685 1 l 547 515 l 415 25 b 361 -8 410 3 386 -8 b 306 25 336 -8 313 1 l 32 967 b 31 978 31 971 31 974 b 83 1015 31 1000 58 1015 b 119 992 100 1015 115 1007 l 360 139 l 499 657 b 547 689 504 681 525 689 b 594 657 569 689 588 681 l 733 139 l 974 992 b 1010 1015 978 1007 993 1015 b 1063 978 1035 1015 1063 1000 b 1061 967 1063 974 1063 971 "},"Ẃ":{"ha":1093,"x_min":0,"x_max":0,"o":"m 496 1178 b 482 1174 492 1175 486 1174 b 446 1213 463 1174 446 1193 b 461 1238 446 1222 450 1232 l 617 1322 b 628 1326 619 1325 625 1326 b 661 1288 649 1326 661 1306 b 644 1257 661 1275 656 1263 m 789 25 b 733 -8 782 3 758 -8 b 679 25 710 -8 685 1 l 547 515 l 415 25 b 361 -8 410 3 386 -8 b 306 25 336 -8 313 1 l 32 967 b 31 978 31 971 31 974 b 83 1015 31 1000 58 1015 b 119 992 100 1015 115 1007 l 360 139 l 499 657 b 547 689 504 681 525 689 b 594 657 569 689 588 681 l 733 139 l 974 992 b 1010 1015 978 1007 993 1015 b 1063 978 1035 1015 1063 1000 b 1061 967 1063 974 1063 971 "},"Ŵ":{"ha":1093,"x_min":0,"x_max":0,"o":"m 401 1179 b 389 1175 397 1178 393 1175 b 360 1211 374 1175 360 1192 b 378 1242 360 1222 365 1235 l 522 1319 b 546 1326 529 1324 538 1326 b 569 1319 554 1326 563 1324 l 714 1242 b 732 1210 726 1236 732 1222 b 704 1176 732 1192 719 1176 b 690 1181 700 1176 694 1179 l 546 1257 m 789 25 b 733 -8 782 3 758 -8 b 679 25 710 -8 685 1 l 547 515 l 415 25 b 361 -8 410 3 386 -8 b 306 25 336 -8 313 1 l 32 967 b 31 978 31 971 31 974 b 83 1015 31 1000 58 1015 b 119 992 100 1015 115 1007 l 360 139 l 499 657 b 547 689 504 681 525 689 b 594 657 569 689 588 681 l 733 139 l 974 992 b 1010 1015 978 1007 993 1015 b 1063 978 1035 1015 1063 1000 b 1061 967 1063 974 1063 971 "},"Ẅ":{"ha":1093,"x_min":0,"x_max":0,"o":"m 461 1278 b 511 1228 489 1278 511 1257 b 461 1176 511 1200 489 1176 b 410 1228 432 1176 410 1200 b 461 1278 410 1257 432 1278 m 632 1278 b 682 1228 661 1278 682 1257 b 632 1176 682 1200 661 1176 b 581 1228 603 1176 581 1200 b 632 1278 581 1257 603 1278 m 789 25 b 733 -8 782 3 758 -8 b 679 25 710 -8 685 1 l 547 515 l 415 25 b 361 -8 410 3 386 -8 b 306 25 336 -8 313 1 l 32 967 b 31 978 31 971 31 974 b 83 1015 31 1000 58 1015 b 119 992 100 1015 115 1007 l 360 139 l 499 657 b 547 689 504 681 525 689 b 594 657 569 689 588 681 l 733 139 l 974 992 b 1010 1015 978 1007 993 1015 b 1063 978 1035 1015 1063 1000 b 1061 967 1063 974 1063 971 "},"Ẁ":{"ha":1093,"x_min":0,"x_max":0,"o":"m 789 25 b 733 -8 782 3 758 -8 b 679 25 710 -8 685 1 l 547 515 l 415 25 b 361 -8 410 3 386 -8 b 306 25 336 -8 313 1 l 32 967 b 31 978 31 971 31 974 b 83 1015 31 1000 58 1015 b 119 992 100 1015 115 1007 l 360 139 l 499 657 b 547 689 504 681 525 689 b 594 657 569 689 588 681 l 733 139 l 974 992 b 1010 1015 978 1007 993 1015 b 1063 978 1035 1015 1063 1000 b 1061 967 1063 974 1063 971 m 450 1257 b 432 1288 438 1263 432 1275 b 465 1326 432 1306 446 1326 b 478 1322 468 1326 474 1325 l 632 1238 b 647 1213 643 1232 647 1222 b 611 1174 647 1193 631 1174 b 597 1178 607 1174 601 1175 "},"X":{"ha":672,"x_min":0,"x_max":0,"o":"m 336 431 l 131 42 b 88 -3 121 22 108 -3 b 33 43 63 -3 33 18 b 39 65 33 50 35 57 l 278 508 l 43 949 b 35 978 38 958 35 968 b 89 1018 35 1001 61 1018 b 136 971 111 1018 125 992 l 336 589 l 536 971 b 583 1018 547 992 561 1018 b 638 978 611 1018 638 1001 b 629 949 638 968 635 958 l 393 508 l 633 65 b 639 43 638 57 639 50 b 585 -3 639 18 610 -3 b 542 42 564 -3 551 22 "},"Y":{"ha":738,"x_min":0,"x_max":0,"o":"m 322 389 b 321 400 322 393 322 396 l 33 951 b 26 976 28 961 26 971 b 76 1015 26 1000 54 1015 b 113 988 92 1015 103 1007 l 368 481 l 625 988 b 661 1015 635 1007 647 1015 b 711 976 683 1015 711 1000 b 706 951 711 971 710 961 l 417 400 b 414 389 415 396 414 393 l 414 36 b 368 0 414 13 392 0 b 322 36 346 0 322 13 "},"Ý":{"ha":738,"x_min":0,"x_max":0,"o":"m 322 389 b 321 400 322 393 322 396 l 33 951 b 26 976 28 961 26 971 b 76 1015 26 1000 54 1015 b 113 988 92 1015 103 1007 l 368 481 l 625 988 b 661 1015 635 1007 647 1015 b 711 976 683 1015 711 1000 b 706 951 711 971 710 961 l 417 400 b 414 389 415 396 414 393 l 414 36 b 368 0 414 13 392 0 b 322 36 346 0 322 13 m 318 1178 b 304 1174 314 1175 308 1174 b 268 1213 285 1174 268 1193 b 283 1238 268 1222 272 1232 l 439 1322 b 450 1326 442 1325 447 1326 b 483 1288 471 1326 483 1306 b 467 1257 483 1275 478 1263 "},"Ŷ":{"ha":738,"x_min":0,"x_max":0,"o":"m 322 389 b 321 400 322 393 322 396 l 33 951 b 26 976 28 961 26 971 b 76 1015 26 1000 54 1015 b 113 988 92 1015 103 1007 l 368 481 l 625 988 b 661 1015 635 1007 647 1015 b 711 976 683 1015 711 1000 b 706 951 711 971 710 961 l 417 400 b 414 389 415 396 414 393 l 414 36 b 368 0 414 13 392 0 b 322 36 346 0 322 13 m 224 1179 b 211 1175 219 1178 215 1175 b 182 1211 196 1175 182 1192 b 200 1242 182 1222 188 1235 l 344 1319 b 368 1326 351 1324 360 1326 b 392 1319 376 1326 385 1324 l 536 1242 b 554 1210 549 1236 554 1222 b 526 1176 554 1192 542 1176 b 513 1181 522 1176 517 1179 l 368 1257 "},"Ÿ":{"ha":738,"x_min":0,"x_max":0,"o":"m 322 389 b 321 400 322 393 322 396 l 33 951 b 26 976 28 961 26 971 b 76 1015 26 1000 54 1015 b 113 988 92 1015 103 1007 l 368 481 l 625 988 b 661 1015 635 1007 647 1015 b 711 976 683 1015 711 1000 b 706 951 711 971 710 961 l 417 400 b 414 389 415 396 414 393 l 414 36 b 368 0 414 13 392 0 b 322 36 346 0 322 13 m 285 1278 b 335 1228 313 1278 335 1257 b 285 1176 335 1200 313 1176 b 233 1228 256 1176 233 1200 b 285 1278 233 1257 256 1278 m 456 1278 b 506 1228 485 1278 506 1257 b 456 1176 506 1200 485 1176 b 404 1228 426 1176 404 1200 b 456 1278 404 1257 426 1278 "},"Ỳ":{"ha":738,"x_min":0,"x_max":0,"o":"m 322 389 b 321 400 322 393 322 396 l 33 951 b 26 976 28 961 26 971 b 76 1015 26 1000 54 1015 b 113 988 92 1015 103 1007 l 368 481 l 625 988 b 661 1015 635 1007 647 1015 b 711 976 683 1015 711 1000 b 706 951 711 971 710 961 l 417 400 b 414 389 415 396 414 393 l 414 36 b 368 0 414 13 392 0 b 322 36 346 0 322 13 m 272 1257 b 254 1288 260 1263 254 1275 b 288 1326 254 1306 268 1326 b 300 1322 290 1326 296 1325 l 454 1238 b 469 1213 465 1232 469 1222 b 433 1174 469 1193 453 1174 b 419 1178 429 1174 424 1175 "},"Z":{"ha":672,"x_min":0,"x_max":0,"o":"m 151 85 l 606 85 b 640 43 629 85 640 63 b 606 0 640 22 629 0 l 67 0 b 33 32 46 0 33 14 b 42 64 33 42 36 53 l 504 931 l 85 931 b 50 974 63 931 50 951 b 85 1015 50 994 61 1015 l 589 1015 b 624 986 613 1015 624 1003 b 613 950 624 975 619 963 "},"Ź":{"ha":672,"x_min":0,"x_max":0,"o":"m 281 1178 b 267 1174 276 1175 271 1174 b 231 1213 247 1174 231 1193 b 246 1238 231 1222 235 1232 l 401 1322 b 413 1326 404 1325 410 1326 b 446 1288 433 1326 446 1306 b 429 1257 446 1275 440 1263 m 151 85 l 606 85 b 640 43 629 85 640 63 b 606 0 640 22 629 0 l 67 0 b 33 32 46 0 33 14 b 42 64 33 42 36 53 l 504 931 l 85 931 b 50 974 63 931 50 951 b 85 1015 50 994 61 1015 l 589 1015 b 624 986 613 1015 624 1003 b 613 950 624 975 619 963 "},"Ž":{"ha":672,"x_min":0,"x_max":0,"o":"m 328 1232 l 465 1360 b 486 1368 472 1367 479 1368 b 513 1338 501 1368 513 1353 b 496 1306 513 1326 507 1315 l 356 1181 b 328 1167 346 1172 336 1167 b 300 1181 318 1167 308 1172 l 160 1306 b 142 1338 147 1315 142 1326 b 168 1368 142 1353 153 1368 b 189 1360 175 1368 182 1367 m 151 85 l 606 85 b 640 43 629 85 640 63 b 606 0 640 22 629 0 l 67 0 b 33 32 46 0 33 14 b 42 64 33 42 36 53 l 504 931 l 85 931 b 50 974 63 931 50 951 b 85 1015 50 994 61 1015 l 589 1015 b 624 986 613 1015 624 1003 b 613 950 624 975 619 963 "},"Ż":{"ha":672,"x_min":0,"x_max":0,"o":"m 151 85 l 606 85 b 640 43 629 85 640 63 b 606 0 640 22 629 0 l 67 0 b 33 32 46 0 33 14 b 42 64 33 42 36 53 l 504 931 l 85 931 b 50 974 63 931 50 951 b 85 1015 50 994 61 1015 l 589 1015 b 624 986 613 1015 624 1003 b 613 950 624 975 619 963 m 332 1278 b 382 1228 360 1278 382 1257 b 332 1176 382 1200 360 1176 b 281 1228 303 1176 281 1200 b 332 1278 281 1257 303 1278 "},"a":{"ha":608,"x_min":0,"x_max":0,"o":"m 275 665 b 526 397 461 665 526 536 l 526 36 b 482 0 526 15 508 0 b 440 36 458 0 440 15 l 440 97 b 231 -10 392 42 324 -10 b 42 174 125 -10 42 49 b 365 364 42 325 172 364 l 436 364 l 436 397 b 272 586 436 486 392 586 b 124 546 179 586 146 546 b 88 594 100 546 88 574 b 275 665 88 631 186 665 m 436 301 l 378 301 b 132 182 250 301 132 289 b 253 67 132 101 185 67 b 436 213 342 67 436 150 "},"á":{"ha":608,"x_min":0,"x_max":0,"o":"m 275 665 b 526 397 461 665 526 536 l 526 36 b 482 0 526 15 508 0 b 440 36 458 0 440 15 l 440 97 b 231 -10 392 42 324 -10 b 42 174 125 -10 42 49 b 365 364 42 325 172 364 l 436 364 l 436 397 b 272 586 436 486 392 586 b 124 546 179 586 146 546 b 88 594 100 546 88 574 b 275 665 88 631 186 665 m 436 301 l 378 301 b 132 182 250 301 132 289 b 253 67 132 101 185 67 b 436 213 342 67 436 150 m 235 825 b 221 821 231 822 225 821 b 185 860 201 821 185 840 b 200 885 185 869 189 879 l 356 969 b 367 974 358 972 364 974 b 400 935 388 974 400 953 b 383 904 400 922 394 910 "},"ă":{"ha":608,"x_min":0,"x_max":0,"o":"m 275 665 b 526 397 461 665 526 536 l 526 36 b 482 0 526 15 508 0 b 440 36 458 0 440 15 l 440 97 b 231 -10 392 42 324 -10 b 42 174 125 -10 42 49 b 365 364 42 325 172 364 l 436 364 l 436 397 b 272 586 436 486 392 586 b 124 546 179 586 146 546 b 88 594 100 546 88 574 b 275 665 88 631 186 665 m 436 301 l 378 301 b 132 182 250 301 132 289 b 253 67 132 101 185 67 b 436 213 342 67 436 150 m 457 992 b 296 829 457 904 379 829 b 133 992 210 829 133 904 l 194 992 b 296 879 194 928 242 879 b 396 992 349 879 396 928 "},"â":{"ha":608,"x_min":0,"x_max":0,"o":"m 142 826 b 129 822 138 825 133 822 b 100 858 114 822 100 839 b 118 889 100 869 106 882 l 263 967 b 286 974 269 971 278 974 b 310 967 294 974 303 971 l 454 889 b 472 857 467 883 472 869 b 444 824 472 839 460 824 b 431 828 440 824 435 826 l 286 904 m 275 665 b 526 397 461 665 526 536 l 526 36 b 482 0 526 15 508 0 b 440 36 458 0 440 15 l 440 97 b 231 -10 392 42 324 -10 b 42 174 125 -10 42 49 b 365 364 42 325 172 364 l 436 364 l 436 397 b 272 586 436 486 392 586 b 124 546 179 586 146 546 b 88 594 100 546 88 574 b 275 665 88 631 186 665 m 436 301 l 378 301 b 132 182 250 301 132 289 b 253 67 132 101 185 67 b 436 213 342 67 436 150 "},"´":{"ha":215,"x_min":0,"x_max":0,"o":"m 50 825 b 36 821 46 822 40 821 b 0 860 17 821 0 840 b 15 885 0 869 4 879 l 171 969 b 182 974 174 972 179 974 b 215 935 203 974 215 953 b 199 904 215 922 210 910 "},"ä":{"ha":608,"x_min":0,"x_max":0,"o":"m 200 925 b 250 875 228 925 250 904 b 200 824 250 847 228 824 b 149 875 171 824 149 847 b 200 925 149 904 171 925 m 371 925 b 421 875 400 925 421 904 b 371 824 421 847 400 824 b 319 875 342 824 319 847 b 371 925 319 904 342 925 m 275 665 b 526 397 461 665 526 536 l 526 36 b 482 0 526 15 508 0 b 440 36 458 0 440 15 l 440 97 b 231 -10 392 42 324 -10 b 42 174 125 -10 42 49 b 365 364 42 325 172 364 l 436 364 l 436 397 b 272 586 436 486 392 586 b 124 546 179 586 146 546 b 88 594 100 546 88 574 b 275 665 88 631 186 665 m 436 301 l 378 301 b 132 182 250 301 132 289 b 253 67 132 101 185 67 b 436 213 342 67 436 150 "},"æ":{"ha":1011,"x_min":0,"x_max":0,"o":"m 700 665 b 961 397 818 665 961 586 b 840 301 961 314 929 301 l 529 301 l 529 250 b 736 69 529 139 617 69 b 904 125 842 69 874 125 b 943 82 924 125 943 101 b 722 -10 943 39 829 -10 b 476 132 618 -10 522 42 b 238 -10 417 32 321 -10 b 42 174 133 -10 42 49 b 364 364 42 325 171 364 l 435 364 l 435 397 b 268 588 435 489 390 588 b 121 547 179 588 143 547 b 85 594 100 547 85 575 b 274 667 85 631 185 667 b 486 536 385 667 451 613 b 700 665 529 611 608 665 m 804 368 b 874 413 864 368 874 378 b 700 590 874 506 803 590 b 529 422 604 590 529 514 l 529 368 m 435 301 l 375 301 b 132 179 246 301 132 289 b 251 67 132 104 185 67 b 435 213 349 67 435 153 "},"ǽ":{"ha":1011,"x_min":0,"x_max":0,"o":"m 451 825 b 438 821 447 822 442 821 b 401 860 418 821 401 840 b 417 885 401 869 406 879 l 572 969 b 583 974 575 972 581 974 b 617 935 604 974 617 953 b 600 904 617 922 611 910 m 700 665 b 961 397 818 665 961 586 b 840 301 961 314 929 301 l 529 301 l 529 250 b 736 69 529 139 617 69 b 904 125 842 69 874 125 b 943 82 924 125 943 101 b 722 -10 943 39 829 -10 b 476 132 618 -10 522 42 b 238 -10 417 32 321 -10 b 42 174 133 -10 42 49 b 364 364 42 325 171 364 l 435 364 l 435 397 b 268 588 435 489 390 588 b 121 547 179 588 143 547 b 85 594 100 547 85 575 b 274 667 85 631 185 667 b 486 536 385 667 451 613 b 700 665 529 611 608 665 m 804 368 b 874 413 864 368 874 378 b 700 590 874 506 803 590 b 529 422 604 590 529 514 l 529 368 m 435 301 l 375 301 b 132 179 246 301 132 289 b 251 67 132 104 185 67 b 435 213 349 67 435 153 "},"à":{"ha":608,"x_min":0,"x_max":0,"o":"m 275 665 b 526 397 461 665 526 536 l 526 36 b 482 0 526 15 508 0 b 440 36 458 0 440 15 l 440 97 b 231 -10 392 42 324 -10 b 42 174 125 -10 42 49 b 365 364 42 325 172 364 l 436 364 l 436 397 b 272 586 436 486 392 586 b 124 546 179 586 146 546 b 88 594 100 546 88 574 b 275 665 88 631 186 665 m 436 301 l 378 301 b 132 182 250 301 132 289 b 253 67 132 101 185 67 b 436 213 342 67 436 150 m 196 904 b 178 935 183 910 178 922 b 211 974 178 953 192 974 b 224 969 214 974 219 972 l 378 885 b 393 860 389 879 393 869 b 357 821 393 840 376 821 b 343 825 353 821 347 822 "},"ā":{"ha":608,"x_min":0,"x_max":0,"o":"m 275 665 b 526 397 461 665 526 536 l 526 36 b 482 0 526 15 508 0 b 440 36 458 0 440 15 l 440 97 b 231 -10 392 42 324 -10 b 42 174 125 -10 42 49 b 365 364 42 325 172 364 l 436 364 l 436 397 b 272 586 436 486 392 586 b 124 546 179 586 146 546 b 88 594 100 546 88 574 b 275 665 88 631 186 665 m 436 301 l 378 301 b 132 182 250 301 132 289 b 253 67 132 101 185 67 b 436 213 342 67 436 150 m 113 917 b 147 953 113 938 126 953 l 446 953 b 481 917 463 953 481 938 b 446 882 481 897 463 882 l 147 882 b 113 917 126 882 113 897 "},"&":{"ha":847,"x_min":0,"x_max":0,"o":"m 365 -14 b 47 282 164 -14 47 124 b 236 558 47 424 142 515 b 124 803 181 624 124 697 b 375 1039 124 954 238 1039 b 601 906 526 1039 601 944 b 558 864 601 882 582 864 b 379 963 521 864 507 963 b 218 797 279 963 218 897 b 347 557 218 700 282 628 l 629 249 b 676 501 668 338 674 438 b 718 539 678 528 686 539 b 757 490 747 539 757 524 b 688 186 757 433 746 300 l 815 49 b 824 29 821 42 824 35 b 782 -10 824 8 803 -10 b 756 3 772 -10 765 -7 l 643 124 b 365 -14 585 44 496 -14 m 378 69 b 586 182 481 69 546 117 l 288 500 b 140 290 226 464 140 408 b 378 69 140 172 225 69 "},"ą":{"ha":608,"x_min":0,"x_max":0,"o":"m 490 -231 b 518 -256 507 -231 518 -240 b 483 -279 518 -271 510 -279 b 349 -175 415 -279 349 -250 b 446 17 349 -103 388 -37 b 440 36 442 22 440 29 l 440 97 b 231 -10 392 42 324 -10 b 42 174 125 -10 42 49 b 365 364 42 325 172 364 l 436 364 l 436 397 b 272 586 436 486 392 586 b 124 546 179 586 146 546 b 88 594 100 546 88 574 b 275 665 88 631 186 665 b 526 397 461 665 526 536 l 526 36 b 506 4 526 22 518 11 b 404 -168 449 -44 404 -101 b 490 -231 404 -212 436 -231 m 436 301 l 378 301 b 132 182 250 301 132 289 b 253 67 132 101 185 67 b 436 213 342 67 436 150 "},"≈":{"ha":615,"x_min":0,"x_max":0,"o":"m 221 513 b 119 468 161 513 142 468 b 93 504 101 468 93 489 b 215 586 93 558 171 586 b 397 538 288 586 325 538 b 496 578 460 538 471 578 b 524 544 514 578 524 557 b 406 464 524 486 446 464 b 221 513 332 464 296 513 m 221 231 b 119 186 161 231 142 186 b 93 222 101 186 93 207 b 215 304 93 276 171 304 b 397 256 288 304 325 256 b 496 296 460 256 471 296 b 524 263 514 296 524 275 b 406 182 524 204 446 182 b 221 231 332 182 296 231 "},"å":{"ha":608,"x_min":0,"x_max":0,"o":"m 275 665 b 526 397 461 665 526 536 l 526 36 b 482 0 526 15 508 0 b 440 36 458 0 440 15 l 440 97 b 231 -10 392 42 324 -10 b 42 174 125 -10 42 49 b 365 364 42 325 172 364 l 436 364 l 436 397 b 272 586 436 486 392 586 b 124 546 179 586 146 546 b 88 594 100 546 88 574 b 275 665 88 631 186 665 m 436 301 l 378 301 b 132 182 250 301 132 289 b 253 67 132 101 185 67 b 436 213 342 67 436 150 m 286 1067 b 415 938 354 1067 415 1006 b 286 804 415 868 354 804 b 158 938 217 804 158 868 b 286 1067 158 1004 214 1067 m 368 938 b 288 1018 368 976 331 1018 b 204 938 240 1018 204 976 b 288 850 204 893 242 850 b 368 938 331 850 368 893 "},"↓":{"ha":1071,"x_min":0,"x_max":0,"o":"m 207 226 b 251 268 207 250 229 268 b 274 260 260 268 268 267 l 496 38 l 496 739 b 535 772 496 758 513 772 b 576 739 558 772 576 758 l 576 38 l 797 260 b 819 268 804 267 813 268 b 864 226 843 268 864 247 b 854 203 864 217 861 210 l 565 -89 b 535 -104 556 -99 544 -104 b 506 -89 526 -104 517 -99 l 217 203 b 207 226 210 210 207 217 "},"←":{"ha":1071,"x_min":0,"x_max":0,"o":"m 428 663 b 469 618 449 663 469 642 b 461 596 469 611 468 603 l 239 375 l 940 375 b 974 333 960 375 974 357 b 940 294 974 310 960 294 l 239 294 l 461 72 b 469 50 468 67 469 58 b 428 6 469 28 451 6 b 404 15 418 6 411 8 l 114 304 b 97 333 103 315 97 325 b 114 364 97 343 103 353 l 404 653 b 428 663 411 660 418 663 "},"→":{"ha":1071,"x_min":0,"x_max":0,"o":"m 644 663 b 668 653 653 663 661 660 l 958 364 b 974 333 968 353 974 343 b 958 304 974 325 968 315 l 668 15 b 644 6 661 8 653 6 b 601 50 621 6 601 28 b 610 72 601 58 603 67 l 833 294 l 132 294 b 97 333 111 294 97 310 b 132 375 97 357 111 375 l 833 375 l 610 596 b 601 618 603 603 601 611 b 644 663 601 642 622 663 "},"↑":{"ha":1071,"x_min":0,"x_max":0,"o":"m 207 443 b 217 467 207 451 210 460 l 506 757 b 535 772 517 767 526 772 b 565 757 544 772 556 767 l 854 467 b 864 443 861 460 864 451 b 819 400 864 421 843 400 b 797 408 813 400 804 401 l 576 632 l 576 -71 b 535 -104 576 -90 558 -104 b 496 -71 513 -104 496 -90 l 496 632 l 274 408 b 251 400 268 401 260 400 b 207 443 229 400 207 419 "},"^":{"ha":372,"x_min":0,"x_max":0,"o":"m 42 826 b 29 822 38 825 33 822 b 0 858 14 822 0 839 b 18 889 0 869 6 882 l 163 967 b 186 974 169 971 178 974 b 210 967 194 974 203 971 l 354 889 b 372 857 367 883 372 869 b 344 824 372 839 360 824 b 331 828 340 824 335 826 l 186 904 "},"~":{"ha":557,"x_min":0,"x_max":0,"o":"m 193 347 b 90 303 133 347 114 303 b 64 338 72 303 64 322 b 186 417 64 389 142 417 b 369 369 258 417 297 369 b 467 410 432 369 442 410 b 494 378 485 410 494 390 b 378 299 494 321 418 299 b 193 347 303 299 268 347 "},"*":{"ha":599,"x_min":0,"x_max":0,"o":"m 468 588 b 474 568 472 582 474 575 b 432 529 474 546 453 529 b 406 543 424 529 413 532 l 300 699 l 194 542 b 171 529 189 533 179 529 b 126 567 154 529 126 543 b 135 589 126 575 129 582 l 246 736 l 69 789 b 46 822 53 793 46 807 b 85 863 46 842 61 863 b 94 861 86 863 90 863 l 269 800 l 263 981 b 300 1015 264 1004 281 1015 b 338 981 319 1015 336 1004 l 331 799 l 506 861 b 518 863 510 863 515 863 b 553 821 538 863 553 840 b 529 789 553 806 546 793 l 356 739 "},"@":{"ha":994,"x_min":0,"x_max":0,"o":"m 325 514 b 500 582 325 553 419 582 b 697 404 621 582 697 518 l 697 174 b 775 104 703 132 739 104 b 868 318 853 104 868 228 b 507 707 868 563 753 707 b 142 303 231 707 142 514 b 465 -78 142 106 222 -78 b 661 -35 586 -78 635 -35 b 690 -65 679 -35 690 -54 b 456 -143 690 -104 563 -143 b 74 301 257 -143 74 -7 b 510 775 74 563 201 775 b 938 328 783 775 938 615 b 769 44 938 181 896 44 b 635 135 700 44 646 86 b 464 57 586 85 544 57 b 290 208 369 57 290 97 b 563 365 290 335 396 365 l 622 365 l 622 392 b 486 510 622 472 581 510 b 354 475 396 510 378 475 b 325 514 336 475 325 500 m 625 308 l 568 308 b 368 208 453 308 368 296 b 474 118 368 144 414 118 b 625 232 567 118 625 181 "},"ã":{"ha":608,"x_min":0,"x_max":0,"o":"m 275 665 b 526 397 461 665 526 536 l 526 36 b 482 0 526 15 508 0 b 440 36 458 0 440 15 l 440 97 b 231 -10 392 42 324 -10 b 42 174 125 -10 42 49 b 365 364 42 325 172 364 l 436 364 l 436 397 b 272 586 436 486 392 586 b 124 546 179 586 146 546 b 88 594 100 546 88 574 b 275 665 88 631 186 665 m 436 301 l 378 301 b 132 182 250 301 132 289 b 253 67 132 101 185 67 b 436 213 342 67 436 150 m 199 894 b 96 850 139 894 119 850 b 69 885 78 850 69 869 b 192 964 69 936 147 964 b 375 917 264 964 303 917 b 472 957 438 917 447 957 b 500 925 490 957 500 938 b 383 846 500 868 424 846 b 199 894 308 846 274 894 "},"b":{"ha":672,"x_min":0,"x_max":0,"o":"m 132 1060 b 178 1026 158 1060 178 1046 l 178 560 b 363 665 208 614 271 665 b 611 406 499 665 611 549 l 611 254 b 365 -10 611 117 496 -10 b 175 97 279 -10 204 40 l 175 36 b 132 0 175 18 156 0 b 88 36 107 0 88 18 l 88 1026 b 132 1060 88 1046 107 1060 m 521 406 b 347 582 521 494 443 582 b 178 406 264 582 178 517 l 178 211 b 349 74 178 169 251 74 b 521 254 442 74 521 163 "},"\\":{"ha":481,"x_min":0,"x_max":0,"o":"m 33 997 b 32 1010 32 1001 32 1007 b 71 1047 32 1032 50 1047 b 101 1028 83 1047 96 1042 l 447 46 b 449 35 449 42 449 38 b 411 0 449 15 431 0 b 378 24 397 0 383 7 "},"|":{"ha":281,"x_min":0,"x_max":0,"o":"m 140 1067 b 186 1033 164 1067 186 1051 l 186 6 b 140 -29 186 -12 164 -29 b 94 6 114 -29 94 -12 l 94 1033 b 140 1067 94 1051 114 1067 "},"{":{"ha":431,"x_min":0,"x_max":0,"o":"m 42 535 b 125 603 42 592 125 556 b 99 839 125 629 99 796 b 357 1067 99 960 218 1067 b 404 1025 390 1067 404 1046 b 371 985 404 1006 390 985 b 190 828 275 985 190 914 b 217 596 190 788 217 624 b 167 533 217 563 183 538 b 217 472 185 531 217 507 b 190 189 217 440 190 236 b 371 54 190 83 311 54 b 404 14 397 54 404 31 b 356 -28 404 -14 385 -28 b 99 185 217 -28 99 58 b 125 467 99 231 125 439 b 42 535 125 514 42 475 "},"}":{"ha":431,"x_min":0,"x_max":0,"o":"m 389 535 b 306 467 389 475 306 514 b 332 185 306 439 332 231 b 75 -28 332 58 214 -28 b 26 14 46 -28 26 -14 b 60 54 26 31 33 54 b 240 189 119 54 240 83 b 214 472 240 236 214 440 b 264 533 214 507 246 531 b 214 596 247 538 214 563 b 240 828 214 624 240 788 b 60 985 240 914 156 985 b 26 1025 40 985 26 1006 b 74 1067 26 1046 40 1067 b 332 839 213 1067 332 960 b 306 603 332 796 306 629 b 389 535 306 556 389 592 "},"[":{"ha":421,"x_min":0,"x_max":0,"o":"m 186 54 l 360 54 b 394 13 381 54 394 35 b 360 -29 394 -8 381 -29 l 136 -29 b 94 6 115 -29 94 -17 l 94 1032 b 136 1067 94 1053 114 1067 l 360 1067 b 394 1026 381 1067 394 1046 b 360 983 394 1003 381 983 l 186 983 "},"]":{"ha":421,"x_min":0,"x_max":0,"o":"m 235 983 l 60 983 b 26 1026 40 983 26 1003 b 60 1067 26 1046 39 1067 l 283 1067 b 326 1032 306 1067 326 1053 l 326 6 b 283 -29 326 -17 304 -29 l 60 -29 b 26 13 39 -29 26 -8 b 60 54 26 35 40 54 l 235 54 "},"˘":{"ha":324,"x_min":0,"x_max":0,"o":"m 324 992 b 163 829 324 904 246 829 b 0 992 76 829 0 904 l 61 992 b 163 879 61 928 108 879 b 263 992 215 879 263 928 "},"¦":{"ha":282,"x_min":0,"x_max":0,"o":"m 140 1067 b 186 1033 165 1067 186 1051 l 186 656 b 140 621 186 638 165 621 b 96 656 115 621 96 638 l 96 1033 b 140 1067 96 1051 115 1067 m 140 417 b 186 383 165 417 186 401 l 186 6 b 140 -29 186 -12 165 -29 b 96 6 115 -29 96 -12 l 96 383 b 140 417 96 401 115 417 "},"•":{"ha":432,"x_min":0,"x_max":0,"o":"m 217 561 b 365 417 296 561 365 493 b 217 272 365 339 296 272 b 68 417 136 272 68 339 b 217 561 68 493 136 561 "},"c":{"ha":571,"x_min":0,"x_max":0,"o":"m 333 -10 b 64 254 149 -10 64 103 l 64 403 b 332 665 64 550 147 665 b 528 575 450 665 528 613 b 488 531 528 556 510 531 b 336 582 461 531 438 582 b 154 403 215 582 154 514 l 154 254 b 338 74 154 142 215 74 b 494 126 444 74 467 126 b 536 82 519 126 536 103 b 333 -10 536 44 456 -10 "},"ć":{"ha":571,"x_min":0,"x_max":0,"o":"m 250 825 b 236 821 246 822 240 821 b 200 860 217 821 200 840 b 215 885 200 869 204 879 l 371 969 b 382 974 374 972 379 974 b 415 935 403 974 415 953 b 399 904 415 922 410 910 m 333 -10 b 64 254 149 -10 64 103 l 64 403 b 332 665 64 550 147 665 b 528 575 450 665 528 613 b 488 531 528 556 510 531 b 336 582 461 531 438 582 b 154 403 215 582 154 514 l 154 254 b 338 74 154 142 215 74 b 494 126 444 74 467 126 b 536 82 519 126 536 103 b 333 -10 536 44 456 -10 "},"ˇ":{"ha":393,"x_min":0,"x_max":0,"o":"m 197 879 l 335 1007 b 356 1015 342 1014 349 1015 b 382 985 371 1015 382 1000 b 365 953 382 974 376 963 l 225 828 b 197 814 215 819 206 814 b 169 828 188 814 178 819 l 29 953 b 11 985 17 963 11 974 b 38 1015 11 1000 22 1015 b 58 1007 44 1015 51 1014 "},"č":{"ha":571,"x_min":0,"x_max":0,"o":"m 301 879 l 439 1007 b 460 1015 446 1014 453 1015 b 486 985 475 1015 486 1000 b 469 953 486 974 481 963 l 329 828 b 301 814 319 819 310 814 b 274 828 292 814 282 819 l 133 953 b 115 985 121 963 115 974 b 142 1015 115 1000 126 1015 b 163 1007 149 1015 156 1014 m 333 -10 b 64 254 149 -10 64 103 l 64 403 b 332 665 64 550 147 665 b 528 575 450 665 528 613 b 488 531 528 556 510 531 b 336 582 461 531 438 582 b 154 403 215 582 154 514 l 154 254 b 338 74 154 142 215 74 b 494 126 444 74 467 126 b 536 82 519 126 536 103 b 333 -10 536 44 456 -10 "},"ç":{"ha":571,"x_min":0,"x_max":0,"o":"m 536 82 b 358 -8 536 47 467 -1 l 338 -85 b 471 -185 432 -87 471 -135 b 347 -292 471 -235 432 -292 b 239 -256 310 -292 239 -281 b 261 -222 239 -247 247 -222 b 339 -242 272 -222 293 -242 b 413 -187 392 -242 413 -217 b 325 -129 413 -150 379 -133 l 272 -125 l 303 -8 b 64 254 139 3 64 111 l 64 403 b 332 665 64 550 147 665 b 528 575 450 665 528 613 b 488 531 528 556 510 531 b 336 582 461 531 438 582 b 154 403 215 582 154 514 l 154 254 b 338 74 154 142 215 74 b 494 126 444 74 467 126 b 536 82 519 126 536 103 "},"ĉ":{"ha":571,"x_min":0,"x_max":0,"o":"m 160 826 b 147 822 156 825 151 822 b 118 858 132 822 118 839 b 136 889 118 869 124 882 l 281 967 b 304 974 288 971 296 974 b 328 967 313 974 321 971 l 472 889 b 490 857 485 883 490 869 b 463 824 490 839 478 824 b 449 828 458 824 453 826 l 304 904 m 333 -10 b 64 254 149 -10 64 103 l 64 403 b 332 665 64 550 147 665 b 528 575 450 665 528 613 b 488 531 528 556 510 531 b 336 582 461 531 438 582 b 154 403 215 582 154 514 l 154 254 b 338 74 154 142 215 74 b 494 126 444 74 467 126 b 536 82 519 126 536 103 b 333 -10 536 44 456 -10 "},"ċ":{"ha":571,"x_min":0,"x_max":0,"o":"m 333 -10 b 64 254 149 -10 64 103 l 64 403 b 332 665 64 550 147 665 b 528 575 450 665 528 613 b 488 531 528 556 510 531 b 336 582 461 531 438 582 b 154 403 215 582 154 514 l 154 254 b 338 74 154 142 215 74 b 494 126 444 74 467 126 b 536 82 519 126 536 103 b 333 -10 536 44 456 -10 m 303 925 b 353 875 331 925 353 904 b 303 824 353 847 331 824 b 251 875 274 824 251 847 b 303 925 251 904 274 925 "},"¸":{"ha":232,"x_min":0,"x_max":0,"o":"m 99 -85 b 232 -185 193 -87 232 -135 b 108 -292 232 -235 193 -292 b 0 -256 71 -292 0 -281 b 22 -222 0 -247 8 -222 b 100 -242 33 -222 54 -242 b 174 -187 153 -242 174 -217 b 86 -129 174 -150 140 -133 l 33 -125 l 69 13 l 125 13 "},"¢":{"ha":574,"x_min":0,"x_max":0,"o":"m 297 964 b 332 933 315 964 332 950 l 332 785 b 518 697 435 782 518 740 b 478 654 518 676 500 654 b 332 704 454 654 431 701 l 332 317 b 478 368 432 319 451 368 b 521 325 501 368 521 346 b 332 235 521 279 428 239 l 332 88 b 297 56 332 71 315 56 b 264 88 279 56 264 71 l 264 238 b 49 497 118 257 49 363 l 49 524 b 264 783 49 656 115 763 l 264 933 b 297 964 264 950 279 964 m 132 497 b 264 319 132 401 174 338 l 264 701 b 132 524 174 682 132 618 "},"ˆ":{"ha":372,"x_min":0,"x_max":0,"o":"m 42 826 b 29 822 38 825 33 822 b 0 858 14 822 0 839 b 18 889 0 869 6 882 l 163 967 b 186 974 169 971 178 974 b 210 967 194 974 203 971 l 354 889 b 372 857 367 883 372 869 b 344 824 372 839 360 824 b 331 828 340 824 335 826 l 186 904 "},":":{"ha":282,"x_min":0,"x_max":0,"o":"m 142 121 b 204 56 175 121 204 92 b 142 -8 204 22 175 -8 b 78 56 104 -8 78 22 b 142 121 78 92 104 121 m 142 588 b 204 522 175 588 204 558 b 142 458 204 489 175 458 b 78 522 104 458 78 489 b 142 588 78 558 104 588 "},",":{"ha":238,"x_min":0,"x_max":0,"o":"m 118 121 b 182 56 150 121 182 96 b 129 -100 182 44 181 29 b 101 -117 124 -111 113 -117 b 68 -90 86 -117 68 -107 b 69 -76 68 -85 68 -82 l 97 -4 b 56 56 72 6 56 29 b 118 121 56 92 83 121 "},"":{"ha":303,"x_min":0,"x_max":0,"o":"m 85 -215 b 69 -219 79 -218 75 -219 b 35 -181 50 -219 35 -200 b 50 -156 35 -171 39 -161 l 204 -69 b 217 -67 208 -68 213 -67 b 250 -106 236 -67 250 -87 b 232 -136 250 -118 244 -129 "},"©":{"ha":997,"x_min":0,"x_max":0,"o":"m 72 497 b 503 951 72 807 310 951 b 925 503 699 951 925 804 b 494 49 925 193 688 49 b 72 497 299 49 72 196 m 864 503 b 503 890 864 728 721 890 b 133 497 288 890 133 731 b 494 110 133 272 276 110 b 864 503 710 110 864 269 m 582 639 b 503 725 581 668 572 725 b 421 619 450 725 421 692 l 421 400 b 503 294 421 328 450 294 b 582 383 572 294 578 349 b 614 407 583 400 596 407 b 647 371 638 407 647 399 b 499 235 647 293 589 235 b 354 400 421 235 354 279 l 354 619 b 500 785 354 740 421 785 b 647 653 590 785 647 728 b 615 615 647 622 638 615 b 582 639 594 615 582 624 "},"¤":{"ha":664,"x_min":0,"x_max":0,"o":"m 333 906 b 486 850 390 906 443 885 l 524 888 b 542 894 528 892 535 894 b 571 865 557 894 571 881 b 563 847 571 858 568 853 l 525 810 b 581 656 560 768 581 714 b 524 501 581 599 558 544 l 563 463 b 571 446 568 457 571 451 b 542 417 571 432 557 417 b 525 424 536 417 529 418 l 486 461 b 333 403 443 425 390 403 b 175 465 274 403 219 426 l 132 424 b 115 417 126 418 121 417 b 86 446 100 417 86 431 b 93 463 86 451 88 457 l 138 507 b 88 656 106 549 88 600 b 138 804 88 710 106 763 l 101 840 b 93 858 96 844 93 851 b 124 888 93 874 108 888 b 140 881 129 888 136 885 l 175 846 b 333 906 218 883 274 906 m 514 656 b 333 838 514 749 433 838 b 156 656 233 838 156 749 b 333 471 156 561 235 471 b 514 656 432 471 514 561 "},"d":{"ha":672,"x_min":0,"x_max":0,"o":"m 542 1060 b 585 1026 567 1060 585 1046 l 585 36 b 542 0 585 18 567 0 b 499 36 518 0 499 18 l 499 97 b 308 -10 468 40 394 -10 b 63 254 176 -10 63 117 l 63 406 b 311 665 63 549 175 665 b 494 560 403 665 465 614 l 494 1026 b 542 1060 494 1046 515 1060 m 153 254 b 325 74 153 163 232 74 b 494 211 422 74 494 169 l 494 406 b 326 582 494 517 410 582 b 153 406 231 582 153 494 "},"†":{"ha":575,"x_min":0,"x_max":0,"o":"m 31 631 b 65 671 31 653 44 669 l 242 663 l 242 982 b 288 1015 242 1000 261 1015 b 333 982 310 1015 333 1000 l 333 663 l 510 671 b 544 631 526 671 544 653 b 510 593 544 608 526 593 l 333 601 l 333 8 b 288 -29 333 -11 310 -29 b 242 8 261 -29 242 -11 l 242 601 l 65 593 b 31 631 44 594 31 608 "},"‡":{"ha":610,"x_min":0,"x_max":0,"o":"m 49 335 b 82 374 49 357 63 372 l 258 365 l 258 601 l 82 593 b 49 631 63 594 49 608 b 82 671 49 653 63 669 l 258 663 l 258 982 b 304 1015 258 1000 279 1015 b 350 982 328 1015 350 1000 l 350 663 l 526 671 b 563 631 544 669 563 653 b 526 593 563 608 544 594 l 350 601 l 350 365 l 526 374 b 563 335 544 372 563 357 b 526 296 563 313 544 297 l 350 304 l 350 8 b 304 -29 350 -11 328 -29 b 258 8 279 -29 258 -11 l 258 304 l 82 296 b 49 335 63 297 49 313 "},"ď":{"ha":672,"x_min":0,"x_max":0,"o":"m 731 1029 b 794 965 765 1029 794 1000 b 738 808 794 944 775 890 b 713 792 733 797 722 792 b 679 821 697 792 679 803 b 682 833 679 825 679 829 l 708 906 b 667 965 683 914 667 939 b 731 1029 667 1000 694 1029 m 542 1060 b 585 1026 567 1060 585 1046 l 585 36 b 542 0 585 18 567 0 b 499 36 518 0 499 18 l 499 97 b 308 -10 468 40 394 -10 b 63 254 176 -10 63 117 l 63 406 b 311 665 63 549 175 665 b 494 560 403 665 465 614 l 494 1026 b 542 1060 494 1046 515 1060 m 153 254 b 325 74 153 163 232 74 b 494 211 422 74 494 169 l 494 406 b 326 582 494 517 410 582 b 153 406 231 582 153 494 "},"đ":{"ha":672,"x_min":0,"x_max":0,"o":"m 542 1060 b 585 1026 567 1060 585 1046 l 585 871 l 653 871 b 685 833 671 871 685 853 b 653 797 685 813 671 797 l 585 797 l 585 36 b 542 0 585 18 567 0 b 499 36 518 0 499 18 l 499 97 b 308 -10 468 40 394 -10 b 63 254 176 -10 63 117 l 63 406 b 311 665 63 549 175 665 b 494 560 403 665 465 614 l 494 797 l 331 797 b 299 833 311 797 299 814 b 331 871 299 853 311 871 l 494 871 l 494 1026 b 542 1060 494 1046 515 1060 m 153 254 b 325 74 153 163 232 74 b 494 211 422 74 494 169 l 494 406 b 326 582 494 517 410 582 b 153 406 231 582 153 494 "},"°":{"ha":582,"x_min":0,"x_max":0,"o":"m 290 1067 b 538 817 422 1067 538 954 b 290 564 538 685 422 564 b 44 817 158 564 44 683 b 290 1067 44 950 156 1067 m 471 817 b 290 999 471 910 390 999 b 113 817 190 999 113 910 b 290 632 113 722 192 632 b 471 817 389 632 471 722 "},"¨":{"ha":272,"x_min":0,"x_max":0,"o":"m 51 925 b 101 875 79 925 101 904 b 51 824 101 847 79 824 b 0 875 22 824 0 847 b 51 925 0 904 22 925 m 222 925 b 272 875 251 925 272 904 b 222 824 272 847 251 824 b 171 875 193 824 171 847 b 222 925 171 904 193 925 "},"÷":{"ha":626,"x_min":0,"x_max":0,"o":"m 57 333 b 92 372 57 356 71 372 l 535 372 b 571 333 553 372 571 356 b 535 294 571 310 553 294 l 92 294 b 57 333 71 294 57 310 m 308 174 b 376 107 344 174 376 143 b 308 39 376 71 344 39 b 240 107 272 39 240 71 b 308 174 240 143 272 174 m 308 628 b 376 561 344 628 376 597 b 308 494 376 524 344 494 b 240 561 272 494 240 524 b 308 628 240 597 272 628 "},"$":{"ha":693,"x_min":0,"x_max":0,"o":"m 332 4 b 54 154 157 6 54 104 b 96 206 54 176 75 206 b 332 92 129 206 160 96 l 332 496 b 79 758 210 539 79 581 b 332 997 79 933 211 989 l 332 1040 b 364 1067 332 1054 346 1067 b 396 1040 379 1067 396 1054 l 396 1000 b 607 915 496 996 607 961 b 567 864 607 897 592 864 b 396 915 542 864 500 910 l 396 571 b 632 281 511 529 632 471 b 396 8 632 113 535 26 l 396 -46 b 364 -72 396 -60 379 -72 b 332 -46 346 -72 332 -60 m 543 272 b 392 474 543 393 475 439 l 392 94 b 543 272 489 110 543 169 m 167 767 b 335 592 167 658 244 624 l 335 914 b 167 767 247 907 167 869 "},"˙":{"ha":281,"x_min":0,"x_max":0,"o":"m 149 925 b 199 875 176 925 199 904 b 149 824 199 847 176 824 b 97 875 119 824 97 847 b 149 925 97 904 119 925 "},"ı":{"ha":265,"x_min":0,"x_max":0,"o":"m 132 657 b 178 624 157 657 178 643 l 178 36 b 132 0 178 18 157 0 b 88 36 107 0 88 18 l 88 624 b 132 657 88 643 107 657 "},"ȷ":{"ha":265,"x_min":0,"x_max":0,"o":"m 132 657 b 178 624 157 657 178 643 l 178 -60 b -6 -322 178 -214 126 -322 b -51 -282 -39 -322 -51 -301 b -12 -240 -51 -257 -35 -240 b 88 -60 76 -240 88 -164 l 88 624 b 132 657 88 643 106 657 "},"e":{"ha":636,"x_min":0,"x_max":0,"o":"m 328 665 b 588 413 465 665 588 560 b 467 301 588 306 528 301 l 153 301 l 153 250 b 364 69 153 139 242 69 b 531 125 474 69 500 125 b 569 82 553 125 569 99 b 361 -10 569 49 490 -10 b 63 254 186 -10 63 96 l 63 410 b 328 665 63 549 182 665 m 431 368 b 500 415 486 368 500 376 b 326 590 500 504 429 590 b 153 421 231 590 153 514 l 153 368 "},"é":{"ha":636,"x_min":0,"x_max":0,"o":"m 271 825 b 257 821 267 822 261 821 b 221 860 238 821 221 840 b 236 885 221 869 225 879 l 392 969 b 403 974 394 972 400 974 b 436 935 424 974 436 953 b 419 904 436 922 431 910 m 328 665 b 588 413 465 665 588 560 b 467 301 588 306 528 301 l 153 301 l 153 250 b 364 69 153 139 242 69 b 531 125 474 69 500 125 b 569 82 553 125 569 99 b 361 -10 569 49 490 -10 b 63 254 186 -10 63 96 l 63 410 b 328 665 63 549 182 665 m 431 368 b 500 415 486 368 500 376 b 326 590 500 504 429 590 b 153 421 231 590 153 514 l 153 368 "},"ĕ":{"ha":636,"x_min":0,"x_max":0,"o":"m 328 665 b 588 413 465 665 588 560 b 467 301 588 306 528 301 l 153 301 l 153 250 b 364 69 153 139 242 69 b 531 125 474 69 500 125 b 569 82 553 125 569 99 b 361 -10 569 49 490 -10 b 63 254 186 -10 63 96 l 63 410 b 328 665 63 549 182 665 m 431 368 b 500 415 486 368 500 376 b 326 590 500 504 429 590 b 153 421 231 590 153 514 l 153 368 m 488 992 b 326 829 488 904 410 829 b 164 992 240 829 164 904 l 225 992 b 326 879 225 928 272 879 b 426 992 379 879 426 928 "},"ě":{"ha":636,"x_min":0,"x_max":0,"o":"m 326 879 l 464 1007 b 485 1015 471 1014 478 1015 b 511 985 500 1015 511 1000 b 494 953 511 974 506 963 l 354 828 b 326 814 344 819 335 814 b 299 828 317 814 307 819 l 158 953 b 140 985 146 963 140 974 b 167 1015 140 1000 151 1015 b 188 1007 174 1015 181 1014 m 328 665 b 588 413 465 665 588 560 b 467 301 588 306 528 301 l 153 301 l 153 250 b 364 69 153 139 242 69 b 531 125 474 69 500 125 b 569 82 553 125 569 99 b 361 -10 569 49 490 -10 b 63 254 186 -10 63 96 l 63 410 b 328 665 63 549 182 665 m 431 368 b 500 415 486 368 500 376 b 326 590 500 504 429 590 b 153 421 231 590 153 514 l 153 368 "},"ê":{"ha":636,"x_min":0,"x_max":0,"o":"m 182 826 b 169 822 178 825 174 822 b 140 858 154 822 140 839 b 158 889 140 869 146 882 l 303 967 b 326 974 310 971 318 974 b 350 967 335 974 343 971 l 494 889 b 513 857 507 883 513 869 b 485 824 513 839 500 824 b 471 828 481 824 475 826 l 326 904 m 328 665 b 588 413 465 665 588 560 b 467 301 588 306 528 301 l 153 301 l 153 250 b 364 69 153 139 242 69 b 531 125 474 69 500 125 b 569 82 553 125 569 99 b 361 -10 569 49 490 -10 b 63 254 186 -10 63 96 l 63 410 b 328 665 63 549 182 665 m 431 368 b 500 415 486 368 500 376 b 326 590 500 504 429 590 b 153 421 231 590 153 514 l 153 368 "},"ë":{"ha":636,"x_min":0,"x_max":0,"o":"m 242 925 b 292 875 269 925 292 904 b 242 824 292 847 269 824 b 190 875 213 824 190 847 b 242 925 190 904 213 925 m 413 925 b 463 875 442 925 463 904 b 413 824 463 847 442 824 b 361 875 383 824 361 847 b 413 925 361 904 383 925 m 328 665 b 588 413 465 665 588 560 b 467 301 588 306 528 301 l 153 301 l 153 250 b 364 69 153 139 242 69 b 531 125 474 69 500 125 b 569 82 553 125 569 99 b 361 -10 569 49 490 -10 b 63 254 186 -10 63 96 l 63 410 b 328 665 63 549 182 665 m 431 368 b 500 415 486 368 500 376 b 326 590 500 504 429 590 b 153 421 231 590 153 514 l 153 368 "},"ė":{"ha":636,"x_min":0,"x_max":0,"o":"m 328 665 b 588 413 465 665 588 560 b 467 301 588 306 528 301 l 153 301 l 153 250 b 364 69 153 139 242 69 b 531 125 474 69 500 125 b 569 82 553 125 569 99 b 361 -10 569 49 490 -10 b 63 254 186 -10 63 96 l 63 410 b 328 665 63 549 182 665 m 431 368 b 500 415 486 368 500 376 b 326 590 500 504 429 590 b 153 421 231 590 153 514 l 153 368 m 328 925 b 378 875 356 925 378 904 b 328 824 378 847 356 824 b 276 875 299 824 276 847 b 328 925 276 904 299 925 "},"è":{"ha":636,"x_min":0,"x_max":0,"o":"m 328 665 b 588 413 465 665 588 560 b 467 301 588 306 528 301 l 153 301 l 153 250 b 364 69 153 139 242 69 b 531 125 474 69 500 125 b 569 82 553 125 569 99 b 361 -10 569 49 490 -10 b 63 254 186 -10 63 96 l 63 410 b 328 665 63 549 182 665 m 431 368 b 500 415 486 368 500 376 b 326 590 500 504 429 590 b 153 421 231 590 153 514 l 153 368 m 232 904 b 214 935 219 910 214 922 b 247 974 214 953 228 974 b 260 969 250 974 256 972 l 414 885 b 429 860 425 879 429 869 b 393 821 429 840 413 821 b 379 825 389 821 383 822 "},"₈":{"ha":444,"x_min":0,"x_max":0,"o":"m 222 524 b 378 397 313 524 378 490 b 306 285 378 336 349 300 b 393 151 358 267 393 226 l 393 143 b 222 -4 393 38 319 -4 b 50 143 126 -4 50 38 l 50 151 b 139 285 50 226 85 267 b 67 397 96 300 67 336 b 222 524 67 490 133 524 m 325 163 b 222 256 325 226 286 256 b 121 163 158 256 121 226 l 121 150 b 222 54 121 85 160 54 b 325 150 288 54 325 85 m 222 465 b 135 389 168 465 135 443 b 222 314 135 336 168 314 b 310 389 278 314 310 336 b 222 465 310 443 278 465 "},"⁸":{"ha":444,"x_min":0,"x_max":0,"o":"m 222 1015 b 378 889 313 1015 378 982 b 306 778 378 828 349 793 b 393 644 358 758 393 718 l 393 635 b 222 488 393 529 319 488 b 50 635 126 488 50 529 l 50 644 b 139 778 50 718 85 758 b 67 889 96 793 67 828 b 222 1015 67 982 133 1015 m 325 654 b 222 747 325 718 286 747 b 121 654 158 747 121 718 l 121 642 b 222 546 121 576 160 546 b 325 642 288 546 325 578 m 222 957 b 135 882 168 957 135 935 b 222 807 135 828 168 807 b 310 882 278 807 310 828 b 222 957 310 935 278 957 "},"…":{"ha":740,"x_min":0,"x_max":0,"o":"m 119 121 b 182 56 153 121 182 92 b 119 -8 182 22 153 -8 b 56 56 82 -8 56 22 b 119 121 56 92 82 121 m 372 121 b 435 56 406 121 435 92 b 372 -8 435 22 406 -8 b 308 56 335 -8 308 22 b 372 121 308 92 335 121 m 624 121 b 686 56 657 121 686 92 b 624 -8 686 22 657 -8 b 560 56 586 -8 560 22 b 624 121 560 92 586 121 "},"ē":{"ha":636,"x_min":0,"x_max":0,"o":"m 328 665 b 588 413 465 665 588 560 b 467 301 588 306 528 301 l 153 301 l 153 250 b 364 69 153 139 242 69 b 531 125 474 69 500 125 b 569 82 553 125 569 99 b 361 -10 569 49 490 -10 b 63 254 186 -10 63 96 l 63 410 b 328 665 63 549 182 665 m 431 368 b 500 415 486 368 500 376 b 326 590 500 504 429 590 b 153 421 231 590 153 514 l 153 368 m 143 917 b 178 953 143 938 157 953 l 476 953 b 511 917 493 953 511 938 b 476 882 511 897 493 882 l 178 882 b 143 917 157 882 143 897 "},"—":{"ha":1047,"x_min":0,"x_max":0,"o":"m 72 333 b 107 375 72 357 86 375 l 940 375 b 976 333 958 375 976 357 b 940 294 976 310 958 294 l 107 294 b 72 333 86 294 72 310 "},"–":{"ha":657,"x_min":0,"x_max":0,"o":"m 72 333 b 107 375 72 357 86 375 l 551 375 b 586 333 569 375 586 357 b 551 294 586 310 569 294 l 107 294 b 72 333 86 294 72 310 "},"ŋ":{"ha":689,"x_min":0,"x_max":0,"o":"m 360 665 b 607 406 493 665 607 549 l 607 -60 b 424 -322 607 -214 556 -322 b 378 -282 390 -322 378 -301 b 417 -240 378 -257 394 -240 b 517 -60 504 -240 517 -164 l 517 406 b 343 582 517 494 439 582 b 178 406 261 582 178 517 l 178 36 b 132 0 178 18 157 0 b 88 36 106 0 88 18 l 88 624 b 132 657 88 643 106 657 b 174 624 154 657 174 643 l 174 560 b 360 665 203 614 267 665 "},"ę":{"ha":636,"x_min":0,"x_max":0,"o":"m 328 665 b 588 413 465 665 588 560 b 467 301 588 306 528 301 l 153 301 l 153 250 b 364 69 153 139 242 69 b 531 125 474 69 500 125 b 569 82 553 125 569 99 b 508 21 569 64 547 40 b 418 -142 457 -26 418 -79 b 504 -204 418 -186 450 -204 b 532 -229 521 -204 532 -214 b 497 -253 532 -244 524 -253 b 363 -149 429 -253 363 -224 b 415 -6 363 -97 382 -49 b 361 -10 399 -8 381 -10 b 63 254 186 -10 63 96 l 63 410 b 328 665 63 549 182 665 m 431 368 b 500 415 486 368 500 376 b 326 590 500 504 429 590 b 153 421 231 590 153 514 l 153 368 "},"=":{"ha":603,"x_min":0,"x_max":0,"o":"m 92 231 b 125 271 92 253 106 271 l 476 271 b 511 231 494 271 511 253 b 476 190 511 207 494 190 l 125 190 b 92 231 106 190 92 207 m 92 513 b 125 553 92 535 106 553 l 476 553 b 511 513 494 553 511 535 b 476 472 511 489 494 472 l 125 472 b 92 513 106 472 92 489 "},"℮":{"ha":754,"x_min":0,"x_max":0,"o":"m 390 665 b 690 413 550 665 690 560 b 571 306 690 308 631 306 l 225 306 l 225 254 b 424 63 225 136 299 63 b 640 125 581 63 607 125 b 672 82 657 125 672 99 b 422 -10 672 49 578 -10 b 72 292 217 -10 72 111 l 72 371 b 390 665 72 529 218 665 m 482 365 b 551 411 538 365 551 372 b 389 599 551 514 489 599 b 225 418 294 599 225 524 l 225 365 "},"ð":{"ha":669,"x_min":0,"x_max":0,"o":"m 478 896 b 590 500 544 797 590 658 l 590 254 b 325 -10 590 115 467 -10 b 61 254 183 -10 61 115 l 61 406 b 307 665 61 544 172 665 b 500 550 388 665 475 621 b 401 850 490 681 451 781 l 285 783 b 271 779 281 781 276 779 b 235 819 253 779 235 801 b 250 844 235 829 240 839 l 357 907 b 211 978 311 954 258 976 b 188 1014 199 983 188 996 b 239 1060 188 1033 200 1060 b 436 953 301 1060 374 1024 l 538 1011 b 550 1015 540 1014 544 1015 b 586 976 568 1015 586 996 b 571 951 586 967 582 957 m 151 254 b 325 74 151 161 229 74 b 500 254 422 74 500 161 l 500 410 b 325 582 500 500 418 582 b 151 406 228 582 151 494 "},"!":{"ha":285,"x_min":0,"x_max":0,"o":"m 194 979 b 179 261 194 751 179 489 b 142 229 179 239 157 229 b 106 261 124 229 106 239 b 89 979 106 489 89 751 b 142 1033 89 1014 113 1033 b 194 979 171 1033 194 1014 m 143 121 b 206 56 178 121 206 92 b 143 -8 206 22 178 -8 b 79 56 106 -8 79 22 b 143 121 79 92 106 121 "},"¡":{"ha":283,"x_min":0,"x_max":0,"o":"m 89 46 b 106 764 89 274 106 536 b 140 796 106 786 125 796 b 178 764 158 796 178 786 b 194 46 178 536 194 274 b 140 -8 194 11 171 -8 b 89 46 111 -8 89 11 m 142 904 b 78 969 106 904 78 933 b 142 1033 78 1003 106 1033 b 204 969 176 1033 204 1003 b 142 904 204 933 176 904 "},"f":{"ha":424,"x_min":0,"x_max":0,"o":"m 178 657 l 376 657 b 408 621 396 657 408 639 b 376 582 408 600 396 582 l 178 582 l 178 35 b 131 0 178 14 156 0 b 88 35 107 0 88 14 l 88 804 b 335 1060 88 944 201 1060 l 369 1060 b 408 1018 393 1060 408 1040 b 369 978 408 997 393 978 l 346 978 b 178 811 250 978 179 900 "},"ﬁ":{"ha":703,"x_min":0,"x_max":0,"o":"m 571 657 b 617 624 596 657 617 643 l 617 36 b 571 0 617 18 596 0 b 526 36 546 0 526 18 l 526 624 b 571 657 526 643 546 657 m 381 978 b 178 797 229 978 178 875 l 178 657 l 354 657 b 386 621 374 657 386 639 b 354 582 386 600 374 582 l 178 582 l 178 35 b 131 0 178 14 156 0 b 88 35 107 0 88 14 l 88 794 b 376 1060 88 926 189 1060 b 590 974 479 1060 590 1021 b 554 924 590 956 574 924 b 381 978 529 924 494 978 "},"⅝":{"ha":1039,"x_min":0,"x_max":0,"o":"m 821 524 b 976 397 911 524 976 490 b 904 285 976 336 947 300 b 992 151 957 267 992 226 l 992 143 b 821 -4 992 38 918 -4 b 649 143 725 -4 649 38 l 649 151 b 738 285 649 226 683 267 b 665 397 694 300 665 336 b 821 524 665 490 732 524 m 924 163 b 821 256 924 226 885 256 b 719 163 757 256 719 226 l 719 150 b 821 54 719 85 758 54 b 924 150 886 54 924 85 m 821 465 b 733 389 767 465 733 443 b 821 314 733 336 767 314 b 908 389 876 314 908 336 b 821 465 908 443 876 465 m 800 1068 b 839 1031 818 1068 839 1053 b 835 1013 839 1024 838 1018 l 308 -17 b 275 -37 301 -31 289 -37 b 239 -3 256 -37 239 -21 b 243 14 239 3 240 8 l 772 1051 b 800 1068 778 1064 789 1068 m 213 807 b 385 658 310 807 385 767 l 385 644 b 214 488 385 531 308 488 b 40 610 103 488 40 549 b 76 646 40 638 53 646 b 111 618 104 646 111 635 b 208 550 113 575 146 550 b 314 644 275 550 314 578 l 314 658 b 213 750 314 721 276 750 l 100 750 b 68 776 72 750 68 765 b 69 806 68 786 68 794 l 88 992 b 104 1015 89 1007 93 1015 l 333 1015 b 356 983 349 1015 356 1000 b 333 953 356 968 349 953 l 147 953 l 135 807 "},"₅":{"ha":425,"x_min":0,"x_max":0,"o":"m 211 315 b 383 167 308 315 383 275 l 383 151 b 213 -4 383 39 307 -4 b 39 118 101 -4 39 56 b 75 154 39 146 51 154 b 110 126 103 154 110 143 b 207 58 111 82 144 58 b 313 151 274 58 313 86 l 313 167 b 211 258 313 228 275 258 l 99 258 b 67 285 71 258 67 274 b 68 314 67 294 67 301 l 86 500 b 103 524 88 514 92 524 l 332 524 b 354 492 347 524 354 508 b 332 461 354 476 347 461 l 146 461 l 133 315 "},"⁵":{"ha":425,"x_min":0,"x_max":0,"o":"m 211 807 b 383 658 308 807 383 767 l 383 644 b 213 488 383 531 307 488 b 39 610 101 488 39 549 b 75 646 39 638 51 646 b 110 618 103 646 110 635 b 207 550 111 575 144 550 b 313 644 274 550 313 578 l 313 658 b 211 750 313 721 275 750 l 99 750 b 67 776 71 750 67 765 b 68 806 67 786 67 794 l 86 992 b 103 1015 88 1007 92 1015 l 332 1015 b 354 983 347 1015 354 1000 b 332 953 354 968 347 953 l 146 953 l 133 807 "},"ﬂ":{"ha":715,"x_min":0,"x_max":0,"o":"m 526 932 b 385 986 490 968 436 986 b 178 797 281 986 178 915 l 178 657 l 354 657 b 386 621 374 657 386 639 b 354 582 386 600 374 582 l 178 582 l 178 35 b 131 0 178 14 156 0 b 88 35 107 0 88 14 l 88 794 b 388 1060 88 961 233 1060 b 617 965 469 1060 563 1031 l 617 36 b 571 0 617 18 597 0 b 526 36 546 0 526 18 "},"ƒ":{"ha":479,"x_min":0,"x_max":0,"o":"m 226 578 l 426 578 b 456 543 444 578 456 561 b 421 503 456 522 440 503 l 215 503 l 157 83 b -43 -190 138 -60 82 -190 l -74 -190 b -106 -150 -94 -190 -106 -171 b -67 -104 -106 -124 -87 -104 l -37 -104 b 68 83 24 -104 54 -14 l 169 810 b 458 1067 189 950 321 1067 l 486 1067 b 517 1028 504 1067 517 1050 b 479 983 517 1001 500 983 l 453 983 b 260 810 354 983 274 904 "},"₄":{"ha":399,"x_min":0,"x_max":0,"o":"m 242 119 l 43 119 b 18 146 29 119 18 129 b 22 160 18 149 19 154 l 217 503 b 249 524 225 517 238 524 b 283 496 263 524 283 513 b 281 485 283 493 282 488 l 108 185 l 242 185 l 242 292 b 276 314 242 307 258 314 b 311 292 294 314 311 307 l 311 185 l 353 185 b 378 151 368 185 378 168 b 353 119 378 135 365 119 l 311 119 l 311 24 b 276 0 311 8 294 0 b 242 24 258 0 242 8 "},"⁴":{"ha":399,"x_min":0,"x_max":0,"o":"m 242 611 l 43 611 b 18 638 29 611 18 621 b 22 651 18 642 19 646 l 217 996 b 249 1015 225 1008 238 1015 b 283 988 263 1015 283 1004 b 281 976 283 985 282 981 l 108 676 l 242 676 l 242 783 b 276 807 242 799 258 807 b 311 783 294 807 311 799 l 311 676 l 353 676 b 378 643 368 676 378 660 b 353 611 378 628 365 611 l 311 611 l 311 517 b 276 492 311 500 294 492 b 242 517 258 492 242 500 "},"⁄":{"ha":221,"x_min":0,"x_max":0,"o":"m 371 1068 b 410 1031 389 1068 410 1053 b 406 1013 410 1024 408 1018 l -121 -17 b -154 -37 -128 -31 -140 -37 b -190 -3 -174 -37 -190 -21 b -186 14 -190 3 -189 8 l 343 1051 b 371 1068 349 1064 360 1068 "},"g":{"ha":628,"x_min":0,"x_max":0,"o":"m 307 154 b 200 178 268 154 232 163 b 157 124 179 167 157 153 b 589 -125 157 -1 589 128 b 317 -322 589 -256 475 -322 b 35 -137 154 -322 35 -253 b 153 14 35 -57 93 -10 b 76 110 108 29 76 54 b 146 210 76 161 104 188 b 69 385 97 250 69 313 l 69 438 b 308 665 69 571 164 665 b 471 607 374 665 431 643 b 569 694 499 663 538 694 b 611 658 597 694 611 675 b 588 628 611 642 600 631 b 510 568 565 624 535 611 b 549 438 536 533 549 486 l 549 385 b 307 154 549 253 449 154 m 460 438 b 308 597 460 528 404 597 b 157 438 213 597 157 528 l 157 386 b 310 222 157 293 214 222 b 460 385 403 222 460 292 m 501 -128 b 246 -6 501 -12 333 -18 b 122 -129 181 -26 122 -62 b 315 -256 122 -204 196 -256 b 501 -128 432 -256 501 -206 "},"ğ":{"ha":628,"x_min":0,"x_max":0,"o":"m 307 154 b 200 178 268 154 232 163 b 157 124 179 167 157 153 b 589 -125 157 -1 589 128 b 317 -322 589 -256 475 -322 b 35 -137 154 -322 35 -253 b 153 14 35 -57 93 -10 b 76 110 108 29 76 54 b 146 210 76 161 104 188 b 69 385 97 250 69 313 l 69 438 b 308 665 69 571 164 665 b 471 607 374 665 431 643 b 569 694 499 663 538 694 b 611 658 597 694 611 675 b 588 628 611 642 600 631 b 510 568 565 624 535 611 b 549 438 536 533 549 486 l 549 385 b 307 154 549 253 449 154 m 460 438 b 308 597 460 528 404 597 b 157 438 213 597 157 528 l 157 386 b 310 222 157 293 214 222 b 460 385 403 222 460 292 m 501 -128 b 246 -6 501 -12 333 -18 b 122 -129 181 -26 122 -62 b 315 -256 122 -204 196 -256 b 501 -128 432 -256 501 -206 m 485 992 b 324 829 485 904 407 829 b 161 992 238 829 161 904 l 222 992 b 324 879 222 928 269 879 b 424 992 376 879 424 928 "},"ĝ":{"ha":628,"x_min":0,"x_max":0,"o":"m 179 826 b 167 822 175 825 171 822 b 138 858 151 822 138 839 b 156 889 138 869 143 882 l 300 967 b 324 974 307 971 315 974 b 347 967 332 974 340 971 l 492 889 b 510 857 504 883 510 869 b 482 824 510 839 497 824 b 468 828 478 824 472 826 l 324 904 m 307 154 b 200 178 268 154 232 163 b 157 124 179 167 157 153 b 589 -125 157 -1 589 128 b 317 -322 589 -256 475 -322 b 35 -137 154 -322 35 -253 b 153 14 35 -57 93 -10 b 76 110 108 29 76 54 b 146 210 76 161 104 188 b 69 385 97 250 69 313 l 69 438 b 308 665 69 571 164 665 b 471 607 374 665 431 643 b 569 694 499 663 538 694 b 611 658 597 694 611 675 b 588 628 611 642 600 631 b 510 568 565 624 535 611 b 549 438 536 533 549 486 l 549 385 b 307 154 549 253 449 154 m 460 438 b 308 597 460 528 404 597 b 157 438 213 597 157 528 l 157 386 b 310 222 157 293 214 222 b 460 385 403 222 460 292 m 501 -128 b 246 -6 501 -12 333 -18 b 122 -129 181 -26 122 -62 b 315 -256 122 -204 196 -256 b 501 -128 432 -256 501 -206 "},"ģ":{"ha":628,"x_min":0,"x_max":0,"o":"m 263 825 b 249 821 258 822 253 821 b 213 860 229 821 213 840 b 228 885 213 869 217 879 l 383 969 b 394 974 386 972 392 974 b 428 935 415 974 428 953 b 411 904 428 922 422 910 m 307 154 b 200 178 268 154 232 163 b 157 124 179 167 157 153 b 589 -125 157 -1 589 128 b 317 -322 589 -256 475 -322 b 35 -137 154 -322 35 -253 b 153 14 35 -57 93 -10 b 76 110 108 29 76 54 b 146 210 76 161 104 188 b 69 385 97 250 69 313 l 69 438 b 308 665 69 571 164 665 b 471 607 374 665 431 643 b 569 694 499 663 538 694 b 611 658 597 694 611 675 b 588 628 611 642 600 631 b 510 568 565 624 535 611 b 549 438 536 533 549 486 l 549 385 b 307 154 549 253 449 154 m 460 438 b 308 597 460 528 404 597 b 157 438 213 597 157 528 l 157 386 b 310 222 157 293 214 222 b 460 385 403 222 460 292 m 501 -128 b 246 -6 501 -12 333 -18 b 122 -129 181 -26 122 -62 b 315 -256 122 -204 196 -256 b 501 -128 432 -256 501 -206 m 315 1151 b 253 1215 281 1151 253 1181 b 308 1372 253 1236 271 1292 b 333 1389 314 1383 324 1389 b 367 1360 349 1389 367 1378 b 365 1349 367 1356 367 1353 l 338 1276 b 379 1217 363 1267 379 1243 b 315 1151 379 1181 351 1151 "},"ġ":{"ha":628,"x_min":0,"x_max":0,"o":"m 307 154 b 200 178 268 154 232 163 b 157 124 179 167 157 153 b 589 -125 157 -1 589 128 b 317 -322 589 -256 475 -322 b 35 -137 154 -322 35 -253 b 153 14 35 -57 93 -10 b 76 110 108 29 76 54 b 146 210 76 161 104 188 b 69 385 97 250 69 313 l 69 438 b 308 665 69 571 164 665 b 471 607 374 665 431 643 b 569 694 499 663 538 694 b 611 658 597 694 611 675 b 588 628 611 642 600 631 b 510 568 565 624 535 611 b 549 438 536 533 549 486 l 549 385 b 307 154 549 253 449 154 m 460 438 b 308 597 460 528 404 597 b 157 438 213 597 157 528 l 157 386 b 310 222 157 293 214 222 b 460 385 403 222 460 292 m 501 -128 b 246 -6 501 -12 333 -18 b 122 -129 181 -26 122 -62 b 315 -256 122 -204 196 -256 b 501 -128 432 -256 501 -206 m 324 925 b 374 875 351 925 374 904 b 324 824 374 847 351 824 b 272 875 294 824 272 847 b 324 925 272 904 294 925 "},"ß":{"ha":765,"x_min":0,"x_max":0,"o":"m 458 -28 b 311 33 414 -28 311 -21 b 339 76 311 51 321 76 b 447 50 357 76 385 50 b 625 274 556 50 625 128 l 625 297 b 413 531 625 406 565 514 b 365 568 385 533 365 538 b 414 608 365 600 386 604 b 529 792 514 617 529 724 b 376 983 529 908 481 983 b 232 810 267 983 232 899 l 232 35 b 185 0 232 14 210 0 b 142 35 160 0 142 14 l 142 582 l 40 582 b 8 619 21 582 8 599 b 40 657 8 639 21 657 l 142 657 l 142 810 b 372 1067 142 947 206 1067 b 608 815 506 1067 608 989 b 510 581 608 718 575 611 b 711 303 603 563 711 447 l 711 279 b 458 -28 711 71 588 -28 "},"`":{"ha":215,"x_min":0,"x_max":0,"o":"m 18 904 b 0 935 6 910 0 922 b 33 974 0 953 14 974 b 46 969 36 974 42 972 l 200 885 b 215 860 211 879 215 869 b 179 821 215 840 199 821 b 165 825 175 821 169 822 "},">":{"ha":554,"x_min":0,"x_max":0,"o":"m 521 385 b 499 347 521 371 513 356 l 125 100 b 108 94 119 96 114 94 b 65 138 89 94 65 114 b 81 167 65 150 72 161 l 411 385 l 81 604 b 65 633 72 610 65 621 b 108 676 65 657 89 676 b 125 671 114 676 119 675 l 499 424 b 521 385 511 415 521 399 "},"≥":{"ha":604,"x_min":0,"x_max":0,"o":"m 425 486 l 99 664 b 81 693 86 669 81 681 b 124 736 81 715 101 736 b 139 732 128 736 133 735 l 514 525 b 535 486 526 518 535 500 b 514 449 535 472 528 456 l 139 242 b 124 238 133 239 128 238 b 81 281 101 238 81 258 b 99 310 81 293 86 304 m 535 118 b 500 78 535 94 519 78 l 114 78 b 79 118 96 78 79 94 b 114 158 79 140 96 158 l 500 158 b 535 118 519 158 535 140 "},"«":{"ha":565,"x_min":0,"x_max":0,"o":"m 265 163 b 269 147 268 157 269 153 b 217 103 269 126 244 103 b 186 119 203 103 193 107 l 63 347 b 49 385 53 364 49 372 b 63 424 49 397 54 408 l 186 651 b 218 668 192 663 204 668 b 269 624 246 668 269 643 b 265 608 269 618 268 614 l 144 385 m 504 163 b 508 147 507 157 508 153 b 456 103 508 126 483 103 b 425 119 442 103 432 107 l 301 347 b 288 385 292 364 288 372 b 301 424 288 397 292 406 l 425 651 b 457 668 431 663 443 668 b 508 624 485 668 508 643 b 504 608 508 618 507 614 l 383 385 "},"»":{"ha":567,"x_min":0,"x_max":0,"o":"m 421 385 l 300 608 b 296 624 297 614 296 618 b 347 668 296 643 319 668 b 379 651 361 668 374 663 l 503 424 b 518 385 511 407 518 397 b 503 347 518 372 511 363 l 379 119 b 349 103 374 107 363 103 b 296 147 322 103 296 126 b 300 163 296 153 297 157 m 182 385 l 61 608 b 57 624 58 614 57 618 b 108 668 57 643 81 668 b 140 651 122 668 135 663 l 264 424 b 279 385 272 407 279 397 b 264 347 279 372 272 363 l 140 119 b 110 103 135 107 124 103 b 57 147 83 103 57 126 b 61 163 57 153 58 157 "},"‹":{"ha":326,"x_min":0,"x_max":0,"o":"m 265 163 b 269 147 268 157 269 153 b 217 103 269 126 244 103 b 186 119 203 103 193 107 l 63 347 b 49 385 54 364 49 372 b 63 424 49 397 53 406 l 186 651 b 218 668 192 663 204 668 b 269 624 246 668 269 643 b 265 608 269 618 268 614 l 144 385 "},"›":{"ha":326,"x_min":0,"x_max":0,"o":"m 181 385 l 61 608 b 57 624 58 614 57 618 b 107 668 57 643 79 668 b 139 651 121 668 135 663 l 263 424 b 278 385 271 407 278 397 b 263 347 278 372 271 363 l 139 119 b 110 103 133 107 122 103 b 57 147 82 103 57 126 b 61 163 57 153 58 157 "},"h":{"ha":689,"x_min":0,"x_max":0,"o":"m 178 36 b 132 0 178 18 157 0 b 88 36 107 0 88 18 l 88 1026 b 132 1060 88 1046 107 1060 b 178 1026 157 1060 178 1046 l 178 560 b 361 665 207 614 269 665 b 607 406 494 665 607 549 l 607 36 b 561 0 607 13 585 0 b 517 36 540 0 517 13 l 517 406 b 344 582 517 494 439 582 b 178 406 263 582 178 517 "},"ħ":{"ha":689,"x_min":0,"x_max":0,"o":"m 13 840 b 47 876 13 861 26 876 l 88 876 l 88 1026 b 132 1060 88 1046 107 1060 b 178 1026 157 1060 178 1046 l 178 876 l 346 876 b 381 840 363 876 381 861 b 346 806 381 821 363 806 l 178 806 l 178 560 b 361 665 207 614 269 665 b 607 406 494 665 607 549 l 607 36 b 561 0 607 13 585 0 b 517 36 540 0 517 13 l 517 406 b 344 582 517 494 439 582 b 178 406 263 582 178 517 l 178 36 b 132 0 178 18 157 0 b 88 36 107 0 88 18 l 88 806 l 47 806 b 13 840 26 806 13 821 "},"ĥ":{"ha":689,"x_min":0,"x_max":0,"o":"m -11 1181 b -24 1176 -15 1179 -19 1176 b -53 1213 -39 1176 -53 1193 b -35 1243 -53 1224 -47 1236 l 110 1321 b 133 1328 117 1325 125 1328 b 157 1321 142 1328 150 1325 l 301 1243 b 319 1211 314 1238 319 1224 b 292 1178 319 1193 307 1178 b 278 1182 288 1178 282 1181 l 133 1258 m 178 36 b 132 0 178 18 157 0 b 88 36 107 0 88 18 l 88 1026 b 132 1060 88 1046 107 1060 b 178 1026 157 1060 178 1046 l 178 560 b 361 665 207 614 269 665 b 607 406 494 665 607 549 l 607 36 b 561 0 607 13 585 0 b 517 36 540 0 517 13 l 517 406 b 344 582 517 494 439 582 b 178 406 263 582 178 517 "},"˝":{"ha":400,"x_min":0,"x_max":0,"o":"m 53 826 b 36 819 47 821 43 819 b 0 853 18 819 0 836 b 11 872 0 861 3 868 l 144 968 b 160 974 149 972 154 974 b 192 940 178 974 192 956 b 179 915 192 931 188 921 m 261 826 b 244 819 256 821 251 819 b 208 853 226 819 208 836 b 219 872 208 861 211 868 l 353 968 b 368 974 357 972 364 974 b 400 940 386 974 400 956 b 388 915 400 931 396 921 "},"-":{"ha":574,"x_min":0,"x_max":0,"o":"m 72 333 b 107 375 72 357 86 375 l 468 375 b 503 333 486 375 503 357 b 468 294 503 310 486 294 l 107 294 b 72 333 86 294 72 310 "},"i":{"ha":265,"x_min":0,"x_max":0,"o":"m 132 657 b 178 624 157 657 178 643 l 178 36 b 132 0 178 18 157 0 b 88 36 107 0 88 18 l 88 624 b 132 657 88 643 107 657 m 132 967 b 192 910 165 967 192 940 b 132 851 192 879 165 851 b 69 910 97 851 69 879 b 132 967 69 940 97 967 "},"í":{"ha":265,"x_min":0,"x_max":0,"o":"m 81 825 b 67 821 76 822 71 821 b 31 860 47 821 31 840 b 46 885 31 869 35 879 l 201 969 b 213 974 204 972 210 974 b 246 935 233 974 246 953 b 229 904 246 922 240 910 m 132 657 b 178 624 157 657 178 643 l 178 36 b 132 0 178 18 157 0 b 88 36 107 0 88 18 l 88 624 b 132 657 88 643 107 657 "},"ĭ":{"ha":265,"x_min":0,"x_max":0,"o":"m 132 657 b 178 624 157 657 178 643 l 178 36 b 132 0 178 18 157 0 b 88 36 107 0 88 18 l 88 624 b 132 657 88 643 107 657 m 294 992 b 133 829 294 904 217 829 b -29 992 47 829 -29 904 l 32 992 b 133 879 32 928 79 879 b 233 992 186 879 233 928 "},"î":{"ha":265,"x_min":0,"x_max":0,"o":"m -12 826 b -25 822 -17 825 -21 822 b -54 858 -40 822 -54 839 b -36 889 -54 869 -49 882 l 108 967 b 132 974 115 971 124 974 b 156 967 140 974 149 971 l 300 889 b 318 857 313 883 318 869 b 290 824 318 839 306 824 b 276 828 286 824 281 826 l 132 904 m 132 657 b 178 624 157 657 178 643 l 178 36 b 132 0 178 18 157 0 b 88 36 107 0 88 18 l 88 624 b 132 657 88 643 107 657 "},"ï":{"ha":265,"x_min":0,"x_max":0,"o":"m 50 925 b 100 875 78 925 100 904 b 50 824 100 847 78 824 b -1 875 21 824 -1 847 b 50 925 -1 904 21 925 m 221 925 b 271 875 250 925 271 904 b 221 824 271 847 250 824 b 169 875 192 824 169 847 b 221 925 169 904 192 925 m 132 657 b 178 624 157 657 178 643 l 178 36 b 132 0 178 18 157 0 b 88 36 107 0 88 18 l 88 624 b 132 657 88 643 107 657 "},"ì":{"ha":265,"x_min":0,"x_max":0,"o":"m 132 657 b 178 624 157 657 178 643 l 178 36 b 132 0 178 18 157 0 b 88 36 107 0 88 18 l 88 624 b 132 657 88 643 107 657 m 35 904 b 17 935 22 910 17 922 b 50 974 17 953 31 974 b 63 969 53 974 58 972 l 217 885 b 232 860 228 879 232 869 b 196 821 232 840 215 821 b 182 825 192 821 186 822 "},"ĳ":{"ha":521,"x_min":0,"x_max":0,"o":"m 132 657 b 178 624 157 657 178 643 l 178 36 b 132 0 178 18 157 0 b 88 36 107 0 88 18 l 88 624 b 132 657 88 643 107 657 m 132 967 b 192 910 165 967 192 940 b 132 851 192 879 165 851 b 69 910 97 851 69 879 b 132 967 69 940 97 967 m 388 967 b 447 910 421 967 447 940 b 388 851 447 879 421 851 b 325 910 353 851 325 879 b 388 967 325 940 353 967 m 388 657 b 433 624 413 657 433 643 l 433 -60 b 250 -322 433 -214 382 -322 b 204 -282 217 -322 204 -301 b 243 -240 204 -257 221 -240 b 343 -60 332 -240 343 -164 l 343 624 b 388 657 343 643 361 657 "},"ī":{"ha":265,"x_min":0,"x_max":0,"o":"m 132 657 b 178 624 157 657 178 643 l 178 36 b 132 0 178 18 157 0 b 88 36 107 0 88 18 l 88 624 b 132 657 88 643 107 657 m -53 917 b -18 953 -53 938 -39 953 l 281 953 b 315 917 297 953 315 938 b 281 882 315 897 297 882 l -18 882 b -53 917 -39 882 -53 897 "},"∞":{"ha":1194,"x_min":0,"x_max":0,"o":"m 324 567 b 597 401 425 567 533 503 b 872 567 663 503 769 567 b 1117 328 999 567 1117 488 b 871 89 1117 168 999 89 b 597 253 769 89 663 151 b 324 89 533 151 425 89 b 78 328 197 89 78 168 b 324 567 78 488 197 567 m 636 328 b 871 171 688 221 788 171 b 1032 328 958 171 1032 219 b 871 486 1032 436 958 486 b 636 328 788 486 688 435 m 558 328 b 325 486 508 435 408 486 b 163 328 238 486 163 436 b 325 171 163 219 238 171 b 558 328 408 171 508 221 "},"∫":{"ha":467,"x_min":0,"x_max":0,"o":"m 424 1039 b 458 1001 442 1039 458 1024 b 424 963 458 983 446 963 b 279 821 328 963 279 897 l 279 -72 b 47 -278 279 -192 204 -278 b 10 -239 28 -278 10 -261 b 44 -200 10 -221 19 -200 b 188 -72 117 -200 188 -174 l 188 822 b 424 1039 188 939 268 1039 "},"į":{"ha":265,"x_min":0,"x_max":0,"o":"m 140 -228 b 168 -253 157 -228 168 -237 b 133 -276 168 -268 160 -276 b -1 -172 65 -276 -1 -247 b 94 17 -1 -101 36 -36 b 88 36 90 22 88 29 l 88 624 b 132 657 88 643 107 657 b 178 624 157 657 178 643 l 178 36 b 150 3 178 22 167 10 b 54 -165 96 -44 54 -100 b 140 -228 54 -210 86 -228 m 132 967 b 192 910 165 967 192 940 b 132 851 192 879 165 851 b 69 910 97 851 69 879 b 132 967 69 940 97 967 "},"ĩ":{"ha":265,"x_min":0,"x_max":0,"o":"m 132 657 b 178 624 157 657 178 643 l 178 36 b 132 0 178 18 157 0 b 88 36 107 0 88 18 l 88 624 b 132 657 88 643 107 657 m 46 894 b -57 850 -14 894 -33 850 b -83 885 -75 850 -83 869 b 39 964 -83 936 -6 964 b 222 917 111 964 150 917 b 319 957 285 917 294 957 b 347 925 338 957 347 938 b 231 846 347 868 271 846 b 46 894 156 846 121 894 "},"j":{"ha":265,"x_min":0,"x_max":0,"o":"m 132 967 b 192 910 165 967 192 940 b 132 851 192 879 165 851 b 69 910 97 851 69 879 b 132 967 69 940 97 967 m 132 657 b 178 624 157 657 178 643 l 178 -60 b -6 -322 178 -214 126 -322 b -51 -282 -39 -322 -51 -301 b -12 -240 -51 -257 -35 -240 b 88 -60 76 -240 88 -164 l 88 624 b 132 657 88 643 106 657 "},"ĵ":{"ha":265,"x_min":0,"x_max":0,"o":"m 132 657 b 178 624 157 657 178 643 l 178 -60 b -6 -322 178 -214 126 -322 b -51 -282 -39 -322 -51 -301 b -12 -240 -51 -257 -35 -240 b 88 -60 76 -240 88 -164 l 88 624 b 132 657 88 643 106 657 m -11 826 b -24 822 -15 825 -19 822 b -53 858 -39 822 -53 839 b -35 889 -53 869 -47 882 l 110 967 b 133 974 117 971 125 974 b 157 967 142 974 150 971 l 301 889 b 319 857 314 883 319 869 b 292 824 319 839 307 824 b 278 828 288 824 282 826 l 133 904 "},"k":{"ha":633,"x_min":0,"x_max":0,"o":"m 369 413 l 610 61 b 615 42 613 56 615 49 b 567 -4 615 21 590 -4 b 539 13 556 -4 546 1 l 306 356 l 178 243 l 178 36 b 132 0 178 18 158 0 b 88 36 107 0 88 18 l 88 1026 b 132 1060 88 1046 107 1060 b 178 1026 158 1060 178 1046 l 178 350 l 517 651 b 538 660 524 656 531 660 b 583 617 560 660 583 640 b 574 592 583 608 582 599 "},"ķ":{"ha":633,"x_min":0,"x_max":0,"o":"m 260 -215 b 244 -219 254 -218 250 -219 b 210 -181 225 -219 210 -200 b 225 -156 210 -171 214 -161 l 379 -69 b 392 -67 383 -68 388 -67 b 425 -106 411 -67 425 -87 b 407 -136 425 -118 419 -129 m 369 413 l 610 61 b 615 42 613 56 615 49 b 567 -4 615 21 590 -4 b 539 13 556 -4 546 1 l 306 356 l 178 243 l 178 36 b 132 0 178 18 158 0 b 88 36 107 0 88 18 l 88 1026 b 132 1060 88 1046 107 1060 b 178 1026 158 1060 178 1046 l 178 350 l 517 651 b 538 660 524 656 531 660 b 583 617 560 660 583 640 b 574 592 583 608 582 599 "},"ĸ":{"ha":633,"x_min":0,"x_max":0,"o":"m 369 413 l 610 61 b 615 42 613 56 615 49 b 567 -4 615 21 590 -4 b 539 13 556 -4 546 1 l 306 356 l 178 243 l 178 36 b 132 0 178 18 158 0 b 88 36 107 0 88 18 l 88 624 b 132 657 88 643 107 657 b 178 624 158 657 178 643 l 178 350 l 517 651 b 538 660 524 656 531 660 b 583 617 560 660 583 640 b 574 592 583 608 582 599 "},"l":{"ha":288,"x_min":0,"x_max":0,"o":"m 143 1060 b 189 1026 169 1060 189 1046 l 189 36 b 143 0 189 18 169 0 b 99 36 118 0 99 18 l 99 1026 b 143 1060 99 1046 118 1060 "},"ĺ":{"ha":288,"x_min":0,"x_max":0,"o":"m 97 1124 b 83 1119 93 1121 88 1119 b 47 1158 64 1119 47 1139 b 63 1183 47 1168 51 1178 l 218 1268 b 229 1272 221 1271 226 1272 b 263 1233 250 1272 263 1251 b 246 1203 263 1221 257 1208 m 143 1060 b 189 1026 169 1060 189 1046 l 189 36 b 143 0 189 18 169 0 b 99 36 118 0 99 18 l 99 1026 b 143 1060 99 1046 118 1060 "},"ľ":{"ha":288,"x_min":0,"x_max":0,"o":"m 342 1029 b 406 965 376 1029 406 1000 b 349 808 406 944 386 890 b 324 792 344 797 333 792 b 290 821 308 792 290 803 b 293 833 290 825 290 829 l 319 906 b 278 965 294 914 278 939 b 342 1029 278 1000 306 1029 m 143 1060 b 189 1026 169 1060 189 1046 l 189 36 b 143 0 189 18 169 0 b 99 36 118 0 99 18 l 99 1026 b 143 1060 99 1046 118 1060 "},"ļ":{"ha":288,"x_min":0,"x_max":0,"o":"m 90 -215 b 75 -219 85 -218 81 -219 b 40 -181 56 -219 40 -200 b 56 -156 40 -171 44 -161 l 210 -69 b 222 -67 214 -68 218 -67 b 256 -106 242 -67 256 -87 b 238 -136 256 -118 250 -129 m 143 1060 b 189 1026 169 1060 189 1046 l 189 36 b 143 0 189 18 169 0 b 99 36 118 0 99 18 l 99 1026 b 143 1060 99 1046 118 1060 "},"ŀ":{"ha":436,"x_min":0,"x_max":0,"o":"m 143 1060 b 189 1026 169 1060 189 1046 l 189 36 b 143 0 189 18 169 0 b 99 36 118 0 99 18 l 99 1026 b 143 1060 99 1046 118 1060 m 358 479 b 424 417 394 479 424 451 b 358 354 424 383 394 354 b 293 417 321 354 293 383 b 358 479 293 451 321 479 "},"<":{"ha":556,"x_min":0,"x_max":0,"o":"m 35 385 b 57 424 35 399 44 415 l 431 671 b 447 676 436 675 442 676 b 490 633 467 676 490 657 b 475 604 490 621 483 610 l 144 385 l 475 167 b 490 138 483 161 490 150 b 447 94 490 114 467 94 b 431 100 442 94 436 96 l 57 347 b 35 385 43 356 35 371 "},"≤":{"ha":604,"x_min":0,"x_max":0,"o":"m 507 310 b 525 281 518 304 525 293 b 482 238 525 258 503 238 b 465 242 476 238 471 239 l 92 449 b 69 486 78 456 69 472 b 92 525 69 500 78 518 l 465 732 b 482 736 471 735 476 736 b 525 693 503 736 525 715 b 507 664 525 681 518 669 l 179 486 m 69 118 b 106 158 69 140 86 158 l 490 158 b 525 118 510 158 525 140 b 490 78 525 94 510 78 l 106 78 b 69 118 86 78 69 94 "},"¬":{"ha":674,"x_min":0,"x_max":0,"o":"m 71 333 b 106 375 71 357 85 375 l 547 375 b 582 333 564 375 582 357 l 582 122 b 538 88 582 103 563 88 b 492 122 511 88 492 103 l 492 294 l 106 294 b 71 333 85 294 71 310 "},"◊":{"ha":646,"x_min":0,"x_max":0,"o":"m 583 589 b 613 507 600 557 613 532 b 583 429 613 483 600 460 l 382 44 b 322 -4 365 14 349 -4 b 264 44 296 -4 279 14 l 63 429 b 33 507 46 461 33 485 b 63 589 33 532 44 556 l 263 971 b 322 1019 279 1003 294 1019 b 383 971 350 1019 367 1003 m 115 508 l 322 110 l 529 508 l 322 911 "},"ł":{"ha":422,"x_min":0,"x_max":0,"o":"m 203 1060 b 249 1026 229 1060 249 1046 l 249 550 l 351 607 b 365 610 357 610 361 610 b 401 569 385 610 401 589 b 386 540 401 557 396 546 l 249 464 l 249 36 b 203 0 249 18 229 0 b 158 36 178 0 158 18 l 158 415 l 72 368 b 58 364 68 365 64 364 b 24 408 40 364 24 386 b 39 435 24 418 28 429 l 158 500 l 158 1026 b 203 1060 158 1046 178 1060 "},"m":{"ha":1083,"x_min":0,"x_max":0,"o":"m 500 410 b 342 582 500 510 428 582 b 178 406 261 582 178 518 l 178 36 b 132 0 178 18 157 0 b 88 36 107 0 88 18 l 88 624 b 132 657 88 643 107 657 b 175 624 156 657 175 643 l 175 560 b 360 665 206 614 268 665 b 557 526 451 665 524 608 b 768 665 606 621 688 665 b 1001 406 888 665 1001 571 l 1001 36 b 956 0 1001 18 982 0 b 911 36 932 0 911 18 l 911 406 b 753 582 911 522 829 582 b 590 411 672 582 590 515 l 590 35 b 544 0 590 10 567 0 b 500 35 524 0 500 10 "},"¯":{"ha":368,"x_min":0,"x_max":0,"o":"m 0 917 b 35 953 0 938 14 953 l 333 953 b 368 917 350 953 368 938 b 333 882 368 897 350 882 l 35 882 b 0 917 14 882 0 897 "},"−":{"ha":697,"x_min":0,"x_max":0,"o":"m 92 394 b 126 436 92 418 106 436 l 571 436 b 606 394 589 436 606 418 b 571 356 606 371 589 356 l 126 356 b 92 394 106 356 92 371 "},"µ":{"ha":682,"x_min":0,"x_max":0,"o":"m 363 -10 b 182 79 281 -10 214 33 l 182 -287 b 143 -322 182 -307 164 -322 b 99 -287 117 -322 99 -307 l 99 622 b 143 657 99 639 118 657 b 189 622 168 657 189 639 l 189 226 b 364 74 189 167 274 74 b 529 251 453 74 529 161 l 529 622 b 575 657 529 643 551 657 b 619 622 600 657 619 643 l 619 251 b 363 -10 619 108 507 -10 "},"×":{"ha":553,"x_min":0,"x_max":0,"o":"m 471 231 b 428 188 471 210 451 188 b 406 197 421 188 413 190 l 275 326 l 147 197 b 124 188 140 190 132 188 b 81 231 103 188 81 210 b 90 253 81 239 83 246 l 224 382 l 90 511 b 82 535 85 517 82 525 b 124 576 82 556 103 576 b 149 568 133 576 142 574 l 275 439 l 404 568 b 428 576 410 574 419 576 b 471 535 450 576 471 556 b 461 511 471 525 467 517 l 329 382 l 463 253 b 471 231 469 246 471 238 "},"n":{"ha":689,"x_min":0,"x_max":0,"o":"m 178 36 b 132 0 178 18 157 0 b 88 36 106 0 88 18 l 88 624 b 132 657 88 643 106 657 b 174 624 154 657 174 643 l 174 560 b 360 665 203 614 267 665 b 607 406 493 665 607 549 l 607 36 b 561 0 607 13 583 0 b 517 36 540 0 517 13 l 517 406 b 343 582 517 494 439 582 b 178 406 261 582 178 517 "},"ń":{"ha":689,"x_min":0,"x_max":0,"o":"m 286 825 b 272 821 282 822 276 821 b 236 860 253 821 236 840 b 251 885 236 869 240 879 l 407 969 b 418 974 410 972 415 974 b 451 935 439 974 451 953 b 435 904 451 922 446 910 m 178 36 b 132 0 178 18 157 0 b 88 36 106 0 88 18 l 88 624 b 132 657 88 643 106 657 b 174 624 154 657 174 643 l 174 560 b 360 665 203 614 267 665 b 607 406 493 665 607 549 l 607 36 b 561 0 607 13 583 0 b 517 36 540 0 517 13 l 517 406 b 343 582 517 494 439 582 b 178 406 261 582 178 517 "},"ň":{"ha":689,"x_min":0,"x_max":0,"o":"m 339 879 l 476 1007 b 497 1015 483 1014 490 1015 b 524 985 513 1015 524 1000 b 507 953 524 974 518 963 l 367 828 b 339 814 357 819 347 814 b 311 828 329 814 319 819 l 171 953 b 153 985 158 963 153 974 b 179 1015 153 1000 164 1015 b 200 1007 186 1015 193 1014 m 178 36 b 132 0 178 18 157 0 b 88 36 106 0 88 18 l 88 624 b 132 657 88 643 106 657 b 174 624 154 657 174 643 l 174 560 b 360 665 203 614 267 665 b 607 406 493 665 607 549 l 607 36 b 561 0 607 13 583 0 b 517 36 540 0 517 13 l 517 406 b 343 582 517 494 439 582 b 178 406 261 582 178 517 "},"ņ":{"ha":689,"x_min":0,"x_max":0,"o":"m 275 -215 b 260 -219 269 -218 265 -219 b 225 -181 240 -219 225 -200 b 240 -156 225 -171 229 -161 l 394 -69 b 407 -67 399 -68 403 -67 b 440 -106 426 -67 440 -87 b 422 -136 440 -118 435 -129 m 178 36 b 132 0 178 18 157 0 b 88 36 106 0 88 18 l 88 624 b 132 657 88 643 106 657 b 174 624 154 657 174 643 l 174 560 b 360 665 203 614 267 665 b 607 406 493 665 607 549 l 607 36 b 561 0 607 13 583 0 b 517 36 540 0 517 13 l 517 406 b 343 582 517 494 439 582 b 178 406 261 582 178 517 "},"₉":{"ha":458,"x_min":0,"x_max":0,"o":"m 211 206 b 51 351 122 206 51 240 l 51 365 b 224 524 51 479 126 524 b 394 365 319 524 394 479 l 394 154 b 219 -4 394 39 319 -4 b 51 122 107 -4 51 61 b 85 153 51 144 63 153 b 119 125 103 153 119 146 b 222 58 119 83 167 58 b 326 154 286 58 326 89 l 326 247 b 211 206 299 218 257 206 m 326 368 b 224 464 326 435 288 464 b 122 368 160 464 122 435 l 122 354 b 224 263 122 289 160 263 b 326 349 285 263 326 286 "},"⁹":{"ha":458,"x_min":0,"x_max":0,"o":"m 211 699 b 51 843 122 699 51 732 l 51 857 b 224 1015 51 972 126 1015 b 394 857 319 1015 394 972 l 394 646 b 219 488 394 531 319 488 b 51 614 107 488 51 553 b 85 644 51 638 63 644 b 119 617 103 644 119 638 b 222 550 119 576 167 550 b 326 646 286 550 326 581 l 326 740 b 211 699 299 710 257 699 m 326 861 b 224 957 326 926 288 957 b 122 861 160 957 122 926 l 122 847 b 224 754 122 781 160 754 b 326 842 285 754 326 778 "},"≠":{"ha":667,"x_min":0,"x_max":0,"o":"m 453 553 l 556 553 b 592 513 574 553 592 535 b 556 472 592 489 574 472 l 410 472 l 315 271 l 556 271 b 592 231 574 271 592 253 b 556 190 592 207 574 190 l 272 190 l 176 -14 b 153 -29 171 -25 163 -29 b 122 -1 138 -29 122 -18 b 125 14 122 3 122 10 l 206 190 l 108 190 b 74 231 88 190 74 207 b 108 271 74 253 88 271 l 249 271 l 342 472 l 108 472 b 74 513 88 472 74 489 b 108 553 74 535 88 553 l 385 553 l 492 779 b 513 792 496 789 504 792 b 546 758 528 792 546 778 b 542 742 546 753 544 749 "},"ñ":{"ha":689,"x_min":0,"x_max":0,"o":"m 254 894 b 151 850 194 894 175 850 b 125 885 133 850 125 869 b 247 964 125 936 203 964 b 431 917 319 964 358 917 b 528 957 493 917 503 957 b 556 925 546 957 556 938 b 439 846 556 868 479 846 b 254 894 364 846 329 894 m 178 36 b 132 0 178 18 157 0 b 88 36 106 0 88 18 l 88 624 b 132 657 88 643 106 657 b 174 624 154 657 174 643 l 174 560 b 360 665 203 614 267 665 b 607 406 493 665 607 549 l 607 36 b 561 0 607 13 583 0 b 517 36 540 0 517 13 l 517 406 b 343 582 517 494 439 582 b 178 406 261 582 178 517 "},"#":{"ha":810,"x_min":0,"x_max":0,"o":"m 339 990 b 383 950 365 990 383 975 l 346 715 l 522 715 l 563 969 b 597 990 565 982 581 990 b 642 950 624 990 642 975 l 604 715 l 740 715 b 775 681 756 715 775 701 b 746 644 775 661 761 644 l 593 644 l 557 422 l 693 422 b 728 386 708 422 728 408 b 699 351 728 367 714 351 l 544 351 l 501 75 b 463 47 497 58 479 47 b 419 88 440 47 419 61 l 460 351 l 286 351 l 243 76 b 206 47 240 57 219 47 b 163 88 183 47 163 61 l 201 351 l 69 351 b 36 386 47 351 36 365 b 64 422 36 406 47 422 l 217 422 l 250 644 l 117 644 b 83 681 94 644 83 658 b 111 715 83 700 94 715 l 264 715 l 304 969 b 339 990 307 982 322 990 m 299 422 l 474 422 l 508 644 l 333 644 "},"o":{"ha":650,"x_min":0,"x_max":0,"o":"m 324 665 b 589 406 465 665 589 549 l 589 254 b 324 -10 589 117 465 -10 b 61 254 183 -10 61 115 l 61 406 b 324 665 61 544 179 665 m 499 406 b 324 582 499 494 421 582 b 151 406 226 582 151 494 l 151 254 b 324 74 151 161 228 74 b 499 254 421 74 499 161 "},"ó":{"ha":650,"x_min":0,"x_max":0,"o":"m 268 825 b 254 821 264 822 258 821 b 218 860 235 821 218 840 b 233 885 218 869 222 879 l 389 969 b 400 974 392 972 397 974 b 433 935 421 974 433 953 b 417 904 433 922 428 910 m 324 665 b 589 406 465 665 589 549 l 589 254 b 324 -10 589 117 465 -10 b 61 254 183 -10 61 115 l 61 406 b 324 665 61 544 179 665 m 499 406 b 324 582 499 494 421 582 b 151 406 226 582 151 494 l 151 254 b 324 74 151 161 228 74 b 499 254 421 74 499 161 "},"ŏ":{"ha":650,"x_min":0,"x_max":0,"o":"m 324 665 b 589 406 465 665 589 549 l 589 254 b 324 -10 589 117 465 -10 b 61 254 183 -10 61 115 l 61 406 b 324 665 61 544 179 665 m 499 406 b 324 582 499 494 421 582 b 151 406 226 582 151 494 l 151 254 b 324 74 151 161 228 74 b 499 254 421 74 499 161 m 486 992 b 325 829 486 904 408 829 b 163 992 239 829 163 904 l 224 992 b 325 879 224 928 271 879 b 425 992 378 879 425 928 "},"ô":{"ha":650,"x_min":0,"x_max":0,"o":"m 179 826 b 167 822 175 825 171 822 b 138 858 151 822 138 839 b 156 889 138 869 143 882 l 300 967 b 324 974 307 971 315 974 b 347 967 332 974 340 971 l 492 889 b 510 857 504 883 510 869 b 482 824 510 839 497 824 b 468 828 478 824 472 826 l 324 904 m 324 665 b 589 406 465 665 589 549 l 589 254 b 324 -10 589 117 465 -10 b 61 254 183 -10 61 115 l 61 406 b 324 665 61 544 179 665 m 499 406 b 324 582 499 494 421 582 b 151 406 226 582 151 494 l 151 254 b 324 74 151 161 228 74 b 499 254 421 74 499 161 "},"ö":{"ha":650,"x_min":0,"x_max":0,"o":"m 240 925 b 290 875 268 925 290 904 b 240 824 290 847 268 824 b 189 875 211 824 189 847 b 240 925 189 904 211 925 m 411 925 b 461 875 440 925 461 904 b 411 824 461 847 440 824 b 360 875 382 824 360 847 b 411 925 360 904 382 925 m 324 665 b 589 406 465 665 589 549 l 589 254 b 324 -10 589 117 465 -10 b 61 254 183 -10 61 115 l 61 406 b 324 665 61 544 179 665 m 499 406 b 324 582 499 494 421 582 b 151 406 226 582 151 494 l 151 254 b 324 74 151 161 228 74 b 499 254 421 74 499 161 "},"œ":{"ha":1071,"x_min":0,"x_max":0,"o":"m 324 665 b 546 533 417 665 501 613 b 764 665 589 611 671 665 b 1022 414 901 665 1022 558 b 903 301 1022 306 965 301 l 589 301 l 589 250 b 803 69 589 139 676 69 b 965 125 910 69 932 125 b 1006 81 988 125 1006 103 b 796 -10 1006 49 919 -10 b 544 124 682 -10 590 42 b 324 -10 500 46 417 -10 b 61 254 183 -10 61 115 l 61 406 b 324 665 61 544 179 665 m 499 406 b 324 582 499 494 421 582 b 151 406 226 582 151 494 l 151 254 b 324 74 151 161 228 74 b 499 254 421 74 499 161 m 867 368 b 936 415 922 368 936 376 b 763 590 936 504 865 590 b 589 425 667 590 589 515 l 589 368 "},"˛":{"ha":169,"x_min":0,"x_max":0,"o":"m 142 -231 b 169 -256 158 -231 169 -240 b 135 -279 169 -271 161 -279 b 0 -175 67 -279 0 -250 b 113 29 0 -97 46 -28 l 158 6 b 56 -168 101 -44 56 -101 b 142 -231 56 -212 88 -231 "},"ò":{"ha":650,"x_min":0,"x_max":0,"o":"m 324 665 b 589 406 465 665 589 549 l 589 254 b 324 -10 589 117 465 -10 b 61 254 183 -10 61 115 l 61 406 b 324 665 61 544 179 665 m 499 406 b 324 582 499 494 421 582 b 151 406 226 582 151 494 l 151 254 b 324 74 151 161 228 74 b 499 254 421 74 499 161 m 229 904 b 211 935 217 910 211 922 b 244 974 211 953 225 974 b 257 969 247 974 253 972 l 411 885 b 426 860 422 879 426 869 b 390 821 426 840 410 821 b 376 825 386 821 381 822 "},"ő":{"ha":650,"x_min":0,"x_max":0,"o":"m 215 828 b 199 821 210 822 206 821 b 163 854 181 821 163 838 b 174 874 163 863 165 869 l 307 969 b 322 975 311 974 317 975 b 354 942 340 975 354 957 b 342 917 354 932 350 922 m 424 828 b 407 821 418 822 414 821 b 371 854 389 821 371 838 b 382 874 371 863 374 869 l 515 969 b 531 975 519 974 526 975 b 563 942 549 975 563 957 b 550 917 563 932 558 922 m 324 665 b 589 406 465 665 589 549 l 589 254 b 324 -10 589 117 465 -10 b 61 254 183 -10 61 115 l 61 406 b 324 665 61 544 179 665 m 499 406 b 324 582 499 494 421 582 b 151 406 226 582 151 494 l 151 254 b 324 74 151 161 228 74 b 499 254 421 74 499 161 "},"ō":{"ha":650,"x_min":0,"x_max":0,"o":"m 140 917 b 175 953 140 938 154 953 l 474 953 b 508 917 490 953 508 938 b 474 882 508 897 490 882 l 175 882 b 140 917 154 882 140 897 m 324 665 b 589 406 465 665 589 549 l 589 254 b 324 -10 589 117 465 -10 b 61 254 183 -10 61 115 l 61 406 b 324 665 61 544 179 665 m 499 406 b 324 582 499 494 421 582 b 151 406 226 582 151 494 l 151 254 b 324 74 151 161 228 74 b 499 254 421 74 499 161 "},"⅛":{"ha":876,"x_min":0,"x_max":0,"o":"m 114 919 l 85 885 b 68 878 79 879 74 878 b 43 906 54 878 43 892 b 57 932 43 915 50 928 l 133 1008 b 153 1017 138 1013 144 1017 b 183 992 168 1017 183 1007 l 183 517 b 150 492 183 500 167 492 b 114 517 131 492 114 500 m 658 524 b 814 397 749 524 814 490 b 742 285 814 336 785 300 b 829 151 794 267 829 226 l 829 143 b 658 -4 829 38 756 -4 b 486 143 563 -4 486 38 l 486 151 b 575 285 486 226 521 267 b 503 397 532 300 503 336 b 658 524 503 490 569 524 m 761 163 b 658 256 761 226 722 256 b 557 163 594 256 557 226 l 557 150 b 658 54 557 85 596 54 b 761 150 724 54 761 85 m 658 465 b 571 389 604 465 571 443 b 658 314 571 336 604 314 b 746 389 714 314 746 336 b 658 465 746 443 714 465 m 638 1068 b 676 1031 656 1068 676 1053 b 672 1013 676 1024 675 1018 l 146 -17 b 113 -37 139 -31 126 -37 b 76 -3 93 -37 76 -21 b 81 14 76 3 78 8 l 610 1051 b 638 1068 615 1064 626 1068 "},"½":{"ha":860,"x_min":0,"x_max":0,"o":"m 489 397 b 646 524 489 474 560 524 b 810 382 738 524 810 465 b 550 96 810 229 550 179 l 550 63 l 790 63 b 815 32 804 63 815 49 b 790 0 815 15 804 0 l 510 0 b 478 24 496 0 478 10 l 478 93 b 740 379 478 210 740 267 b 644 458 740 417 711 458 b 558 385 596 458 558 436 b 522 358 558 372 544 358 b 489 397 503 358 489 368 m 114 919 l 85 885 b 68 878 79 879 74 878 b 43 906 54 878 43 892 b 57 932 43 915 50 928 l 133 1008 b 153 1017 138 1013 144 1017 b 183 992 168 1017 183 1007 l 183 517 b 150 492 183 500 167 492 b 114 517 131 492 114 500 m 638 1068 b 676 1031 656 1068 676 1053 b 672 1013 676 1024 675 1018 l 146 -17 b 113 -37 139 -31 126 -37 b 76 -3 93 -37 76 -21 b 81 14 76 3 78 8 l 610 1051 b 638 1068 615 1064 626 1068 "},"₁":{"ha":235,"x_min":0,"x_max":0,"o":"m 96 428 l 67 393 b 50 385 61 386 56 385 b 25 414 36 385 25 400 b 39 440 25 424 32 436 l 115 515 b 135 524 119 521 126 524 b 165 500 150 524 165 515 l 165 24 b 132 0 165 8 149 0 b 96 24 113 0 96 8 "},"¼":{"ha":839,"x_min":0,"x_max":0,"o":"m 113 919 l 83 885 b 67 878 78 879 72 878 b 42 906 53 878 42 892 b 56 932 42 915 49 928 l 132 1008 b 151 1017 136 1013 143 1017 b 182 992 167 1017 182 1007 l 182 517 b 149 492 182 500 165 492 b 113 517 129 492 113 500 m 658 1068 b 697 1031 676 1068 697 1053 b 693 1013 697 1024 696 1018 l 167 -17 b 133 -37 160 -31 147 -37 b 97 -3 114 -37 97 -21 b 101 14 97 3 99 8 l 631 1051 b 658 1068 636 1064 647 1068 m 669 119 l 471 119 b 446 146 457 119 446 129 b 450 160 446 149 447 154 l 644 503 b 676 524 653 517 665 524 b 711 496 690 524 711 513 b 708 485 711 493 710 488 l 536 185 l 669 185 l 669 292 b 704 314 669 307 686 314 b 739 292 722 314 739 307 l 739 185 l 781 185 b 806 151 796 185 806 168 b 781 119 806 135 793 119 l 739 119 l 739 24 b 704 0 739 8 722 0 b 669 24 686 0 669 8 "},"¹":{"ha":235,"x_min":0,"x_max":0,"o":"m 96 919 l 67 885 b 50 878 61 879 56 878 b 25 906 36 878 25 892 b 39 932 25 915 32 928 l 115 1008 b 135 1017 119 1013 126 1017 b 165 992 150 1017 165 1007 l 165 517 b 132 492 165 500 149 492 b 96 517 113 492 96 500 "},"⅓":{"ha":878,"x_min":0,"x_max":0,"o":"m 657 58 b 761 151 726 58 761 86 l 761 164 b 657 246 761 224 719 246 b 632 274 639 246 632 260 b 657 303 632 289 639 303 b 746 383 711 303 746 318 b 660 461 746 439 718 461 b 569 399 588 461 569 428 b 536 371 569 382 561 371 b 500 403 506 371 500 378 b 661 524 500 449 532 524 b 814 396 750 524 814 490 b 750 276 814 335 788 292 b 831 164 797 260 831 225 l 831 151 b 657 -4 831 39 753 -4 b 486 121 539 -4 486 64 b 519 150 486 144 496 150 b 556 125 547 150 556 142 b 657 58 556 94 583 58 m 114 919 l 85 885 b 68 878 79 879 74 878 b 43 906 54 878 43 892 b 57 932 43 915 50 928 l 133 1008 b 153 1017 138 1013 144 1017 b 183 992 168 1017 183 1007 l 183 517 b 150 492 183 500 167 492 b 114 517 131 492 114 500 m 638 1068 b 676 1031 656 1068 676 1053 b 672 1013 676 1024 675 1018 l 146 -17 b 113 -37 139 -31 126 -37 b 76 -3 93 -37 76 -21 b 81 14 76 3 78 8 l 610 1051 b 638 1068 615 1064 626 1068 "},"ª":{"ha":436,"x_min":0,"x_max":0,"o":"m 200 1028 b 368 857 322 1028 368 946 l 368 632 b 332 606 368 617 353 606 b 299 632 314 606 299 617 l 299 667 b 164 600 267 629 225 600 b 47 715 100 600 47 635 b 253 839 47 813 131 839 l 296 839 l 296 857 b 199 967 296 908 269 967 b 103 940 138 967 118 940 b 75 978 85 940 75 961 b 200 1028 75 1004 143 1028 m 296 793 l 257 793 b 119 722 185 793 119 783 b 188 657 119 676 150 657 b 296 747 240 657 296 706 "},"º":{"ha":456,"x_min":0,"x_max":0,"o":"m 228 1028 b 401 860 321 1028 401 951 l 401 769 b 228 599 401 679 321 599 b 54 769 135 599 54 679 l 54 860 b 228 1028 54 949 132 1028 m 329 860 b 228 963 329 911 285 963 b 126 860 171 963 126 911 l 126 769 b 228 664 126 715 171 664 b 329 769 283 664 329 715 "},"ø":{"ha":650,"x_min":0,"x_max":0,"o":"m 324 665 b 458 628 372 665 418 651 l 497 694 b 518 707 503 704 511 707 b 549 676 533 707 549 694 b 543 658 549 669 547 664 l 506 593 b 589 406 556 546 589 479 l 589 254 b 324 -10 589 117 465 -10 b 183 33 272 -10 224 6 l 146 -31 b 122 -44 140 -40 132 -44 b 94 -18 108 -44 94 -33 b 100 -3 94 -14 96 -8 l 140 68 b 61 254 92 117 61 183 l 61 406 b 324 665 61 544 179 665 m 499 406 b 460 514 499 444 483 482 l 225 107 b 324 74 253 86 286 74 b 499 254 421 74 499 161 m 151 254 b 186 147 151 215 164 178 l 417 553 b 324 582 389 571 357 582 b 151 406 226 582 151 494 l 151 254 "},"ǿ":{"ha":650,"x_min":0,"x_max":0,"o":"m 324 665 b 458 628 372 665 418 651 l 497 694 b 518 707 503 704 511 707 b 549 676 533 707 549 694 b 543 658 549 669 547 664 l 506 593 b 589 406 556 546 589 479 l 589 254 b 324 -10 589 117 465 -10 b 183 33 272 -10 224 6 l 146 -31 b 122 -44 140 -40 132 -44 b 94 -18 108 -44 94 -33 b 100 -3 94 -14 96 -8 l 140 68 b 61 254 92 117 61 183 l 61 406 b 324 665 61 544 179 665 m 499 406 b 460 514 499 444 483 482 l 225 107 b 324 74 253 86 286 74 b 499 254 421 74 499 161 m 151 254 b 186 147 151 215 164 178 l 417 553 b 324 582 389 571 357 582 b 151 406 226 582 151 494 l 151 254 m 283 825 b 269 821 279 822 274 821 b 233 860 250 821 233 840 b 249 885 233 869 238 879 l 404 969 b 415 974 407 972 413 974 b 449 935 436 974 449 953 b 432 904 449 922 443 910 "},"õ":{"ha":650,"x_min":0,"x_max":0,"o":"m 324 665 b 589 406 465 665 589 549 l 589 254 b 324 -10 589 117 465 -10 b 61 254 183 -10 61 115 l 61 406 b 324 665 61 544 179 665 m 499 406 b 324 582 499 494 421 582 b 151 406 226 582 151 494 l 151 254 b 324 74 151 161 228 74 b 499 254 421 74 499 161 m 239 894 b 136 850 179 894 160 850 b 110 885 118 850 110 869 b 232 964 110 936 188 964 b 415 917 304 964 343 917 b 513 957 478 917 488 957 b 540 925 531 957 540 938 b 424 846 540 868 464 846 b 239 894 349 846 314 894 "},"p":{"ha":672,"x_min":0,"x_max":0,"o":"m 132 657 b 175 624 156 657 175 643 l 175 560 b 361 665 206 614 269 665 b 611 406 499 665 611 549 l 611 254 b 365 -10 611 117 496 -10 b 178 97 281 -10 208 40 l 178 -287 b 132 -322 178 -304 158 -322 b 88 -287 107 -322 88 -304 l 88 624 b 132 657 88 643 107 657 m 521 406 b 346 582 521 494 442 582 b 178 406 263 582 178 517 l 178 211 b 349 74 178 169 250 74 b 521 254 440 74 521 163 "},"¶":{"ha":728,"x_min":0,"x_max":0,"o":"m 588 1015 b 622 981 606 1015 622 1004 l 622 35 b 588 0 622 10 606 0 b 551 35 569 0 551 10 l 551 956 l 444 956 l 444 36 b 408 0 444 13 426 0 b 374 36 392 0 374 13 l 374 425 l 317 425 b 44 713 164 425 44 504 l 44 729 b 317 1015 44 938 164 1015 "},"(":{"ha":415,"x_min":0,"x_max":0,"o":"m 343 -28 b 86 210 200 -28 86 54 l 86 811 b 344 1067 86 951 203 1067 b 389 1026 375 1067 389 1049 b 356 983 389 1001 374 983 b 178 811 242 983 178 894 l 178 210 b 356 56 178 83 276 56 b 389 14 382 56 389 33 b 343 -28 389 -11 376 -28 "},")":{"ha":415,"x_min":0,"x_max":0,"o":"m 72 -28 b 26 14 39 -28 26 -11 b 60 56 26 33 33 56 b 238 210 139 56 238 83 l 238 811 b 60 983 238 894 174 983 b 26 1026 40 983 26 1001 b 71 1067 26 1049 39 1067 b 329 811 213 1067 329 951 l 329 210 b 72 -28 329 54 215 -28 "},"∂":{"ha":681,"x_min":0,"x_max":0,"o":"m 507 560 b 276 950 503 792 449 950 b 133 914 194 950 156 914 b 96 963 111 914 96 949 b 283 1032 96 993 188 1032 b 597 514 483 1032 597 868 l 597 257 b 332 -10 597 118 474 -10 b 68 254 190 -10 68 115 l 68 415 b 313 676 68 556 179 676 b 507 560 394 676 482 631 m 158 254 b 332 74 158 161 236 74 b 507 254 429 74 507 161 l 507 421 b 332 593 507 511 425 593 b 158 415 233 593 158 504 "},"%":{"ha":1051,"x_min":0,"x_max":0,"o":"m 228 488 b 56 646 131 488 56 531 l 56 857 b 228 1015 56 972 131 1015 b 400 857 325 1015 400 972 l 400 646 b 228 488 400 531 325 488 m 331 857 b 228 953 331 922 292 953 b 126 857 164 953 126 922 l 126 646 b 228 550 126 581 164 550 b 331 646 292 550 331 581 m 824 -4 b 651 154 726 -4 651 39 l 651 365 b 824 524 651 479 726 524 b 996 365 921 524 996 479 l 996 154 b 824 -4 996 39 921 -4 m 926 365 b 824 461 926 431 888 461 b 722 365 760 461 722 431 l 722 154 b 824 58 722 89 760 58 b 926 154 888 58 926 89 m 792 1068 b 831 1031 810 1068 831 1053 b 826 1013 831 1024 829 1018 l 300 -17 b 267 -37 293 -31 281 -37 b 231 -3 247 -37 231 -21 b 235 14 231 3 232 8 l 764 1051 b 792 1068 769 1064 781 1068 "},".":{"ha":238,"x_min":0,"x_max":0,"o":"m 119 121 b 182 56 153 121 182 92 b 119 -8 182 22 153 -8 b 56 56 82 -8 56 22 b 119 121 56 92 82 121 "},"·":{"ha":256,"x_min":0,"x_max":0,"o":"m 128 479 b 193 417 164 479 193 451 b 128 354 193 383 164 354 b 63 417 90 354 63 383 b 128 479 63 451 90 479 "},"‰":{"ha":1481,"x_min":0,"x_max":0,"o":"m 228 488 b 56 646 131 488 56 531 l 56 857 b 228 1015 56 972 131 1015 b 400 857 325 1015 400 972 l 400 646 b 228 488 400 531 325 488 m 331 857 b 228 953 331 922 292 953 b 126 857 164 953 126 922 l 126 646 b 228 550 126 581 164 550 b 331 646 292 550 331 581 m 824 -4 b 651 154 726 -4 651 39 l 651 365 b 824 524 651 479 726 524 b 996 365 921 524 996 479 l 996 154 b 824 -4 996 39 921 -4 m 926 365 b 824 461 926 431 888 461 b 722 365 760 461 722 431 l 722 154 b 824 58 722 89 760 58 b 926 154 888 58 926 89 m 1257 -4 b 1085 154 1160 -4 1085 39 l 1085 365 b 1257 524 1085 479 1160 524 b 1429 365 1354 524 1429 479 l 1429 154 b 1257 -4 1429 39 1354 -4 m 1360 365 b 1257 461 1360 431 1321 461 b 1156 365 1193 461 1156 431 l 1156 154 b 1257 58 1156 89 1193 58 b 1360 154 1321 58 1360 89 m 792 1068 b 831 1031 810 1068 831 1053 b 826 1013 831 1024 829 1018 l 300 -17 b 267 -37 293 -31 281 -37 b 231 -3 247 -37 231 -21 b 235 14 231 3 232 8 l 764 1051 b 792 1068 769 1064 781 1068 "},"π":{"ha":683,"x_min":0,"x_max":0,"o":"m 553 657 b 596 622 574 657 596 646 l 596 35 b 550 0 596 10 572 0 b 504 35 526 0 504 10 l 504 572 l 179 572 l 179 35 b 133 0 179 10 156 0 b 88 35 110 0 88 10 l 88 622 b 129 657 88 646 108 657 "},"+":{"ha":599,"x_min":0,"x_max":0,"o":"m 300 78 b 260 111 278 78 260 92 l 260 294 l 76 294 b 43 333 57 294 43 310 b 76 375 43 357 57 375 l 260 375 l 260 556 b 300 592 260 574 278 592 b 340 556 324 592 340 574 l 340 375 l 521 375 b 557 333 539 375 557 357 b 521 294 557 310 539 294 l 340 294 l 340 111 b 300 78 340 92 324 78 "},"±":{"ha":654,"x_min":0,"x_max":0,"o":"m 328 238 b 288 271 306 238 288 251 l 288 450 l 104 450 b 71 490 85 450 71 467 b 104 531 71 513 85 531 l 288 531 l 288 708 b 328 744 288 726 306 744 b 368 708 351 744 368 726 l 368 531 l 549 531 b 585 490 567 531 585 513 b 549 450 585 467 567 450 l 368 450 l 368 271 b 328 238 368 251 351 238 m 71 118 b 104 160 71 142 85 160 l 549 160 b 585 118 567 160 585 142 b 549 79 585 94 567 79 l 104 79 b 71 118 85 79 71 94 "},"∏":{"ha":789,"x_min":0,"x_max":0,"o":"m 640 1015 b 683 981 661 1015 683 1004 l 683 35 b 638 0 683 10 660 0 b 592 35 614 0 592 10 l 592 931 l 197 931 l 197 35 b 151 0 197 10 174 0 b 106 35 128 0 106 10 l 106 981 b 147 1015 106 1004 126 1015 "},"q":{"ha":672,"x_min":0,"x_max":0,"o":"m 542 657 b 585 624 567 657 585 643 l 585 -287 b 542 -322 585 -304 567 -322 b 494 -287 515 -322 494 -304 l 494 97 b 308 -10 465 40 392 -10 b 63 254 176 -10 63 117 l 63 406 b 313 665 63 549 175 665 b 499 560 404 665 468 614 l 499 624 b 542 657 499 643 517 657 m 153 254 b 325 74 153 163 232 74 b 494 211 422 74 494 169 l 494 406 b 326 582 494 517 410 582 b 153 406 231 582 153 494 "},"?":{"ha":553,"x_min":0,"x_max":0,"o":"m 507 786 b 322 472 507 613 374 533 b 274 261 275 422 274 365 b 236 229 274 242 261 229 b 199 269 214 229 199 239 b 258 511 199 425 225 474 b 428 779 317 574 428 636 b 240 957 428 890 361 957 b 67 889 117 957 103 889 b 32 926 51 889 32 903 b 244 1033 32 971 124 1033 b 507 786 418 1033 507 924 m 236 121 b 300 56 271 121 300 92 b 236 -8 300 22 272 -8 b 172 56 200 -8 172 22 b 236 121 172 92 201 121 "},"¿":{"ha":551,"x_min":0,"x_max":0,"o":"m 44 239 b 229 553 44 413 178 492 b 278 764 276 603 278 660 b 315 796 278 783 290 796 b 353 756 338 796 353 786 b 293 514 353 600 326 551 b 124 246 235 450 124 389 b 311 68 124 135 190 68 b 485 136 435 68 449 136 b 519 99 500 136 519 122 b 307 -8 519 54 428 -8 b 44 239 133 -8 44 101 m 315 904 b 251 969 281 904 251 933 b 315 1033 251 1003 279 1033 b 379 969 351 1033 379 1003 b 315 904 379 933 350 904 "},"\"":{"ha":375,"x_min":0,"x_max":0,"o":"m 96 1067 b 142 1036 117 1067 142 1054 l 128 832 b 96 800 128 815 118 800 b 67 832 75 800 67 815 l 53 1036 b 96 1067 53 1054 76 1067 m 276 1067 b 322 1036 297 1067 322 1054 l 308 832 b 276 800 308 815 299 800 b 247 832 256 800 247 815 l 233 1036 b 276 1067 233 1054 257 1067 "},"„":{"ha":447,"x_min":0,"x_max":0,"o":"m 328 121 b 392 57 363 121 392 92 b 335 -100 392 36 372 -19 b 310 -117 331 -111 319 -117 b 276 -87 294 -117 276 -106 b 279 -76 276 -85 276 -81 l 306 -4 b 264 56 281 6 264 29 b 328 121 264 92 292 121 m 119 121 b 182 57 153 121 182 92 b 126 -100 182 36 164 -19 b 101 -117 121 -111 110 -117 b 67 -87 86 -117 67 -106 b 69 -76 67 -85 68 -81 l 97 -4 b 56 56 72 6 56 29 b 119 121 56 92 82 121 "},"“":{"ha":432,"x_min":0,"x_max":0,"o":"m 110 792 b 46 856 75 792 46 821 b 103 1013 46 876 65 932 b 128 1029 107 1024 118 1029 b 161 1000 143 1029 161 1018 b 158 989 161 996 161 993 l 132 917 b 174 857 157 907 174 883 b 110 792 174 821 146 792 m 318 792 b 256 856 285 792 256 821 b 311 1013 256 876 274 932 b 336 1029 317 1024 328 1029 b 371 1000 351 1029 371 1018 b 368 989 371 996 369 993 l 340 917 b 382 857 365 907 382 883 b 318 792 382 821 356 792 "},"”":{"ha":429,"x_min":0,"x_max":0,"o":"m 325 1029 b 388 965 358 1029 388 1000 b 332 808 388 944 369 890 b 307 792 326 797 315 792 b 272 821 292 792 272 803 b 275 833 272 825 274 829 l 303 906 b 261 965 278 914 261 939 b 325 1029 261 1000 288 1029 m 115 1029 b 179 965 150 1029 179 1000 b 122 808 179 944 160 890 b 97 792 118 797 107 792 b 64 821 82 792 64 803 b 67 833 64 825 64 829 l 93 906 b 51 965 68 914 51 939 b 115 1029 51 1000 79 1029 "},"‘":{"ha":222,"x_min":0,"x_max":0,"o":"m 108 792 b 46 856 74 792 46 821 b 101 1013 46 876 64 932 b 126 1029 107 1024 117 1029 b 160 1000 142 1029 160 1018 b 158 989 160 996 160 993 l 131 917 b 172 857 156 907 172 883 b 108 792 172 821 144 792 "},"’":{"ha":219,"x_min":0,"x_max":0,"o":"m 114 1029 b 178 965 149 1029 178 1000 b 122 808 178 944 158 890 b 97 792 117 797 106 792 b 63 821 81 792 63 803 b 65 833 63 825 63 829 l 93 906 b 50 965 68 914 50 939 b 114 1029 50 1000 78 1029 "},"‚":{"ha":238,"x_min":0,"x_max":0,"o":"m 119 121 b 182 57 153 121 182 92 b 126 -100 182 36 164 -19 b 101 -117 121 -111 110 -117 b 67 -87 86 -117 67 -106 b 69 -76 67 -85 68 -81 l 97 -4 b 56 56 72 6 56 29 b 119 121 56 92 82 121 "},"'":{"ha":194,"x_min":0,"x_max":0,"o":"m 96 1067 b 142 1036 117 1067 142 1054 l 128 832 b 96 800 128 815 118 800 b 67 832 75 800 67 815 l 53 1036 b 96 1067 53 1054 76 1067 "},"r":{"ha":460,"x_min":0,"x_max":0,"o":"m 361 582 b 178 379 269 582 178 506 l 178 36 b 132 0 178 18 158 0 b 88 36 107 0 88 18 l 88 624 b 132 657 88 643 107 657 b 175 624 156 657 175 643 l 175 556 b 361 665 206 611 271 665 l 410 665 b 446 624 429 665 446 646 b 410 582 446 601 429 582 "},"ŕ":{"ha":460,"x_min":0,"x_max":0,"o":"m 172 825 b 158 821 168 822 163 821 b 122 860 139 821 122 840 b 138 885 122 869 126 879 l 293 969 b 304 974 296 972 301 974 b 338 935 325 974 338 953 b 321 904 338 922 332 910 m 361 582 b 178 379 269 582 178 506 l 178 36 b 132 0 178 18 158 0 b 88 36 107 0 88 18 l 88 624 b 132 657 88 643 107 657 b 175 624 156 657 175 643 l 175 556 b 361 665 206 611 271 665 l 410 665 b 446 624 429 665 446 646 b 410 582 446 601 429 582 "},"√":{"ha":857,"x_min":0,"x_max":0,"o":"m 17 576 b 51 617 17 599 31 617 l 144 617 b 179 583 163 617 174 603 l 338 89 l 619 1040 b 654 1067 625 1056 639 1067 l 817 1067 b 851 1026 836 1067 851 1049 b 817 986 851 1003 836 986 l 699 986 l 393 -15 b 339 -49 386 -37 361 -49 b 283 -15 314 -49 290 -37 l 100 536 l 51 536 b 17 576 31 536 17 553 "},"ř":{"ha":460,"x_min":0,"x_max":0,"o":"m 224 879 l 361 1007 b 382 1015 368 1014 375 1015 b 408 985 397 1015 408 1000 b 392 953 408 974 403 963 l 251 828 b 224 814 242 819 232 814 b 196 828 214 814 204 819 l 56 953 b 38 985 43 963 38 974 b 64 1015 38 1000 49 1015 b 85 1007 71 1015 78 1014 m 361 582 b 178 379 269 582 178 506 l 178 36 b 132 0 178 18 158 0 b 88 36 107 0 88 18 l 88 624 b 132 657 88 643 107 657 b 175 624 156 657 175 643 l 175 556 b 361 665 206 611 271 665 l 410 665 b 446 624 429 665 446 646 b 410 582 446 601 429 582 "},"ŗ":{"ha":460,"x_min":0,"x_max":0,"o":"m 49 -215 b 33 -219 43 -218 39 -219 b -1 -181 14 -219 -1 -200 b 14 -156 -1 -171 3 -161 l 168 -69 b 181 -67 172 -68 176 -67 b 214 -106 200 -67 214 -87 b 196 -136 214 -118 208 -129 m 361 582 b 178 379 269 582 178 506 l 178 36 b 132 0 178 18 158 0 b 88 36 107 0 88 18 l 88 624 b 132 657 88 643 107 657 b 175 624 156 657 175 643 l 175 556 b 361 665 206 611 271 665 l 410 665 b 446 624 429 665 446 646 b 410 582 446 601 429 582 "},"®":{"ha":997,"x_min":0,"x_max":0,"o":"m 72 497 b 503 951 72 807 310 951 b 925 503 699 951 925 804 b 494 49 925 193 688 49 b 72 497 299 49 72 196 m 367 754 b 389 778 367 767 376 776 l 513 778 b 660 629 592 778 660 742 b 565 485 660 540 619 499 l 657 282 b 660 272 658 278 660 275 b 624 238 660 254 640 238 b 597 264 611 238 604 250 l 500 476 l 431 476 l 431 263 b 400 239 431 249 417 239 b 367 263 383 239 367 247 m 431 719 l 431 531 l 513 531 b 596 624 563 531 596 557 b 513 719 596 693 563 719 m 864 503 b 503 890 864 728 721 890 b 133 497 288 890 133 731 b 494 110 133 272 276 110 b 864 503 710 110 864 269 "},"˚":{"ha":257,"x_min":0,"x_max":0,"o":"m 128 1067 b 257 938 196 1067 257 1006 b 128 804 257 868 196 804 b 0 938 58 804 0 868 b 128 1067 0 1004 56 1067 m 210 938 b 129 1018 210 976 172 1018 b 46 938 82 1018 46 976 b 129 850 46 893 83 850 b 210 938 172 850 210 893 "},"s":{"ha":535,"x_min":0,"x_max":0,"o":"m 261 67 b 404 165 367 67 404 113 b 61 476 404 350 61 246 b 281 665 61 565 122 665 b 467 597 372 665 467 631 b 429 550 467 582 451 550 b 282 589 407 550 364 589 b 143 481 179 589 143 526 b 488 169 143 322 488 422 b 264 -10 488 60 406 -10 b 46 90 133 -10 46 49 b 78 132 46 108 60 132 b 261 67 108 132 136 67 "},"ś":{"ha":535,"x_min":0,"x_max":0,"o":"m 208 825 b 194 821 204 822 199 821 b 158 860 175 821 158 840 b 174 885 158 869 163 879 l 329 969 b 340 974 332 972 338 974 b 374 935 361 974 374 953 b 357 904 374 922 368 910 m 261 67 b 404 165 367 67 404 113 b 61 476 404 350 61 246 b 281 665 61 565 122 665 b 467 597 372 665 467 631 b 429 550 467 582 451 550 b 282 589 407 550 364 589 b 143 481 179 589 143 526 b 488 169 143 322 488 422 b 264 -10 488 60 406 -10 b 46 90 133 -10 46 49 b 78 132 46 108 60 132 b 261 67 108 132 136 67 "},"š":{"ha":535,"x_min":0,"x_max":0,"o":"m 263 879 l 400 1007 b 421 1015 407 1014 414 1015 b 447 985 436 1015 447 1000 b 431 953 447 974 442 963 l 290 828 b 263 814 281 819 271 814 b 235 828 253 814 243 819 l 94 953 b 76 985 82 963 76 974 b 103 1015 76 1000 88 1015 b 124 1007 110 1015 117 1014 m 261 67 b 404 165 367 67 404 113 b 61 476 404 350 61 246 b 281 665 61 565 122 665 b 467 597 372 665 467 631 b 429 550 467 582 451 550 b 282 589 407 550 364 589 b 143 481 179 589 143 526 b 488 169 143 322 488 422 b 264 -10 488 60 406 -10 b 46 90 133 -10 46 49 b 78 132 46 108 60 132 b 261 67 108 132 136 67 "},"ş":{"ha":535,"x_min":0,"x_max":0,"o":"m 261 67 b 404 165 367 67 404 113 b 61 476 404 350 61 246 b 281 665 61 565 122 665 b 467 597 372 665 467 631 b 429 550 467 582 451 550 b 282 589 407 550 364 589 b 143 481 179 589 143 526 b 488 169 143 322 488 422 b 308 -7 488 71 422 6 l 288 -85 b 421 -185 382 -87 421 -135 b 297 -292 421 -235 382 -292 b 189 -256 260 -292 189 -281 b 211 -222 189 -247 197 -222 b 289 -242 222 -222 243 -242 b 363 -187 342 -242 363 -217 b 275 -129 363 -150 329 -133 l 222 -125 l 253 -10 b 46 90 128 -6 46 50 b 78 132 46 108 60 132 b 261 67 108 132 136 67 "},"ə":{"ha":636,"x_min":0,"x_max":0,"o":"m 308 -10 b 49 244 169 -10 49 96 b 169 354 49 351 108 354 l 483 354 l 483 406 b 271 588 483 517 394 588 b 106 532 163 588 136 532 b 67 574 83 532 67 557 b 275 665 67 607 146 665 b 574 403 449 665 574 560 l 574 247 b 308 -10 574 108 453 -10 m 206 288 b 136 240 150 288 136 279 b 308 65 136 151 207 65 b 483 235 406 65 483 143 l 483 288 "},"ŝ":{"ha":535,"x_min":0,"x_max":0,"o":"m 117 826 b 104 822 113 825 108 822 b 75 858 89 822 75 839 b 93 889 75 869 81 882 l 238 967 b 261 974 244 971 253 974 b 285 967 269 974 278 971 l 429 889 b 447 857 442 883 447 869 b 419 824 447 839 435 824 b 406 828 415 824 410 826 l 261 904 m 261 67 b 404 165 367 67 404 113 b 61 476 404 350 61 246 b 281 665 61 565 122 665 b 467 597 372 665 467 631 b 429 550 467 582 451 550 b 282 589 407 550 364 589 b 143 481 179 589 143 526 b 488 169 143 322 488 422 b 264 -10 488 60 406 -10 b 46 90 133 -10 46 49 b 78 132 46 108 60 132 b 261 67 108 132 136 67 "},"ș":{"ha":535,"x_min":0,"x_max":0,"o":"m 213 -215 b 197 -219 207 -218 203 -219 b 163 -181 178 -219 163 -200 b 178 -156 163 -171 167 -161 l 332 -69 b 344 -67 336 -68 340 -67 b 378 -106 364 -67 378 -87 b 360 -136 378 -118 372 -129 m 261 67 b 404 165 367 67 404 113 b 61 476 404 350 61 246 b 281 665 61 565 122 665 b 467 597 372 665 467 631 b 429 550 467 582 451 550 b 282 589 407 550 364 589 b 143 481 179 589 143 526 b 488 169 143 322 488 422 b 264 -10 488 60 406 -10 b 46 90 133 -10 46 49 b 78 132 46 108 60 132 b 261 67 108 132 136 67 "},"§":{"ha":649,"x_min":0,"x_max":0,"o":"m 86 750 b 328 1015 86 965 225 1015 b 551 792 476 1015 551 918 b 511 749 551 758 533 749 b 469 792 483 749 469 763 b 331 935 469 844 444 935 b 174 761 254 935 174 890 b 576 340 174 532 576 660 l 576 171 b 322 -93 576 -21 456 -93 b 68 138 164 -93 68 15 b 110 179 68 168 86 179 b 151 146 140 179 151 164 b 314 -11 151 92 179 -11 b 485 156 424 -11 485 50 b 86 578 485 386 86 257 m 496 346 b 168 607 496 542 264 503 l 168 568 b 496 306 168 371 401 410 "},";":{"ha":290,"x_min":0,"x_max":0,"o":"m 143 121 b 207 56 175 121 207 96 b 154 -100 207 44 206 29 b 126 -117 149 -111 138 -117 b 93 -90 111 -117 93 -107 b 94 -76 93 -85 93 -82 l 122 -4 b 81 56 97 6 81 29 b 143 121 81 92 108 121 m 149 588 b 211 522 182 588 211 558 b 149 458 211 489 182 458 b 85 522 111 458 85 489 b 149 588 85 558 111 588 "},"⅞":{"ha":1038,"x_min":0,"x_max":0,"o":"m 821 524 b 976 397 911 524 976 490 b 904 285 976 336 947 300 b 992 151 957 267 992 226 l 992 143 b 821 -4 992 38 918 -4 b 649 143 725 -4 649 38 l 649 151 b 738 285 649 226 683 267 b 665 397 694 300 665 336 b 821 524 665 490 732 524 m 924 163 b 821 256 924 226 885 256 b 719 163 757 256 719 226 l 719 150 b 821 54 719 85 758 54 b 924 150 886 54 924 85 m 821 465 b 733 389 767 465 733 443 b 821 314 733 336 767 314 b 908 389 876 314 908 336 b 821 465 908 443 876 465 m 731 1068 b 769 1031 749 1068 769 1053 b 765 1013 769 1024 768 1018 l 239 -17 b 206 -37 232 -31 219 -37 b 169 -3 186 -37 169 -21 b 174 14 169 3 171 8 l 703 1051 b 731 1068 708 1064 719 1068 m 386 921 b 375 883 386 910 381 894 l 151 501 b 129 490 147 494 139 490 b 86 524 107 490 86 504 b 89 538 86 528 88 532 l 317 911 l 317 953 l 113 953 l 113 882 b 76 858 113 869 94 858 b 42 882 57 858 42 869 l 42 992 b 74 1015 42 1003 58 1015 l 354 1015 b 386 992 368 1015 386 1003 "},"₇":{"ha":407,"x_min":0,"x_max":0,"o":"m 381 428 b 369 392 381 417 375 401 l 146 10 b 124 -3 142 3 133 -3 b 81 32 101 -3 81 11 b 83 44 81 36 82 40 l 311 418 l 311 461 l 107 461 l 107 390 b 71 367 107 376 89 367 b 36 390 51 367 36 376 l 36 500 b 68 524 36 511 53 524 l 349 524 b 381 500 363 524 381 511 "},"⁷":{"ha":407,"x_min":0,"x_max":0,"o":"m 381 921 b 369 883 381 910 375 894 l 146 501 b 124 490 142 494 133 490 b 81 524 101 490 81 504 b 83 538 81 528 82 532 l 311 911 l 311 953 l 107 953 l 107 882 b 71 858 107 869 89 858 b 36 882 51 858 36 869 l 36 992 b 68 1015 36 1003 53 1015 l 349 1015 b 381 992 363 1015 381 1003 "},"₆":{"ha":457,"x_min":0,"x_max":0,"o":"m 246 314 b 406 168 335 314 406 279 l 406 154 b 235 -4 406 39 331 -4 b 63 176 124 -4 63 44 l 63 365 b 238 524 63 479 139 524 b 406 397 350 524 406 457 b 372 367 406 375 394 367 b 338 394 356 367 338 372 b 235 461 338 436 290 461 b 132 365 171 461 132 431 l 132 271 b 246 314 158 301 200 314 m 132 150 b 235 56 132 85 169 56 b 336 150 299 56 336 85 l 336 164 b 233 257 336 231 299 257 b 132 171 172 257 132 232 "},"⁶":{"ha":457,"x_min":0,"x_max":0,"o":"m 246 806 b 406 660 335 806 406 771 l 406 646 b 235 488 406 531 331 488 b 63 669 124 488 63 536 l 63 857 b 238 1015 63 972 139 1015 b 406 889 350 1015 406 949 b 372 858 406 867 394 858 b 338 886 356 858 338 864 b 235 953 338 928 290 953 b 132 857 171 953 132 922 l 132 763 b 246 806 158 794 200 806 m 132 642 b 235 547 132 576 169 547 b 336 642 299 547 336 576 l 336 656 b 233 749 336 724 299 749 b 132 663 172 749 132 725 "},"/":{"ha":658,"x_min":0,"x_max":0,"o":"m 589 1068 b 629 1031 607 1068 629 1053 b 624 1013 629 1024 628 1018 l 97 -17 b 64 -37 92 -31 78 -37 b 28 -3 44 -37 28 -21 b 32 14 28 3 29 8 l 561 1051 b 589 1068 567 1064 578 1068 "}," ":{"ha":278,"x_min":0,"x_max":0,"o":""},"£":{"ha":676,"x_min":0,"x_max":0,"o":"m 590 85 b 622 43 611 85 622 64 b 590 0 622 21 611 0 l 68 0 b 33 43 44 0 33 21 b 68 85 33 64 44 85 l 150 85 l 210 510 l 104 510 b 72 546 85 510 72 526 b 104 585 72 567 85 585 l 221 585 l 251 804 b 557 1067 272 951 408 1067 l 583 1067 b 622 1025 608 1067 622 1046 b 583 983 622 1006 608 983 l 550 983 b 342 804 440 983 354 899 l 311 585 l 518 585 b 547 546 538 585 547 565 b 518 510 547 528 538 510 l 300 510 l 239 85 l 590 85 "},"∑":{"ha":651,"x_min":0,"x_max":0,"o":"m 46 943 b 38 976 42 951 38 965 b 78 1015 38 997 50 1015 l 581 1015 b 617 974 604 1015 617 993 b 581 931 617 953 604 931 l 153 931 l 413 431 b 444 350 431 394 444 372 b 413 269 444 328 431 304 l 153 -231 l 581 -231 b 617 -274 604 -231 617 -253 b 581 -315 617 -293 604 -315 l 78 -315 b 38 -276 50 -315 38 -297 b 46 -243 38 -265 42 -251 l 353 350 "},"t":{"ha":413,"x_min":0,"x_max":0,"o":"m 175 204 b 304 82 175 114 208 82 l 343 82 b 385 42 368 82 385 63 b 343 0 385 19 368 0 l 304 0 b 85 204 161 0 85 61 l 85 936 b 129 969 85 956 108 969 b 175 936 151 969 175 956 l 175 657 l 354 657 b 386 619 372 657 386 639 b 354 582 386 600 372 582 l 175 582 "},"ŧ":{"ha":417,"x_min":0,"x_max":0,"o":"m 175 442 l 354 442 b 386 403 372 442 386 424 b 354 367 386 383 372 367 l 175 367 l 175 204 b 304 82 175 114 208 82 l 343 82 b 385 42 368 82 385 63 b 343 0 385 19 368 0 l 304 0 b 85 204 161 0 85 61 l 85 936 b 129 969 85 956 108 969 b 175 936 151 969 175 956 l 175 657 l 354 657 b 386 619 372 657 386 639 b 354 582 386 600 372 582 l 175 582 "},"ť":{"ha":413,"x_min":0,"x_max":0,"o":"m 328 1039 b 392 975 363 1039 392 1010 b 335 818 392 954 372 900 b 310 801 331 807 319 801 b 276 831 294 801 276 813 b 279 843 276 835 276 839 l 306 915 b 264 975 281 924 264 949 b 328 1039 264 1010 292 1039 m 175 204 b 304 82 175 114 208 82 l 343 82 b 385 42 368 82 385 63 b 343 0 385 19 368 0 l 304 0 b 85 204 161 0 85 61 l 85 936 b 129 969 85 956 108 969 b 175 936 151 969 175 956 l 175 657 l 354 657 b 386 619 372 657 386 639 b 354 582 386 600 372 582 l 175 582 "},"ţ":{"ha":413,"x_min":0,"x_max":0,"o":"m 139 -215 b 124 -219 133 -218 129 -219 b 89 -181 104 -219 89 -200 b 104 -156 89 -171 93 -161 l 258 -69 b 271 -67 263 -68 267 -67 b 304 -106 290 -67 304 -87 b 286 -136 304 -118 299 -129 m 175 204 b 304 82 175 114 208 82 l 343 82 b 385 42 368 82 385 63 b 343 0 385 19 368 0 l 304 0 b 85 204 161 0 85 61 l 85 936 b 129 969 85 956 108 969 b 175 936 151 969 175 956 l 175 657 l 354 657 b 386 619 372 657 386 639 b 354 582 386 600 372 582 l 175 582 "},"þ":{"ha":674,"x_min":0,"x_max":0,"o":"m 133 1060 b 179 1026 160 1060 179 1046 l 179 560 b 363 665 210 614 272 665 b 613 406 500 665 613 549 l 613 254 b 367 -10 613 117 497 -10 b 179 97 282 -10 210 40 l 179 -287 b 133 -322 179 -304 160 -322 b 89 -287 108 -322 89 -304 l 89 1026 b 133 1060 89 1046 108 1060 m 522 406 b 347 582 522 494 443 582 b 179 406 264 582 179 517 l 179 211 b 350 74 179 169 251 74 b 522 254 442 74 522 163 "},"⅜":{"ha":1040,"x_min":0,"x_max":0,"o":"m 213 550 b 317 643 282 550 317 578 l 317 656 b 213 738 317 715 275 738 b 188 765 194 738 188 751 b 213 794 188 781 194 794 b 301 875 267 794 301 811 b 215 954 301 931 274 954 b 125 892 143 954 125 921 b 92 863 125 874 117 863 b 56 896 61 863 56 869 b 217 1015 56 940 88 1015 b 369 889 306 1015 369 982 b 306 768 369 828 343 785 b 386 656 353 751 386 717 l 386 643 b 213 488 386 531 308 488 b 42 613 94 488 42 556 b 75 642 42 636 51 642 b 111 617 103 642 111 633 b 213 550 111 586 139 550 m 822 524 b 978 397 913 524 978 490 b 906 285 978 336 949 300 b 993 151 958 267 993 226 l 993 143 b 822 -4 993 38 919 -4 b 650 143 726 -4 650 38 l 650 151 b 739 285 650 226 685 267 b 667 397 696 300 667 336 b 822 524 667 490 733 524 m 925 163 b 822 256 925 226 886 256 b 721 163 758 256 721 226 l 721 150 b 822 54 721 85 760 54 b 925 150 888 54 925 85 m 822 465 b 735 389 768 465 735 443 b 822 314 735 336 768 314 b 910 389 878 314 910 336 b 822 465 910 443 878 465 m 801 1068 b 840 1031 819 1068 840 1053 b 836 1013 840 1024 839 1018 l 310 -17 b 276 -37 303 -31 290 -37 b 240 -3 257 -37 240 -21 b 244 14 240 3 242 8 l 774 1051 b 801 1068 779 1064 790 1068 "},"₃":{"ha":435,"x_min":0,"x_max":0,"o":"m 211 58 b 315 151 281 58 315 86 l 315 164 b 211 246 315 224 274 246 b 186 274 193 246 186 260 b 211 303 186 289 193 303 b 300 383 265 303 300 318 b 214 461 300 439 272 461 b 124 399 142 461 124 428 b 90 371 124 382 115 371 b 54 403 60 371 54 378 b 215 524 54 449 86 524 b 368 396 304 524 368 490 b 304 276 368 335 342 292 b 385 164 351 260 385 225 l 385 151 b 211 -4 385 39 307 -4 b 40 121 93 -4 40 64 b 74 150 40 144 50 150 b 110 125 101 150 110 142 b 211 58 110 94 138 58 "},"¾":{"ha":1019,"x_min":0,"x_max":0,"o":"m 215 550 b 319 643 285 550 319 578 l 319 656 b 215 738 319 715 278 738 b 190 765 197 738 190 751 b 215 794 190 781 197 794 b 304 875 269 794 304 811 b 218 954 304 931 276 954 b 128 892 146 954 128 921 b 94 863 128 874 119 863 b 58 896 64 863 58 869 b 219 1015 58 940 90 1015 b 372 889 308 1015 372 982 b 308 768 372 828 346 785 b 389 656 356 751 389 717 l 389 643 b 215 488 389 531 311 488 b 44 613 97 488 44 556 b 78 642 44 636 54 642 b 114 617 106 642 114 633 b 215 550 114 586 142 550 m 851 119 l 653 119 b 628 146 639 119 628 129 b 632 160 628 149 629 154 l 826 503 b 858 524 835 517 847 524 b 893 496 872 524 893 513 b 890 485 893 493 892 488 l 718 185 l 851 185 l 851 292 b 886 314 851 307 868 314 b 921 292 904 314 921 307 l 921 185 l 963 185 b 988 151 978 185 988 168 b 963 119 988 135 975 119 l 921 119 l 921 24 b 886 0 921 8 904 0 b 851 24 868 0 851 8 m 832 1068 b 871 1031 850 1068 871 1053 b 867 1013 871 1024 869 1018 l 340 -17 b 307 -37 333 -31 321 -37 b 271 -3 288 -37 271 -21 b 275 14 271 3 272 8 l 804 1051 b 832 1068 810 1064 821 1068 "},"³":{"ha":435,"x_min":0,"x_max":0,"o":"m 211 550 b 315 643 281 550 315 578 l 315 656 b 211 738 315 715 274 738 b 186 765 193 738 186 751 b 211 794 186 781 193 794 b 300 875 265 794 300 811 b 214 954 300 931 272 954 b 124 892 142 954 124 921 b 90 863 124 874 115 863 b 54 896 60 863 54 869 b 215 1015 54 940 86 1015 b 368 889 304 1015 368 982 b 304 768 368 828 342 785 b 385 656 351 751 385 717 l 385 643 b 211 488 385 531 307 488 b 40 613 93 488 40 556 b 74 642 40 636 50 642 b 110 617 101 642 110 633 b 211 550 110 586 138 550 "},"˜":{"ha":431,"x_min":0,"x_max":0,"o":"m 129 894 b 26 850 69 894 50 850 b 0 885 8 850 0 869 b 122 964 0 936 78 964 b 306 917 194 964 233 917 b 403 957 368 917 378 957 b 431 925 421 957 431 938 b 314 846 431 868 354 846 b 129 894 239 846 204 894 "},"™":{"ha":869,"x_min":0,"x_max":0,"o":"m 354 1067 b 375 1036 369 1067 375 1051 b 354 1004 375 1019 368 1004 l 250 1004 l 250 681 b 218 657 250 665 235 657 b 183 681 200 657 183 665 l 183 1004 l 81 1004 b 58 1036 67 1004 58 1019 b 81 1067 58 1051 65 1067 m 617 718 b 593 700 610 704 601 700 b 571 718 585 700 575 704 l 478 931 l 478 681 b 446 657 478 665 461 657 b 413 681 429 657 413 665 l 413 1033 b 446 1067 413 1058 429 1067 b 496 1025 469 1067 483 1053 l 593 804 l 692 1025 b 742 1067 704 1054 718 1067 b 775 1033 760 1067 775 1058 l 775 681 b 742 657 775 665 758 657 b 710 681 725 657 710 665 l 710 928 "},"₂":{"ha":425,"x_min":0,"x_max":0,"o":"m 57 397 b 214 524 57 474 128 524 b 378 382 306 524 378 465 b 118 96 378 229 118 179 l 118 63 l 358 63 b 383 32 372 63 383 49 b 358 0 383 15 372 0 l 78 0 b 46 24 64 0 46 10 l 46 93 b 308 379 46 210 308 267 b 213 458 308 417 279 458 b 126 385 164 458 126 436 b 90 358 126 372 113 358 b 57 397 71 358 57 368 "},"²":{"ha":426,"x_min":0,"x_max":0,"o":"m 57 889 b 214 1015 57 965 128 1015 b 378 874 306 1015 378 957 b 118 588 378 721 118 672 l 118 554 l 358 554 b 383 524 372 554 383 540 b 358 492 383 508 372 492 l 78 492 b 46 517 64 492 46 501 l 46 585 b 308 871 46 701 308 758 b 213 951 308 910 279 951 b 126 876 164 951 126 928 b 90 851 126 864 113 851 b 57 889 71 851 57 860 "},"⅔":{"ha":1033,"x_min":0,"x_max":0,"o":"m 813 58 b 917 151 882 58 917 86 l 917 164 b 813 246 917 224 875 246 b 788 274 794 246 788 260 b 813 303 788 289 794 303 b 901 383 867 303 901 318 b 815 461 901 439 874 461 b 725 399 743 461 725 428 b 692 371 725 382 717 371 b 656 403 661 371 656 378 b 817 524 656 449 688 524 b 969 396 906 524 969 490 b 906 276 969 335 943 292 b 986 164 953 260 986 225 l 986 151 b 813 -4 986 39 908 -4 b 642 121 694 -4 642 64 b 675 150 642 144 651 150 b 711 125 703 150 711 142 b 813 58 711 94 739 58 m 61 889 b 218 1015 61 965 132 1015 b 382 874 310 1015 382 957 b 122 588 382 721 122 672 l 122 554 l 363 554 b 388 524 376 554 388 540 b 363 492 388 508 376 492 l 82 492 b 50 517 68 492 50 501 l 50 585 b 313 871 50 701 313 758 b 217 951 313 910 283 951 b 131 876 168 951 131 928 b 94 851 131 864 117 851 b 61 889 75 851 61 860 m 806 1068 b 844 1031 824 1068 844 1053 b 840 1013 844 1024 843 1018 l 314 -17 b 281 -37 307 -31 294 -37 b 244 -3 261 -37 244 -21 b 249 14 244 3 246 8 l 778 1051 b 806 1068 783 1064 794 1068 "},"u":{"ha":689,"x_min":0,"x_max":0,"o":"m 344 -10 b 81 251 199 -10 81 114 l 81 622 b 126 657 81 639 100 657 b 171 622 150 657 171 639 l 171 251 b 344 74 171 161 247 74 b 518 251 440 74 518 160 l 518 624 b 564 657 518 642 539 657 b 608 624 589 657 608 642 l 608 251 b 344 -10 608 113 488 -10 "},"ú":{"ha":689,"x_min":0,"x_max":0,"o":"m 292 825 b 278 821 288 822 282 821 b 242 860 258 821 242 840 b 257 885 242 869 246 879 l 413 969 b 424 974 415 972 421 974 b 457 935 444 974 457 953 b 440 904 457 922 451 910 m 344 -10 b 81 251 199 -10 81 114 l 81 622 b 126 657 81 639 100 657 b 171 622 150 657 171 639 l 171 251 b 344 74 171 161 247 74 b 518 251 440 74 518 160 l 518 624 b 564 657 518 642 539 657 b 608 624 589 657 608 642 l 608 251 b 344 -10 608 113 488 -10 "},"ŭ":{"ha":689,"x_min":0,"x_max":0,"o":"m 344 -10 b 81 251 199 -10 81 114 l 81 622 b 126 657 81 639 100 657 b 171 622 150 657 171 639 l 171 251 b 344 74 171 161 247 74 b 518 251 440 74 518 160 l 518 624 b 564 657 518 642 539 657 b 608 624 589 657 608 642 l 608 251 b 344 -10 608 113 488 -10 m 506 992 b 344 829 506 904 428 829 b 182 992 258 829 182 904 l 243 992 b 344 879 243 928 290 879 b 444 992 397 879 444 928 "},"û":{"ha":689,"x_min":0,"x_max":0,"o":"m 200 826 b 188 822 196 825 192 822 b 158 858 172 822 158 839 b 176 889 158 869 164 882 l 321 967 b 344 974 328 971 336 974 b 368 967 353 974 361 971 l 513 889 b 531 857 525 883 531 869 b 503 824 531 839 518 824 b 489 828 499 824 493 826 l 344 904 m 344 -10 b 81 251 199 -10 81 114 l 81 622 b 126 657 81 639 100 657 b 171 622 150 657 171 639 l 171 251 b 344 74 171 161 247 74 b 518 251 440 74 518 160 l 518 624 b 564 657 518 642 539 657 b 608 624 589 657 608 642 l 608 251 b 344 -10 608 113 488 -10 "},"ü":{"ha":689,"x_min":0,"x_max":0,"o":"m 260 925 b 310 875 288 925 310 904 b 260 824 310 847 288 824 b 208 875 231 824 208 847 b 260 925 208 904 231 925 m 431 925 b 481 875 460 925 481 904 b 431 824 481 847 460 824 b 379 875 401 824 379 847 b 431 925 379 904 401 925 m 344 -10 b 81 251 199 -10 81 114 l 81 622 b 126 657 81 639 100 657 b 171 622 150 657 171 639 l 171 251 b 344 74 171 161 247 74 b 518 251 440 74 518 160 l 518 624 b 564 657 518 642 539 657 b 608 624 589 657 608 642 l 608 251 b 344 -10 608 113 488 -10 "},"ù":{"ha":689,"x_min":0,"x_max":0,"o":"m 344 -10 b 81 251 199 -10 81 114 l 81 622 b 126 657 81 639 100 657 b 171 622 150 657 171 639 l 171 251 b 344 74 171 161 247 74 b 518 251 440 74 518 160 l 518 624 b 564 657 518 642 539 657 b 608 624 589 657 608 642 l 608 251 b 344 -10 608 113 488 -10 m 249 904 b 231 935 236 910 231 922 b 264 974 231 953 244 974 b 276 969 267 974 272 972 l 431 885 b 446 860 442 879 446 869 b 410 821 446 840 429 821 b 396 825 406 821 400 822 "},"ű":{"ha":689,"x_min":0,"x_max":0,"o":"m 344 -10 b 81 251 199 -10 81 114 l 81 622 b 126 657 81 639 100 657 b 171 622 150 657 171 639 l 171 251 b 344 74 171 161 247 74 b 518 251 440 74 518 160 l 518 624 b 564 657 518 642 539 657 b 608 624 589 657 608 642 l 608 251 b 344 -10 608 113 488 -10 m 246 826 b 229 819 240 821 236 819 b 193 853 211 819 193 836 b 204 872 193 861 196 868 l 338 968 b 353 974 342 972 347 974 b 385 940 371 974 385 956 b 372 915 385 931 381 921 m 454 826 b 438 819 449 821 444 819 b 401 853 419 819 401 836 b 413 872 401 861 404 868 l 546 968 b 561 974 550 972 557 974 b 593 940 579 974 593 956 b 581 915 593 931 589 921 "},"ū":{"ha":689,"x_min":0,"x_max":0,"o":"m 344 -10 b 81 251 199 -10 81 114 l 81 622 b 126 657 81 639 100 657 b 171 622 150 657 171 639 l 171 251 b 344 74 171 161 247 74 b 518 251 440 74 518 160 l 518 624 b 564 657 518 642 539 657 b 608 624 589 657 608 642 l 608 251 b 344 -10 608 113 488 -10 m 161 917 b 196 953 161 938 175 953 l 494 953 b 529 917 511 953 529 938 b 494 882 529 897 511 882 l 196 882 b 161 917 175 882 161 897 "},"_":{"ha":467,"x_min":0,"x_max":0,"o":"m -24 -42 b 11 0 -24 -18 -10 0 l 456 0 b 490 -42 474 0 490 -18 b 456 -81 490 -65 474 -81 l 11 -81 b -24 -42 -10 -81 -24 -65 "}," ":{"ha":278,"x_min":0,"x_max":0,"o":""},"­":{"ha":657,"x_min":0,"x_max":0,"o":"m 72 333 b 107 375 72 357 86 375 l 551 375 b 586 333 569 375 586 357 b 551 294 586 310 569 294 l 107 294 b 72 333 86 294 72 310 "},"ų":{"ha":689,"x_min":0,"x_max":0,"o":"m 413 -231 b 440 -256 429 -231 440 -240 b 406 -279 440 -271 432 -279 b 271 -175 338 -279 271 -250 b 343 -10 271 -114 299 -58 b 81 251 197 -8 81 114 l 81 622 b 126 657 81 639 100 657 b 171 622 150 657 171 639 l 171 251 b 344 74 171 161 247 74 b 518 251 440 74 518 160 l 518 624 b 564 657 518 642 539 657 b 608 624 589 657 608 642 l 608 251 b 428 4 608 140 532 40 b 326 -168 371 -46 326 -101 b 413 -231 326 -212 358 -231 "},"ů":{"ha":689,"x_min":0,"x_max":0,"o":"m 343 1067 b 472 938 411 1067 472 1006 b 343 804 472 868 411 804 b 215 938 274 804 215 868 b 343 1067 215 1004 271 1067 m 425 938 b 344 1018 425 976 388 1018 b 261 938 297 1018 261 976 b 344 850 261 893 299 850 b 425 938 388 850 425 893 m 344 -10 b 81 251 199 -10 81 114 l 81 622 b 126 657 81 639 100 657 b 171 622 150 657 171 639 l 171 251 b 344 74 171 161 247 74 b 518 251 440 74 518 160 l 518 624 b 564 657 518 642 539 657 b 608 624 589 657 608 642 l 608 251 b 344 -10 608 113 488 -10 "},"ũ":{"ha":689,"x_min":0,"x_max":0,"o":"m 344 -10 b 81 251 199 -10 81 114 l 81 622 b 126 657 81 639 100 657 b 171 622 150 657 171 639 l 171 251 b 344 74 171 161 247 74 b 518 251 440 74 518 160 l 518 624 b 564 657 518 642 539 657 b 608 624 589 657 608 642 l 608 251 b 344 -10 608 113 488 -10 m 258 894 b 156 850 199 894 179 850 b 129 885 138 850 129 869 b 251 964 129 936 207 964 b 435 917 324 964 363 917 b 532 957 497 917 507 957 b 560 925 550 957 560 938 b 443 846 560 868 483 846 b 258 894 368 846 333 894 "},"v":{"ha":583,"x_min":0,"x_max":0,"o":"m 26 597 b 21 618 24 601 21 613 b 75 660 21 642 51 660 b 108 639 89 660 103 653 l 292 139 l 475 633 b 507 660 481 647 486 660 b 563 619 528 660 563 642 b 557 597 563 611 560 603 l 333 11 b 292 -11 328 -3 311 -11 b 250 11 272 -11 256 -4 "},"w":{"ha":926,"x_min":0,"x_max":0,"o":"m 682 11 b 646 -11 676 -6 661 -11 b 608 10 626 -11 615 -4 l 464 461 l 321 17 b 281 -11 315 -3 300 -11 b 243 17 263 -11 250 -6 l 26 599 b 21 619 24 604 21 614 b 75 660 21 642 50 660 b 107 639 89 660 103 653 l 285 144 l 428 596 b 464 619 433 614 446 619 b 500 596 481 619 494 614 l 638 139 l 819 639 b 850 660 822 651 836 660 b 904 619 874 660 904 644 b 899 599 904 613 901 603 "},"ẃ":{"ha":926,"x_min":0,"x_max":0,"o":"m 415 825 b 401 821 411 822 406 821 b 365 860 382 821 365 840 b 381 885 365 869 369 879 l 536 969 b 547 974 539 972 544 974 b 581 935 568 974 581 953 b 564 904 581 922 575 910 m 682 11 b 646 -11 676 -6 661 -11 b 608 10 626 -11 615 -4 l 464 461 l 321 17 b 281 -11 315 -3 300 -11 b 243 17 263 -11 250 -6 l 26 599 b 21 619 24 604 21 614 b 75 660 21 642 50 660 b 107 639 89 660 103 653 l 285 144 l 428 596 b 464 619 433 614 446 619 b 500 596 481 619 494 614 l 638 139 l 819 639 b 850 660 822 651 836 660 b 904 619 874 660 904 644 b 899 599 904 613 901 603 "},"ŵ":{"ha":926,"x_min":0,"x_max":0,"o":"m 318 826 b 306 822 314 825 310 822 b 276 858 290 822 276 839 b 294 889 276 869 282 882 l 439 967 b 463 974 446 971 454 974 b 486 967 471 974 479 971 l 631 889 b 649 857 643 883 649 869 b 621 824 649 839 636 824 b 607 828 617 824 611 826 l 463 904 m 682 11 b 646 -11 676 -6 661 -11 b 608 10 626 -11 615 -4 l 464 461 l 321 17 b 281 -11 315 -3 300 -11 b 243 17 263 -11 250 -6 l 26 599 b 21 619 24 604 21 614 b 75 660 21 642 50 660 b 107 639 89 660 103 653 l 285 144 l 428 596 b 464 619 433 614 446 619 b 500 596 481 619 494 614 l 638 139 l 819 639 b 850 660 822 651 836 660 b 904 619 874 660 904 644 b 899 599 904 613 901 603 "},"ẅ":{"ha":926,"x_min":0,"x_max":0,"o":"m 378 925 b 428 875 406 925 428 904 b 378 824 428 847 406 824 b 326 875 349 824 326 847 b 378 925 326 904 349 925 m 549 925 b 599 875 578 925 599 904 b 549 824 599 847 578 824 b 497 875 519 824 497 847 b 549 925 497 904 519 925 m 682 11 b 646 -11 676 -6 661 -11 b 608 10 626 -11 615 -4 l 464 461 l 321 17 b 281 -11 315 -3 300 -11 b 243 17 263 -11 250 -6 l 26 599 b 21 619 24 604 21 614 b 75 660 21 642 50 660 b 107 639 89 660 103 653 l 285 144 l 428 596 b 464 619 433 614 446 619 b 500 596 481 619 494 614 l 638 139 l 819 639 b 850 660 822 651 836 660 b 904 619 874 660 904 644 b 899 599 904 613 901 603 "},"ẁ":{"ha":926,"x_min":0,"x_max":0,"o":"m 682 11 b 646 -11 676 -6 661 -11 b 608 10 626 -11 615 -4 l 464 461 l 321 17 b 281 -11 315 -3 300 -11 b 243 17 263 -11 250 -6 l 26 599 b 21 619 24 604 21 614 b 75 660 21 642 50 660 b 107 639 89 660 103 653 l 285 144 l 428 596 b 464 619 433 614 446 619 b 500 596 481 619 494 614 l 638 139 l 819 639 b 850 660 822 651 836 660 b 904 619 874 660 904 644 b 899 599 904 613 901 603 m 363 904 b 344 935 350 910 344 922 b 378 974 344 953 358 974 b 390 969 381 974 386 972 l 544 885 b 560 860 556 879 560 869 b 524 821 560 840 543 821 b 510 825 519 821 514 822 "},"x":{"ha":569,"x_min":0,"x_max":0,"o":"m 35 35 b 40 54 35 42 38 49 l 225 332 l 44 601 b 38 619 42 607 38 613 b 93 665 38 642 69 665 b 121 651 101 665 114 663 l 285 397 l 450 651 b 476 665 456 661 468 665 b 532 619 499 665 532 643 b 525 601 532 614 529 608 l 343 332 l 529 54 b 535 35 532 50 535 43 b 481 -10 535 14 506 -10 b 454 4 471 -10 460 -6 l 285 264 l 117 4 b 88 -10 110 -6 99 -10 b 35 35 67 -10 35 13 "},"y":{"ha":583,"x_min":0,"x_max":0,"o":"m 24 610 b 19 622 21 614 19 618 b 75 665 19 646 51 665 b 107 646 89 665 103 660 l 297 135 l 476 646 b 507 665 482 660 494 665 b 563 621 529 665 563 647 b 560 610 563 618 563 613 l 344 26 b 63 -322 289 -124 219 -322 b 21 -282 39 -322 21 -312 b 49 -240 21 -261 28 -240 b 250 28 136 -240 215 -117 "},"ý":{"ha":583,"x_min":0,"x_max":0,"o":"m 24 610 b 19 622 21 614 19 618 b 75 665 19 646 51 665 b 107 646 89 665 103 660 l 297 135 l 476 646 b 507 665 482 660 494 665 b 563 621 529 665 563 647 b 560 610 563 618 563 613 l 344 26 b 63 -322 289 -124 219 -322 b 21 -282 39 -322 21 -312 b 49 -240 21 -261 28 -240 b 250 28 136 -240 215 -117 m 250 825 b 236 821 246 822 240 821 b 200 860 217 821 200 840 b 215 885 200 869 204 879 l 371 969 b 382 974 374 972 379 974 b 415 935 403 974 415 953 b 399 904 415 922 410 910 "},"ŷ":{"ha":583,"x_min":0,"x_max":0,"o":"m 24 610 b 19 622 21 614 19 618 b 75 665 19 646 51 665 b 107 646 89 665 103 660 l 297 135 l 476 646 b 507 665 482 660 494 665 b 563 621 529 665 563 647 b 560 610 563 618 563 613 l 344 26 b 63 -322 289 -124 219 -322 b 21 -282 39 -322 21 -312 b 49 -240 21 -261 28 -240 b 250 28 136 -240 215 -117 m 151 826 b 139 822 147 825 143 822 b 110 858 124 822 110 839 b 128 889 110 869 115 882 l 272 967 b 296 974 279 971 288 974 b 319 967 304 974 313 971 l 464 889 b 482 857 476 883 482 869 b 454 824 482 839 469 824 b 440 828 450 824 444 826 l 296 904 "},"ÿ":{"ha":583,"x_min":0,"x_max":0,"o":"m 24 610 b 19 622 21 614 19 618 b 75 665 19 646 51 665 b 107 646 89 665 103 660 l 297 135 l 476 646 b 507 665 482 660 494 665 b 563 621 529 665 563 647 b 560 610 563 618 563 613 l 344 26 b 63 -322 289 -124 219 -322 b 21 -282 39 -322 21 -312 b 49 -240 21 -261 28 -240 b 250 28 136 -240 215 -117 m 211 925 b 261 875 239 925 261 904 b 211 824 261 847 239 824 b 160 875 182 824 160 847 b 211 925 160 904 182 925 m 382 925 b 432 875 411 925 432 904 b 382 824 432 847 411 824 b 331 875 353 824 331 847 b 382 925 331 904 353 925 "},"¥":{"ha":701,"x_min":0,"x_max":0,"o":"m 110 467 b 143 504 110 488 124 504 l 279 504 l 38 964 b 33 978 35 968 33 974 b 85 1018 33 997 60 1018 b 118 994 100 1018 110 1010 l 347 547 l 586 994 b 618 1018 594 1010 603 1018 b 668 978 642 1018 668 999 b 665 964 668 974 667 968 l 413 504 l 557 504 b 592 467 575 504 592 488 b 557 431 592 446 575 431 l 392 431 l 392 329 l 557 329 b 592 292 575 329 592 313 b 557 256 592 269 575 256 l 392 256 l 392 35 b 347 0 392 14 371 0 b 301 35 322 0 301 14 l 301 256 l 143 256 b 110 290 124 256 110 269 b 143 329 110 313 124 329 l 301 329 l 301 431 l 143 431 b 110 467 124 431 110 446 "},"ỳ":{"ha":583,"x_min":0,"x_max":0,"o":"m 24 610 b 19 622 21 614 19 618 b 75 665 19 646 51 665 b 107 646 89 665 103 660 l 297 135 l 476 646 b 507 665 482 660 494 665 b 563 621 529 665 563 647 b 560 610 563 618 563 613 l 344 26 b 63 -322 289 -124 219 -322 b 21 -282 39 -322 21 -312 b 49 -240 21 -261 28 -240 b 250 28 136 -240 215 -117 m 190 904 b 172 935 178 910 172 922 b 206 974 172 953 186 974 b 218 969 208 974 214 972 l 372 885 b 388 860 383 879 388 869 b 351 821 388 840 371 821 b 338 825 347 821 342 822 "},"z":{"ha":557,"x_min":0,"x_max":0,"o":"m 492 81 b 525 39 510 81 525 63 b 492 0 525 18 511 0 l 71 0 b 33 36 47 0 33 18 b 47 71 33 47 40 61 l 388 578 l 81 578 b 47 617 63 578 47 596 b 81 657 47 639 61 657 l 474 657 b 508 621 492 657 508 643 b 497 588 508 608 504 597 l 156 81 "},"ź":{"ha":557,"x_min":0,"x_max":0,"o":"m 232 825 b 218 821 228 822 222 821 b 182 860 199 821 182 840 b 197 885 182 869 186 879 l 353 969 b 364 974 356 972 361 974 b 397 935 385 974 397 953 b 381 904 397 922 392 910 m 492 81 b 525 39 510 81 525 63 b 492 0 525 18 511 0 l 71 0 b 33 36 47 0 33 18 b 47 71 33 47 40 61 l 388 578 l 81 578 b 47 617 63 578 47 596 b 81 657 47 639 61 657 l 474 657 b 508 621 492 657 508 643 b 497 588 508 608 504 597 l 156 81 "},"ž":{"ha":557,"x_min":0,"x_max":0,"o":"m 275 879 l 413 1007 b 433 1015 419 1014 426 1015 b 460 985 449 1015 460 1000 b 443 953 460 974 454 963 l 303 828 b 275 814 293 819 283 814 b 247 828 265 814 256 819 l 107 953 b 89 985 94 963 89 974 b 115 1015 89 1000 100 1015 b 136 1007 122 1015 129 1014 m 492 81 b 525 39 510 81 525 63 b 492 0 525 18 511 0 l 71 0 b 33 36 47 0 33 18 b 47 71 33 47 40 61 l 388 578 l 81 578 b 47 617 63 578 47 596 b 81 657 47 639 61 657 l 474 657 b 508 621 492 657 508 643 b 497 588 508 608 504 597 l 156 81 "},"ż":{"ha":557,"x_min":0,"x_max":0,"o":"m 492 81 b 525 39 510 81 525 63 b 492 0 525 18 511 0 l 71 0 b 33 36 47 0 33 18 b 47 71 33 47 40 61 l 388 578 l 81 578 b 47 617 63 578 47 596 b 81 657 47 639 61 657 l 474 657 b 508 621 492 657 508 643 b 497 588 508 608 504 597 l 156 81 m 276 925 b 326 875 304 925 326 904 b 276 824 326 847 304 824 b 225 875 247 824 225 847 b 276 925 225 904 247 925 "},"₀":{"ha":472,"x_min":0,"x_max":0,"o":"m 236 -4 b 64 154 139 -4 64 39 l 64 365 b 236 524 64 479 139 524 b 408 365 333 524 408 479 l 408 154 b 236 -4 408 39 333 -4 m 339 365 b 236 461 339 431 300 461 b 135 365 172 461 135 431 l 135 154 b 236 58 135 89 172 58 b 339 154 300 58 339 89 "},"⁰":{"ha":472,"x_min":0,"x_max":0,"o":"m 236 488 b 64 646 139 488 64 531 l 64 857 b 236 1015 64 972 139 1015 b 408 857 333 1015 408 972 l 408 646 b 236 488 408 531 333 488 m 339 857 b 236 953 339 922 300 953 b 135 857 172 953 135 922 l 135 646 b 236 550 135 581 172 550 b 339 646 300 550 339 581 "}}}
